{
.appVersion = "3130";
.formatVersion = 3;
DisplayStrings = (
"≥"
);
axes = (
{
name = Weight;
tag = wght;
}
);
classes = (
{
automatic = 1;

glyphs = (
{
glyphname = A;
kernLeft = A_2nd;
kernRight = A_1st;
layers = (
{
background = {
shapes = (
{
closed = 1;
nodes = (
(145,0,l),
(194,141,l),
(520,141,l),
(567,0,l),
(724,0,l),
(495,623,ls),
(473,684,o),
(420,712,o),
(359,712,cs),
(298,712,o),
(245,682,o),
(223,622,cs),
(-5,0,l)
);
},
{
closed = 1;
nodes = (
(344,574,ls),
(347,582,o),
(352,587,o),
(360,587,cs),
(368,587,o),
(374,583,o),
(377,574,cs),
(478,267,l),
(237,267,l)
);
}
);
};
layerId = "5dd0c03f-0ac1-43be-b978-266741ffc02a";
shapes = (
{
closed = 1;
nodes = (
(32,0,l),
(115,212,l),
(539,212,l),
(623,0,l),
(650,0,l),
(394,651,ls),
(376,696,o),
(358,713,o),
(326,713,cs),
(295,713,o),
(277,696,o),
(259,650,cs),
(5,0,l)
);
},
{
closed = 1;
nodes = (
(283,642,ls),
(295,672,o),
(303,690,o),
(326,690,cs),
(349,690,o),
(358,671,o),
(370,642,cs),
(530,235,l),
(124,235,l)
);
}
);
width = 655;
},
{
layerId = "41AFA816-2F69-4745-BF67-F6DEA15443A0";
shapes = (
{
closed = 1;
nodes = (
(150,0,l),
(199,141,l),
(525,141,l),
(572,0,l),
(729,0,l),
(500,623,ls),
(478,684,o),
(425,712,o),
(364,712,cs),
(303,712,o),
(250,682,o),
(228,622,cs),
(0,0,l)
);
},
{
closed = 1;
nodes = (
(349,574,ls),
(352,582,o),
(357,587,o),
(365,587,cs),
(373,587,o),
(379,583,o),
(382,574,cs),
(483,267,l),
(242,267,l)
);
}
);
width = 729;
},
{
layerId = "32E5C913-0890-451E-8980-44FAA246AB8A";
shapes = (
{
closed = 1;
nodes = (
(224,0,l),
(264,122,l),
(503,122,l),
(541,0,l),
(770,0,l),
(546,613,ls),
(521,680,o),
(458,713,o),
(385,713,cs),
(311,713,o),
(249,678,o),
(224,612,cs),
(0,0,l)
);
},
{
closed = 1;
nodes = (
(378,512,ls),
(379,516,o),
(382,518,o),
(385,518,cs),
(389,518,o),
(392,516,o),
(393,512,cs),
(458,287,l),
(309,287,l)
);
}
);
width = 770;
}
);
unicode = 65;
},
{
glyphname = Aogonek;
kernLeft = A_2nd;
kernRight = A_1st;
layers = (
{
background = {
shapes = (
{
closed = 1;
nodes = (
(623,-215,o),
(636,-213,o),
(649,-208,c),
(649,-187,l),
(636,-192,o),
(623,-194,o),
(611,-194,cs),
(579,-194,o),
(553,-177,o),
(553,-142,cs),
(553,-83,o),
(642,-7,o),
(649.85,0.298,c),
(631,13,l),
(624,7,o),
(528,-76,o),
(528,-141,cs),
(528,-185,o),
(565,-215,o),
(610,-215,cs)
);
}
);
};
layerId = "5dd0c03f-0ac1-43be-b978-266741ffc02a";
shapes = (
{
closed = 1;
nodes = (
(623,-215,o),
(636,-213,o),
(649,-208,c),
(649,-187,l),
(636,-192,o),
(623,-194,o),
(611,-194,cs),
(579,-194,o),
(553,-177,o),
(553,-142,cs),
(553,-106,o),
(582,-61,o),
(650,0,c),
(631,13,l),
(569,-41,o),
(528,-100,o),
(528,-141,cs),
(528,-185,o),
(565,-215,o),
(610,-215,cs)
);
},
{
ref = A;
}
);
width = 655;
},
{
background = {
shapes = (
{
closed = 1;
nodes = (
(671,-218,o),
(695,-215,o),
(709,-211,c),
(709,-126,l),
(695,-131,o),
(681,-134,o),
(666,-134,cs),
(635,-134,o),
(611,-112,o),
(611,-80,cs),
(611,-29,o),
(670,57,o),
(676,66,c),
(641,86,l),
(634,78,o),
(526,-33,o),
(526,-104,cs),
(526,-181,o),
(585,-218,o),
(657,-218,cs)
);
}
);
};
layerId = "41AFA816-2F69-4745-BF67-F6DEA15443A0";
shapes = (
{
closed = 1;
nodes = (
(671,-218,o),
(695,-215,o),
(709,-211,c),
(709,-126,l),
(695,-131,o),
(681,-134,o),
(666,-134,cs),
(635,-134,o),
(611,-112,o),
(611,-80,cs),
(611,-49,o),
(633,0,o),
(676,66,c),
(641,86,l),
(558,-6,o),
(526,-63,o),
(526,-104,cs),
(526,-181,o),
(585,-218,o),
(657,-218,cs)
);
},
{
alignment = -1;
ref = A;
}
);
width = 729;
},
{
background = {
shapes = (
{
closed = 1;
nodes = (
(653,-219,o),
(685,-215,o),
(703,-210,c),
(703,-117,l),
(691,-121,o),
(675,-124,o),
(659,-124,cs),
(625,-124,o),
(607,-104,o),
(607,-77,cs),
(607,-29,o),
(672,62,o),
(676,69,c),
(619,95,l),
(612,87,o),
(497,-26,o),
(496,-106,cs),
(495,-186,o),
(554,-219,o),
(632,-219,cs)
);
}
);
};
layerId = "32E5C913-0890-451E-8980-44FAA246AB8A";
shapes = (
{
closed = 1;
nodes = (
(653,-219,o),
(685,-215,o),
(703,-210,c),
(703,-117,l),
(691,-121,o),
(675,-124,o),
(659,-124,cs),
(625,-124,o),
(607,-104,o),
(607,-77,cs),
(607,-47,o),
(630,2,o),
(676,69,c),
(619,95,l),
(532,0,o),
(496,-59,o),
(496,-106,cs),
(496,-186,o),
(554,-219,o),
(632,-219,cs)
);
},
{
alignment = -1;
ref = A;
}
);
width = 770;
}
);
unicode = 260;
},
{
glyphname = AE;
kernLeft = A_2nd;
kernRight = E_1st;
layers = (
{
background = {
shapes = (
{
closed = 1;
nodes = (
(501,345,l),
(877,345,l),
(877,368,l),
(492,368,l)
);
},
{
closed = 1;
nodes = (
(445,700,o),
(393,585,o),
(452,436,cs),
(592,81,ls),
(611,34,o),
(659,0,o),
(720,0,cs),
(919,0,l),
(919,23,l),
(721,23,ls),
(668,23,o),
(630,54,o),
(615,92,cs),
(469,460,ls),
(424,573,o),
(467,677,o),
(602,677,cs),
(919,677,l),
(919,700,l),
(609,700,ls)
);
},
{
closed = 1;
nodes = (
(544,235,l),
(110,235,l),
(103,212,l),
(552,212,l)
);
},
{
closed = 1;
nodes = (
(574,127,l),
(600,129,l),
(394,651,ls),
(376,696,o),
(358,713,o),
(326,713,cs),
(295,713,o),
(277,696,o),
(259,650,cs),
(5,0,l),
(32,0,l),
(283,642,ls),
(295,672,o),
(303,690,o),
(326,690,cs),
(349,690,o),
(358,671,o),
(370,642,cs)
);
}
);
};
layerId = "5dd0c03f-0ac1-43be-b978-266741ffc02a";
shapes = (
{
closed = 1;
nodes = (
(32,0,l),
(115,212,l),
(540,212,l),
(592,81,ls),
(611,34,o),
(659,0,o),
(720,0,cs),
(919,0,l),
(919,23,l),
(721,23,ls),
(668,23,o),
(630,54,o),
(615,92,cs),
(515,345,l),
(877,345,l),
(877,368,l),
(506,368,l),
(464,474,ls),
(428,581,o),
(473,677,o),
(602,677,cs),
(919,677,l),
(919,700,l),
(609,700,ls),
(490,700,o),
(428,634,o),
(432,556,c),
(394,651,ls),
(376,695,o),
(358,713,o),
(326,713,cs),
(295,713,o),
(277,696,o),
(259,650,cs),
(5,0,l)
);
},
{
closed = 1;
nodes = (
(283,642,ls),
(295,672,o),
(303,690,o),
(326,690,cs),
(349,690,o),
(358,671,o),
(370,642,cs),
(531,235,l),
(124,235,l)
);
}
);
width = 934;
},
{
layerId = "41AFA816-2F69-4745-BF67-F6DEA15443A0";
shapes = (
{
closed = 1;
nodes = (
(150,0,l),
(199,141,l),
(525,141,l),
(540,98,ls),
(559,44,o),
(612,0,o),
(688,0,c),
(942,0,l),
(942,126,l),
(730,126,ls),
(693,126,o),
(675,143,o),
(662,180,cs),
(620,293,l),
(908,293,l),
(908,419,l),
(574,419,l),
(556,470,ls),
(540,511,o),
(569,574,o),
(629,574,cs),
(942,574,l),
(942,700,l),
(610,700,ls),
(562,700,o),
(515,682,o),
(485,645,c),
(482,649,ls),
(448,692,o),
(412,712,o),
(364,712,cs),
(303,712,o),
(250,682,o),
(228,622,cs),
(0,0,l)
);
},
{
closed = 1;
nodes = (
(349,574,ls),
(352,582,o),
(357,587,o),
(365,587,cs),
(373,587,o),
(379,583,o),
(382,574,cs),
(483,267,l),
(242,267,l)
);
}
);
width = 982;
},
{
background = {
shapes = (
{
closed = 1;
nodes = (
(214,0,l),
(260,131,l),
(508,131,l),
(512,118,ls),
(541,46,o),
(614,0,o),
(704,0,c),
(974,0,l),
(974,170,l),
(753,169,ls),
(718,169,o),
(697,196,o),
(684,239,cs),
(673,270,l),
(941,270,l),
(941,434,l),
(612,434,l),
(606,449,ls),
(588,497,o),
(604,533,o),
(647,533,cs),
(974,533,l),
(974,700,l),
(640,700,ls),
(588,700,o),
(548,684,o),
(521,653,c),
(519,656,ls),
(486,694,o),
(439,713,o),
(385,713,cs),
(311,713,o),
(249,678,o),
(224,612,cs),
(0,0,l)
);
},
{
closed = 1;
nodes = (
(379,511,ls),
(381,515,o),
(383,520,o),
(385,520,cs),
(388,520,o),
(390,516,o),
(392,511,cs),
(463,296,l),
(304,296,l)
);
}
);
};
layerId = "32E5C913-0890-451E-8980-44FAA246AB8A";
shapes = (
{
closed = 1;
nodes = (
(214,0,l),
(260,131,l),
(508,131,l),
(512,118,ls),
(535,44,o),
(614,0,o),
(704,0,c),
(974,0,l),
(974,169,l),
(753,169,ls),
(718,169,o),
(699,197,o),
(684,239,cs),
(673,270,l),
(941,270,l),
(941,434,l),
(612,434,l),
(606,449,ls),
(587,497,o),
(604,533,o),
(647,533,cs),
(974,533,l),
(974,700,l),
(640,700,ls),
(588,700,o),
(548,684,o),
(521,653,c),
(519,656,ls),
(491,698,o),
(439,713,o),
(385,713,cs),
(311,713,o),
(248,678,o),
(224,612,cs),
(0,0,l)
);
},
{
closed = 1;
nodes = (
(379,511,ls),
(382,519,o),
(383,520,o),
(386,520,cs),
(388,520,o),
(389,519,o),
(392,511,cs),
(463,296,l),
(304,296,l)
);
}
);
width = 996;
}
);
unicode = 198;
},
{
glyphname = B;
kernLeft = H_2nd;
kernRight = S_1st;
layers = (
{
background = {
shapes = (
{
closed = 1;
nodes = (
(225,574,l),
(449,574,ls),
(493,574,o),
(528,539,o),
(528,495,cs),
(528,451,o),
(493,416,o),
(449,416,cs),
(225,416,l),
(225,296,l),
(462,296,ls),
(509,296,o),
(547,258,o),
(547,211,cs),
(547,164,o),
(509,126,o),
(462,126,cs),
(225,126,l),
(225,0,l),
(503,0,ls),
(606,0,o),
(690,73,o),
(690,186,cs),
(690,268,o),
(636,338,o),
(563,363,c),
(626,388,o),
(671,449,o),
(671,520,cs),
(671,629,o),
(590,700,o),
(491,700,cs),
(225,700,l)
);
},
{
closed = 1;
nodes = (
(98,700,l),
(98,0,l),
(241,0,l),
(241,110,l),
(241,700,l)
);
},
{
closed = 1;
nodes = (
(443,0,ls),
(579,0,o),
(641,95,o),
(641,187,cs),
(641,270,o),
(584,345,o),
(493,360,c),
(574,380,o),
(620,455,o),
(620,526,cs),
(620,615,o),
(556,700,o),
(441,700,cs),
(94,700,l),
(94,677,l),
(437,677,ls),
(537,677,o),
(595,604,o),
(595,526,cs),
(595,447,o),
(534,369,o),
(426,369,cs),
(94,369,l),
(94,345,l),
(441,345,ls),
(556,345,o),
(616,267,o),
(616,187,cs),
(616,105,o),
(560,24,o),
(449,24,cs),
(94,24,l),
(94,0,l)
);
},
{
closed = 1;
nodes = (
(110,0,l),
(110,700,l),
(85,700,l),
(85,0,l)
);
}
);
};
layerId = "5dd0c03f-0ac1-43be-b978-266741ffc02a";
shapes = (
{
closed = 1;
nodes = (
(443,0,ls),
(579,0,o),
(641,95,o),
(641,187,cs),
(641,270,o),
(584,345,o),
(493,360,c),
(574,380,o),
(624,455,o),
(624,526,cs),
(624,615,o),
(560,700,o),
(445,700,cs),
(85,700,l),
(85,0,l)
);
},
{
closed = 1;
nodes = (
(110,345,l),
(441,345,ls),
(556,345,o),
(616,267,o),
(616,187,cs),
(616,105,o),
(560,24,o),
(449,24,cs),
(110,24,l)
);
},
{
closed = 1;
nodes = (
(110,677,l),
(441,677,ls),
(541,677,o),
(599,604,o),
(599,526,cs),
(599,447,o),
(534,369,o),
(426,369,cs),
(110,369,l)
);
}
);
width = 686;
},
{
layerId = "41AFA816-2F69-4745-BF67-F6DEA15443A0";
shapes = (
{
closed = 1;
nodes = (
(475,0,ls),
(578,0,o),
(662,73,o),
(662,186,cs),
(662,268,o),
(608,338,o),
(535,363,c),
(598,388,o),
(643,449,o),
(643,520,cs),
(643,629,o),
(562,700,o),
(463,700,cs),
(70,700,l),
(70,0,l)
);
},
{
closed = 1;
nodes = (
(213,296,l),
(434,296,ls),
(481,296,o),
(519,258,o),
(519,211,cs),
(519,164,o),
(481,126,o),
(434,126,cs),
(213,126,l)
);
},
{
closed = 1;
nodes = (
(213,574,l),
(421,574,ls),
(465,574,o),
(500,539,o),
(500,495,cs),
(500,451,o),
(465,416,o),
(421,416,cs),
(213,416,l)
);
}
);
width = 702;
},
{
layerId = "32E5C913-0890-451E-8980-44FAA246AB8A";
shapes = (
{
closed = 1;
nodes = (
(486,0,ls),
(602,0,o),
(697,78,o),
(697,197,cs),
(697,267,o),
(656,328,o),
(597,363,c),
(646,396,o),
(680,450,o),
(680,508,cs),
(680,624,o),
(588,700,o),
(474,700,cs),
(44,700,l),
(44,0,l)
);
},
{
closed = 1;
nodes = (
(260,270,l),
(437,270,ls),
(468,270,o),
(488,247,o),
(488,218,cs),
(488,187,o),
(468,164,o),
(437,164,cs),
(260,164,l)
);
},
{
closed = 1;
nodes = (
(260,531,l),
(412,531,ls),
(443,531,o),
(461,508,o),
(461,481,cs),
(461,455,o),
(442,430,o),
(412,430,cs),
(260,430,l)
);
}
);
width = 726;
}
);
unicode = 66;
},
{
glyphname = C;
kernLeft = O_2nd;
kernRight = C_1st;
layers = (
{
background = {
shapes = (
{
closed = 1;
nodes = (
(498,0,l),
(498,126,l),
(392,126,l),
(265,128,o),
(173,222,o),
(173,350,cs),
(173,477,o),
(265,572,o),
(392,574,c),
(498,574,l),
(498,700,l),
(389,700,l),
(171,696,o),
(30,542,o),
(30,350,cs),
(30,158,o),
(171,4,o),
(389,0,c)
);
}
);
};
layerId = "5dd0c03f-0ac1-43be-b978-266741ffc02a";
shapes = (
{
closed = 1;
nodes = (
(449,0,l),
(449,24,l),
(390,24,ls),
(203,24,o),
(58,165,o),
(58,351,cs),
(58,535,o),
(203,677,o),
(390,677,cs),
(449,677,l),
(449,700,l),
(387,700,ls),
(178,700,o),
(30,542,o),
(30,351,cs),
(30,159,o),
(178,0,o),
(387,0,cs)
);
}
);
width = 479;
},
{
background = {
shapes = (
{
closed = 1;
nodes = (
(498,0,l),
(498,126,l),
(392,126,l),
(265,128,o),
(173,222,o),
(173,350,cs),
(173,477,o),
(265,572,o),
(392,574,c),
(498,574,l),
(498,700,l),
(389,700,l),
(171,696,o),
(30,542,o),
(30,350,cs),
(30,158,o),
(171,4,o),
(389,0,c)
);
}
);
};
layerId = "41AFA816-2F69-4745-BF67-F6DEA15443A0";
shapes = (
{
closed = 1;
nodes = (
(498,0,l),
(498,126,l),
(392,126,ls),
(265,126,o),
(173,222,o),
(173,350,cs),
(173,477,o),
(265,574,o),
(392,574,cs),
(498,574,l),
(498,700,l),
(389,700,ls),
(171,700,o),
(30,542,o),
(30,350,cs),
(30,158,o),
(171,0,o),
(389,0,cs)
);
}
);
width = 538;
},
{
background = {
shapes = (
{
closed = 1;
nodes = (
(530,0,l),
(530,169,l),
(431,169,ls),
(307,169,o),
(246,248,o),
(246,350,cs),
(246,452,o),
(307,531,o),
(431,531,cs),
(530,531,l),
(530,700,l),
(424,700,ls),
(174,699,o),
(26,558,o),
(26,350,cs),
(26,142,o),
(173,1,o),
(424,0,cs)
);
}
);
};
layerId = "32E5C913-0890-451E-8980-44FAA246AB8A";
shapes = (
{
closed = 1;
nodes = (
(530,0,l),
(530,169,l),
(431,169,ls),
(307,169,o),
(246,248,o),
(246,350,cs),
(246,452,o),
(307,531,o),
(431,531,cs),
(530,531,l),
(530,700,l),
(424,700,ls),
(174,700,o),
(26,558,o),
(26,350,cs),
(26,142,o),
(173,0,o),
(424,0,cs)
);
}
);
width = 552;
}
);
unicode = 67;
},
{
glyphname = D;
kernLeft = H_2nd;
kernRight = O_1st;
layers = (
{
background = {
shapes = (
{
closed = 1;
nodes = (
(321,0,ls),
(544,0,o),
(688,146,o),
(688,350,cs),
(688,554,o),
(544,700,o),
(321,700,cs),
(85,700,l),
(85,0,l)
);
},
{
closed = 1;
nodes = (
(228,574,l),
(321,574,ls),
(450,574,o),
(545,489,o),
(545,350,cs),
(545,211,o),
(450,126,o),
(321,126,cs),
(228,126,l)
);
}
);
};
layerId = "5dd0c03f-0ac1-43be-b978-266741ffc02a";
shapes = (
{
closed = 1;
nodes = (
(292,0,ls),
(512,0,o),
(654,147,o),
(654,351,cs),
(654,554,o),
(512,700,o),
(292,700,cs),
(85,700,l),
(85,0,l)
);
},
{
closed = 1;
nodes = (
(110,677,l),
(294,677,ls),
(486,677,o),
(629,553,o),
(629,351,cs),
(629,147,o),
(486,23,o),
(294,23,cs),
(110,23,l)
);
}
);
width = 714;
},
{
layerId = "41AFA816-2F69-4745-BF67-F6DEA15443A0";
shapes = (
{
closed = 1;
nodes = (
(306,0,ls),
(529,0,o),
(673,146,o),
(673,350,cs),
(673,554,o),
(529,700,o),
(306,700,cs),
(70,700,l),
(70,0,l)
);
},
{
closed = 1;
nodes = (
(213,574,l),
(306,574,ls),
(435,574,o),
(530,489,o),
(530,350,cs),
(530,211,o),
(435,126,o),
(306,126,cs),
(213,126,l)
);
}
);
width = 703;
},
{
layerId = "32E5C913-0890-451E-8980-44FAA246AB8A";
shapes = (
{
closed = 1;
nodes = (
(341,0,ls),
(561,0,o),
(702,145,o),
(702,350,cs),
(702,554,o),
(561,700,o),
(341,700,cs),
(44,700,l),
(44,0,l)
);
},
{
closed = 1;
nodes = (
(260,531,l),
(329,531,ls),
(418,531,o),
(484,462,o),
(484,350,cs),
(484,237,o),
(418,169,o),
(329,169,cs),
(260,169,l)
);
}
);
width = 728;
}
);
unicode = 68;
},
{
glyphname = Eth;
kernLeft = H_2nd;
kernRight = O_1st;
layers = (
{
background = {
shapes = (
{
closed = 1;
nodes = (
(318,346,l),
(318,369,l),
(0,369,l),
(0,346,l)
);
},
{
ref = D;
}
);
};
layerId = "5dd0c03f-0ac1-43be-b978-266741ffc02a";
shapes = (
{
closed = 1;
nodes = (
(292,0,ls),
(512,0,o),
(654,147,o),
(654,351,cs),
(654,554,o),
(512,700,o),
(292,700,cs),
(85,700,l),
(85,369,l),
(0,369,l),
(0,346,l),
(85,346,l),
(85,0,l)
);
},
{
closed = 1;
nodes = (
(110,346,l),
(318,346,l),
(318,369,l),
(110,369,l),
(110,677,l),
(294,677,ls),
(486,677,o),
(629,553,o),
(629,351,cs),
(629,147,o),
(486,23,o),
(294,23,cs),
(110,23,l)
);
}
);
width = 714;
},
{
background = {
shapes = (
{
closed = 1;
nodes = (
(306,0,ls),
(529,0,o),
(673,146,o),
(673,350,cs),
(673,554,o),
(529,700,o),
(306,700,cs),
(70,700,l),
(70,0,l)
);
},
{
closed = 1;
nodes = (
(213,574,l),
(306,574,ls),
(435,574,o),
(530,489,o),
(530,350,cs),
(530,211,o),
(435,126,o),
(306,126,cs),
(213,126,l)
);
},
{
closed = 1;
nodes = (
(318,290,l),
(318,415,l),
(0,415,l),
(0,290,l)
);
}
);
};
layerId = "41AFA816-2F69-4745-BF67-F6DEA15443A0";
shapes = (
{
closed = 1;
nodes = (
(306,0,ls),
(529,0,o),
(673,146,o),
(673,350,cs),
(673,554,o),
(529,700,o),
(306,700,cs),
(70,700,l),
(70,415,l),
(0,415,l),
(0,290,l),
(70,290,l),
(70,0,l)
);
},
{
closed = 1;
nodes = (
(213,290,l),
(318,290,l),
(318,415,l),
(213,415,l),
(213,574,l),
(306,574,ls),
(435,574,o),
(530,489,o),
(530,350,cs),
(530,211,o),
(435,126,o),
(306,126,cs),
(213,126,l)
);
}
);
width = 703;
},
{
layerId = "32E5C913-0890-451E-8980-44FAA246AB8A";
shapes = (
{
closed = 1;
nodes = (
(340,0,ls),
(560,0,o),
(701,145,o),
(701,350,cs),
(701,554,o),
(560,700,o),
(340,700,cs),
(43,700,l),
(43,415,l),
(-4,415,l),
(-4,290,l),
(43,290,l),
(43,0,l)
);
},
{
closed = 1;
nodes = (
(259,290,l),
(349,290,l),
(349,415,l),
(259,415,l),
(259,531,l),
(329,531,ls),
(417,531,o),
(483,462,o),
(483,350,cs),
(483,237,o),
(417,169,o),
(329,169,cs),
(259,169,l)
);
}
);
width = 727;
}
);
unicode = 208;
},
{
glyphname = E;
kernLeft = H_2nd;
kernRight = E_1st;
layers = (
{
background = {
shapes = (
{
closed = 1;
nodes = (
(553,0,l),
(553,126,l),
(287,126,ls),
(241,126,o),
(204,163,o),
(204,209,cs),
(204,255,o),
(241,293,o),
(287,293,cs),
(519,293,l),
(519,419,l),
(281,419,ls),
(238,419,o),
(204,453,o),
(204,496,cs),
(204,539,o),
(238,574,o),
(281,574,cs),
(553,574,l),
(553,700,l),
(265,700,ls),
(152,700,o),
(61,609,o),
(61,496,cs),
(61,441,o),
(87,390,o),
(128,353,c),
(87,316,o),
(61,265,o),
(61,209,cs),
(61,93,o),
(154,0,o),
(270,0,cs)
);
}
);
};
layerId = "5dd0c03f-0ac1-43be-b978-266741ffc02a";
shapes = (
{
closed = 1;
nodes = (
(499,0,l),
(499,23,l),
(245,23,ls),
(138,23,o),
(84,101,o),
(84,181,cs),
(84,263,o),
(140,345,o),
(255,345,cs),
(459,345,l),
(459,368,l),
(248,368,ls),
(158,368,o),
(90,437,o),
(90,518,cs),
(90,606,o),
(152,676,o),
(242,676,cs),
(499,676,l),
(499,699,l),
(239,699,ls),
(141,699,o),
(65,618,o),
(65,518,cs),
(65,452,o),
(100,388,o),
(180,356,c),
(99,330,o),
(59,256,o),
(59,182,cs),
(59,91,o),
(121,0,o),
(238,0,cs)
);
}
);
width = 549;
},
{
layerId = "41AFA816-2F69-4745-BF67-F6DEA15443A0";
shapes = (
{
closed = 1;
nodes = (
(532,0,l),
(532,126,l),
(266,126,ls),
(220,126,o),
(183,163,o),
(183,209,cs),
(183,255,o),
(220,293,o),
(266,293,cs),
(498,293,l),
(498,419,l),
(260,419,ls),
(217,419,o),
(183,453,o),
(183,496,cs),
(183,539,o),
(217,574,o),
(260,574,cs),
(532,574,l),
(532,700,l),
(244,700,ls),
(131,700,o),
(40,609,o),
(40,496,cs),
(40,441,o),
(66,390,o),
(107,353,c),
(66,316,o),
(40,265,o),
(40,209,cs),
(40,93,o),
(133,0,o),
(249,0,cs)
);
}
);
width = 572;
},
{
layerId = "32E5C913-0890-451E-8980-44FAA246AB8A";
shapes = (
{
closed = 1;
nodes = (
(560,0,l),
(560,170,l),
(298,170,ls),
(264,170,o),
(240,187,o),
(240,218,cs),
(240,250,o),
(264,268,o),
(298,268,cs),
(525,268,l),
(525,436,l),
(297,436,ls),
(264,436,o),
(240,453,o),
(240,483,cs),
(240,514,o),
(264,531,o),
(297,531,cs),
(560,531,l),
(560,700,l),
(249,700,ls),
(132,700,o),
(37,619,o),
(37,502,cs),
(37,448,o),
(66,396,o),
(110,361,c),
(59,323,o),
(29,266,o),
(29,203,cs),
(29,83,o),
(126,0,o),
(246,0,cs)
);
}
);
width = 596;
}
);
unicode = 69;
},
{
glyphname = Eogonek;
kernLeft = H_2nd;
kernRight = E_1st;
layers = (
{
background = {
shapes = (
{
closed = 1;
nodes = (
(398,14,l),
(373,-23,o),
(349,-69,o),
(349,-111,cs),
(349,-181,o),
(398,-218,o),
(471,-218,cs),
(497,-218,o),
(516,-212,o),
(522,-210,c),
(522,-185,l),
(501,-191,o),
(484,-194,o),
(468,-194,cs),
(410,-194,o),
(375,-164,o),
(375,-113,cs),
(375,-71,o),
(401,-23,o),
(427,14,c)
);
},
{
closed = 1;
nodes = (
(427,14,l),
(450,46,o),
(472,70,o),
(476,74,c),
(457,86,l),
(453,82,o),
(425,53,o),
(398,14,c)
);
}
);
};
layerId = "5dd0c03f-0ac1-43be-b978-266741ffc02a";
shapes = (
{
closed = 1;
nodes = (
(497,-218,o),
(516,-212,o),
(522,-210,c),
(522,-185,l),
(501,-191,o),
(484,-194,o),
(468,-194,cs),
(410,-194,o),
(375,-164,o),
(375,-113,cs),
(375,-71,o),
(401,-23,o),
(427,14,c),
(398,14,l),
(373,-23,o),
(349,-69,o),
(349,-111,cs),
(349,-181,o),
(398,-218,o),
(471,-218,cs)
);
},
{
ref = E;
}
);
width = 549;
},
{
background = {
shapes = (
{
closed = 1;
nodes = (
(494,-218,o),
(518,-215,o),
(532,-211,c),
(532,-126,l),
(518,-131,o),
(504,-134,o),
(489,-134,cs),
(458,-134,o),
(434,-112,o),
(434,-80,cs),
(434,-29,o),
(493,57,o),
(499,66,c),
(464,86,l),
(457,78,o),
(349,-33,o),
(349,-104,cs),
(349,-181,o),
(408,-218,o),
(480,-218,cs)
);
}
);
};
layerId = "41AFA816-2F69-4745-BF67-F6DEA15443A0";
shapes = (
{
closed = 1;
nodes = (
(494,-218,o),
(518,-215,o),
(532,-211,c),
(532,-126,l),
(518,-131,o),
(504,-134,o),
(489,-134,cs),
(458,-134,o),
(434,-112,o),
(434,-80,cs),
(434,-50,o),
(459,5,o),
(499,66,c),
(464,86,l),
(388,3,o),
(349,-61,o),
(349,-104,cs),
(349,-181,o),
(408,-218,o),
(480,-218,cs)
);
},
{
alignment = -1;
ref = E;
}
);
width = 572;
},
{
background = {
shapes = (
{
closed = 1;
nodes = (
(494,-219,o),
(526,-215,o),
(544,-210,c),
(544,-117,l),
(532,-121,o),
(516,-124,o),
(500,-124,cs),
(466,-124,o),
(448,-104,o),
(448,-77,cs),
(448,-29,o),
(513,62,o),
(517,69,c),
(460,95,l),
(453,87,o),
(338,-26,o),
(337,-106,cs),
(336,-186,o),
(395,-219,o),
(473,-219,cs)
);
}
);
};
layerId = "32E5C913-0890-451E-8980-44FAA246AB8A";
shapes = (
{
closed = 1;
nodes = (
(494,-219,o),
(526,-215,o),
(544,-210,c),
(544,-117,l),
(532,-121,o),
(516,-124,o),
(500,-124,cs),
(466,-124,o),
(448,-104,o),
(448,-77,cs),
(448,-49,o),
(471,0,o),
(517,69,c),
(460,95,l),
(373,1,o),
(337,-59,o),
(337,-106,cs),
(337,-186,o),
(395,-219,o),
(473,-219,cs)
);
},
{
alignment = -1;
ref = E;
}
);
width = 596;
}
);
unicode = 280;
},
{
glyphname = Schwa;
kernLeft = O_2nd;
kernRight = O_1st;
layers = (
{
background = {
shapes = (
{
closed = 1;
nodes = (
(521,-13,o),
(650,132,o),
(650,331,cs),
(650,553,o),
(502,700,o),
(254,700,cs),
(133,700,l),
(133,677,l),
(251,677,ls),
(478,677,o),
(615,548,o),
(625,354,c),
(45,354,l),
(45,346,o),
(45,339,o),
(45,331,cs),
(50,111,o),
(161,-13,o),
(341,-13,cs)
);
},
{
closed = 1;
nodes = (
(180,10,o),
(76,121,o),
(69,331,c),
(625,331,l),
(624,150,o),
(508,10,o),
(336,10,cs)
);
}
);
};
layerId = "5dd0c03f-0ac1-43be-b978-266741ffc02a";
shapes = (
{
closed = 1;
nodes = (
(521,-13,o),
(650,132,o),
(650,331,cs),
(650,553,o),
(502,700,o),
(254,700,cs),
(133,700,l),
(133,677,l),
(251,677,ls),
(478,677,o),
(615,548,o),
(625,354,c),
(45,354,l),
(45,346,o),
(45,339,o),
(45,331,cs),
(50,111,o),
(161,-13,o),
(341,-13,cs)
);
},
{
closed = 1;
nodes = (
(180,10,o),
(76,121,o),
(69,331,c),
(625,331,l),
(624,150,o),
(508,10,o),
(336,10,cs)
);
}
);
width = 710;
},
{
layerId = "41AFA816-2F69-4745-BF67-F6DEA15443A0";
shapes = (
{
closed = 1;
nodes = (
(536,-12,o),
(667,131,o),
(667,352,cs),
(667,566,o),
(519,700,o),
(286,700,cs),
(124,700,l),
(124,566,l),
(291,566,ls),
(416,566,o),
(500,505,o),
(524,401,c),
(38,401,l),
(36,383,o),
(35,364,o),
(35,346,cs),
(35,96,o),
(158,-12,o),
(342,-12,cs)
);
},
{
closed = 1;
nodes = (
(230,116,o),
(174,195,o),
(171,278,c),
(522,278,l),
(510,192,o),
(444,116,o),
(338,116,cs)
);
}
);
width = 702;
},
{
layerId = "32E5C913-0890-451E-8980-44FAA246AB8A";
shapes = (
{
closed = 1;
nodes = (
(559,-13,o),
(696,129,o),
(696,355,cs),
(696,568,o),
(544,700,o),
(305,700,cs),
(118,700,l),
(118,528,l),
(309,528,ls),
(394,528,o),
(454,482,o),
(480,418,c),
(45,418,l),
(40,385,o),
(37,365,o),
(37,327,cs),
(37,119,o),
(145,-13,o),
(357,-13,cs)
);
},
{
closed = 1;
nodes = (
(286,154,o),
(245,200,o),
(238,255,c),
(482,255,l),
(465,200,o),
(420,154,o),
(353,154,cs)
);
}
);
width = 702;
}
);
unicode = 399;
},
{
glyphname = F;
kernLeft = H_2nd;
kernRight = F_1st;
layers = (
{
background = {
shapes = (
{
closed = 1;
nodes = (
(110,0,l),
(110,342,l),
(437,342,l),
(437,365,l),
(110,365,l),
(110,551,ls),
(110,626,o),
(156,677,o),
(237,677,cs),
(477,677,l),
(477,700,l),
(235,700,ls),
(141,700,o),
(87,643,o),
(85,551,cs),
(85,0,l)
);
}
);
};
layerId = "5dd0c03f-0ac1-43be-b978-266741ffc02a";
shapes = (
{
closed = 1;
nodes = (
(110,0,l),
(110,342,l),
(437,342,l),
(437,365,l),
(110,365,l),
(110,551,ls),
(110,626,o),
(156,677,o),
(237,677,cs),
(477,677,l),
(477,700,l),
(235,700,ls),
(141,700,o),
(85,643,o),
(85,551,cs),
(85,0,l)
);
}
);
width = 512;
},
{
layerId = "41AFA816-2F69-4745-BF67-F6DEA15443A0";
shapes = (
{
closed = 1;
nodes = (
(201,0,l),
(201,257,l),
(481,257,l),
(481,383,l),
(201,383,l),
(201,496,ls),
(201,539,o),
(235,574,o),
(278,574,cs),
(515,574,l),
(515,700,l),
(262,700,ls),
(149,700,o),
(58,609,o),
(58,496,cs),
(58,0,l)
);
}
);
width = 550;
},
{
layerId = "32E5C913-0890-451E-8980-44FAA246AB8A";
shapes = (
{
closed = 1;
nodes = (
(257,0,l),
(257,240,l),
(518,240,l),
(518,405,l),
(257,405,l),
(257,482,ls),
(257,510,o),
(278,531,o),
(306,531,cs),
(550,531,l),
(550,700,l),
(273,700,ls),
(139,700,o),
(41,608,o),
(41,486,cs),
(41,0,l)
);
}
);
width = 570;
}
);
metricLeft = F;
unicode = 70;
},
{
glyphname = G;
kernLeft = O_2nd;
kernRight = S_1st;
layers = (
{
background = {
shapes = (
{
closed = 1;
nodes = (
(708,-224,o),
(778,-174,o),
(778,-60,cs),
(778,347,l),
(753,347,l),
(753,299,l),
(527,188,o),
(480,43,o),
(480,-60,cs),
(480,-168,o),
(555,-224,o),
(631,-224,cs)
);
},
{
closed = 1;
nodes = (
(566,-199,o),
(507,-150,o),
(507,-59,cs),
(507,29,o),
(547,168,o),
(753,269,c),
(753,-63,ls),
(753,-156,o),
(695,-199,o),
(629,-199,cs)
);
},
{
closed = 1;
nodes = (
(508,22,l),
(469,12,o),
(451,10,o),
(419,10,cs),
(226,10,o),
(85,156,o),
(85,350,cs),
(85,544,o),
(226,690,o),
(419,690,cs),
(612,690,o),
(753,544,o),
(753,350,cs),
(753,338,o),
(755,326,o),
(754,314,c),
(776,313,l),
(777,325,o),
(778,337,o),
(778,350,cs),
(778,551,o),
(637,713,o),
(419,713,cs),
(202,713,o),
(60,551,o),
(60,350,cs),
(60,149,o),
(202,-13,o),
(419,-13,cs),
(451,-13,o),
(473,-10,o),
(500,-5,c)
);
}
);
};
layerId = "5dd0c03f-0ac1-43be-b978-266741ffc02a";
shapes = (
{
closed = 1;
nodes = (
(708,-224,o),
(778,-174,o),
(778,-60,cs),
(778,350,ls),
(778,551,o),
(637,713,o),
(419,713,cs),
(202,713,o),
(60,551,o),
(60,350,cs),
(60,97,o),
(266,-41,o),
(484,-8,c),
(481,-26,o),
(480,-44,o),
(480,-60,cs),
(480,-168,o),
(555,-224,o),
(631,-224,cs)
);
},
{
closed = 1;
nodes = (
(566,-199,o),
(507,-150,o),
(507,-59,cs),
(507,29,o),
(547,168,o),
(753,269,c),
(753,-63,ls),
(753,-156,o),
(695,-199,o),
(629,-199,cs)
);
},
{
closed = 1;
nodes = (
(226,10,o),
(85,156,o),
(85,350,cs),
(85,544,o),
(226,690,o),
(419,690,cs),
(612,690,o),
(753,544,o),
(753,350,cs),
(753,299,l),
(579,214,o),
(511,108,o),
(489,17,c),
(462,11,o),
(445,10,o),
(419,10,cs)
);
}
);
width = 863;
},
{
background = {
shapes = (
{
closed = 1;
nodes = (
(687,-218,o),
(744,-133,o),
(744,-28,cs),
(744,370,ls),
(744,558,o),
(604,712,o),
(387,712,cs),
(170,712,o),
(30,554,o),
(30,360,cs),
(30,167,o),
(170,8,o),
(388,8,c),
(385,-11,o),
(384,-29,o),
(384,-46,cs),
(384,-153,o),
(451,-218,o),
(568,-218,cs)
);
},
{
closed = 1;
nodes = (
(536,-90,o),
(517,-69,o),
(517,-30,cs),
(517,-9,o),
(510,67,o),
(601,146,c),
(601,-30,ls),
(601,-66,o),
(587,-90,o),
(559,-90,cs)
);
},
{
closed = 1;
nodes = (
(264,134,o),
(173,231,o),
(173,360,cs),
(173,489,o),
(264,586,o),
(387,586,cs),
(510,586,o),
(601,493,o),
(601,370,cs),
(601,291,l),
(525,245,o),
(474,192,o),
(440,140,c),
(423,136,o),
(405,134,o),
(387,134,cs)
);
}
);
};
layerId = "41AFA816-2F69-4745-BF67-F6DEA15443A0";
shapes = (
{
closed = 1;
nodes = (
(687,-218,o),
(744,-133,o),
(744,-28,cs),
(744,370,ls),
(744,558,o),
(604,712,o),
(387,712,cs),
(170,712,o),
(30,554,o),
(30,360,cs),
(30,167,o),
(170,8,o),
(388,8,c),
(385,-11,o),
(384,-29,o),
(384,-46,cs),
(384,-153,o),
(451,-218,o),
(568,-218,cs)
);
},
{
closed = 1;
nodes = (
(536,-90,o),
(517,-69,o),
(517,-30,cs),
(517,43,o),
(542,95,o),
(601,146,c),
(601,-30,ls),
(601,-66,o),
(587,-90,o),
(559,-90,cs)
);
},
{
closed = 1;
nodes = (
(264,134,o),
(173,231,o),
(173,360,cs),
(173,489,o),
(264,586,o),
(387,586,cs),
(510,586,o),
(601,493,o),
(601,370,cs),
(601,291,l),
(525,245,o),
(474,192,o),
(440,140,c),
(423,136,o),
(405,134,o),
(387,134,cs)
);
}
);
width = 794;
},
{
layerId = "32E5C913-0890-451E-8980-44FAA246AB8A";
shapes = (
{
closed = 1;
nodes = (
(701,-217,o),
(774,-117,o),
(774,-6,cs),
(774,353,ls),
(774,567,o),
(622,713,o),
(399,713,cs),
(175,713,o),
(26,552,o),
(26,355,cs),
(26,159,o),
(160,13,o),
(339,1,c),
(338,-11,o),
(338,-21,o),
(338,-30,cs),
(338,-138,o),
(422,-217,o),
(558,-217,cs)
);
},
{
closed = 1;
nodes = (
(532,-44,o),
(516,-28,o),
(516,2,cs),
(516,42,o),
(533,97,o),
(586,141,c),
(586,2,ls),
(586,-26,o),
(570,-44,o),
(550,-44,cs)
);
},
{
closed = 1;
nodes = (
(298,187,o),
(244,254,o),
(244,356,cs),
(244,461,o),
(311,539,o),
(401,539,cs),
(492,539,o),
(558,466,o),
(558,367,cs),
(558,329,l),
(496,291,o),
(434,232,o),
(395,176,c),
(390,174,o),
(386,175,o),
(381,175,cs)
);
}
);
width = 813;
}
);
unicode = 71;
},
{
glyphname = H;
kernLeft = H_2nd;
kernRight = H_1st;
layers = (
{
background = {
shapes = (
{
closed = 1;
nodes = (
(189,0,l),
(189,293,l),
(495,293,l),
(495,0,l),
(638,0,l),
(638,700,l),
(495,700,l),
(495,419,l),
(189,419,l),
(189,700,l),
(46,700,l),
(46,0,l)
);
}
);
};
layerId = "5dd0c03f-0ac1-43be-b978-266741ffc02a";
shapes = (
{
closed = 1;
nodes = (
(110,0,l),
(110,345,l),
(574,345,l),
(574,0,l),
(599,0,l),
(599,699,l),
(574,699,l),
(574,368,l),
(110,368,l),
(110,699,l),
(85,699,l),
(85,0,l)
);
}
);
width = 684;
},
{
layerId = "41AFA816-2F69-4745-BF67-F6DEA15443A0";
shapes = (
{
closed = 1;
nodes = (
(213,0,l),
(213,293,l),
(519,293,l),
(519,0,l),
(662,0,l),
(662,700,l),
(519,700,l),
(519,419,l),
(213,419,l),
(213,700,l),
(70,700,l),
(70,0,l)
);
}
);
width = 732;
},
{
layerId = "32E5C913-0890-451E-8980-44FAA246AB8A";
shapes = (
{
closed = 1;
nodes = (
(260,0,l),
(260,269,l),
(469,269,l),
(469,0,l),
(685,0,l),
(685,700,l),
(469,700,l),
(469,438,l),
(260,438,l),
(260,700,l),
(44,700,l),
(44,0,l)
);
}
);
width = 728;
}
);
unicode = 72;
},
{
glyphname = Hbar;
kernLeft = H_2nd;
kernRight = H_1st;
layers = (
{
layerId = "5dd0c03f-0ac1-43be-b978-266741ffc02a";
shapes = (
{
closed = 1;
nodes = (
(663,519,l),
(663,542,l),
(21,542,l),
(21,519,l)
);
},
{
alignment = -1;
ref = H;
}
);
width = 684;
},
{
layerId = "41AFA816-2F69-4745-BF67-F6DEA15443A0";
shapes = (
{
closed = 1;
nodes = (
(711,515,l),
(711,594,l),
(21,594,l),
(21,515,l)
);
},
{
alignment = -1;
ref = H;
}
);
width = 732;
},
{
layerId = "32E5C913-0890-451E-8980-44FAA246AB8A";
shapes = (
{
closed = 1;
nodes = (
(742,508,l),
(742,621,l),
(2,621,l),
(2,508,l)
);
},
{
alignment = -1;
pos = (8,0);
ref = H;
}
);
width = 743;
}
);
unicode = 294;
},
{
glyphname = I;
kernLeft = I_2nd;
kernRight = I_1st;
layers = (
{
background = {
shapes = (
{
closed = 1;
nodes = (
(447,0,l),
(447,126,l),
(321,126,l),
(321,574,l),
(447,574,l),
(447,700,l),
(52,700,l),
(52,574,l),
(178,574,l),
(178,126,l),
(52,126,l),
(52,0,l)
);
}
);
};
layerId = "5dd0c03f-0ac1-43be-b978-266741ffc02a";
shapes = (
{
closed = 1;
nodes = (
(372,0,l),
(372,23,l),
(225,23,l),
(225,677,l),
(372,677,l),
(372,700,l),
(52,700,l),
(52,677,l),
(200,677,l),
(200,23,l),
(52,23,l),
(52,0,l)
);
}
);
width = 424;
},
{
layerId = "41AFA816-2F69-4745-BF67-F6DEA15443A0";
shapes = (
{
closed = 1;
nodes = (
(447,0,l),
(447,126,l),
(321,126,l),
(321,574,l),
(447,574,l),
(447,700,l),
(52,700,l),
(52,574,l),
(178,574,l),
(178,126,l),
(52,126,l),
(52,0,l)
);
}
);
width = 499;
},
{
layerId = "32E5C913-0890-451E-8980-44FAA246AB8A";
shapes = (
{
closed = 1;
nodes = (
(467,0,l),
(467,169,l),
(357,169,l),
(357,531,l),
(467,531,l),
(467,700,l),
(32,700,l),
(32,531,l),
(141,531,l),
(141,169,l),
(32,169,l),
(32,0,l)
);
}
);
width = 498;
}
);
unicode = 73;
},
{
glyphname = Iogonek;
kernLeft = I_2nd;
kernRight = I_1st;
layers = (
{
background = {
shapes = (
{
closed = 1;
nodes = (
(347,-218,o),
(366,-212,o),
(372,-210,c),
(372,-185,l),
(351,-191,o),
(334,-194,o),
(318,-194,cs),
(260,-194,o),
(225,-164,o),
(225,-121,cs),
(225,-66,o),
(270,-32,o),
(320,0,c),
(317,3,o),
(310,16,o),
(308,19,c),
(247,-21,o),
(199,-58,o),
(199,-124,cs),
(199,-181,o),
(248,-218,o),
(321,-218,cs)
);
}
);
};
layerId = "5dd0c03f-0ac1-43be-b978-266741ffc02a";
shapes = (
{
closed = 1;
nodes = (
(347,-218,o),
(366,-212,o),
(372,-210,c),
(372,-186,l),
(351,-192,o),
(334,-195,o),
(317,-195,cs),
(279,-195,o),
(244,-174,o),
(244,-124,cs),
(244,-78,o),
(281,-30,o),
(320,0,c),
(305,18,l),
(263,-16,o),
(218,-70,o),
(218,-126,cs),
(218,-191,o),
(267,-218,o),
(319,-218,cs)
);
},
{
ref = I;
}
);
width = 424;
},
{
background = {
shapes = (
{
closed = 1;
nodes = (
(409,-218,o),
(433,-215,o),
(447,-211,c),
(447,-126,l),
(433,-131,o),
(419,-134,o),
(404,-134,cs),
(373,-134,o),
(349,-112,o),
(349,-80,cs),
(349,-29,o),
(408,57,o),
(414,66,c),
(379,86,l),
(372,78,o),
(264,-33,o),
(264,-104,cs),
(264,-181,o),
(323,-218,o),
(395,-218,cs)
);
}
);
};
layerId = "41AFA816-2F69-4745-BF67-F6DEA15443A0";
shapes = (
{
closed = 1;
nodes = (
(409,-218,o),
(433,-215,o),
(447,-211,c),
(447,-126,l),
(433,-131,o),
(419,-134,o),
(404,-134,cs),
(373,-134,o),
(349,-112,o),
(349,-80,cs),
(349,-49,o),
(371,0,o),
(414,66,c),
(379,86,l),
(312,19,o),
(264,-61,o),
(264,-104,cs),
(264,-181,o),
(323,-218,o),
(395,-218,cs)
);
},
{
alignment = -1;
ref = I;
}
);
width = 499;
},
{
background = {
shapes = (
{
closed = 1;
nodes = (
(409,-219,o),
(441,-215,o),
(459,-210,c),
(459,-117,l),
(447,-121,o),
(431,-124,o),
(415,-124,cs),
(381,-124,o),
(363,-104,o),
(363,-77,cs),
(363,-29,o),
(428,62,o),
(432,69,c),
(375,95,l),
(368,87,o),
(253,-26,o),
(252,-106,cs),
(251,-186,o),
(310,-219,o),
(388,-219,cs)
);
}
);
};
layerId = "32E5C913-0890-451E-8980-44FAA246AB8A";
shapes = (
{
closed = 1;
nodes = (
(409,-219,o),
(441,-215,o),
(459,-210,c),
(459,-117,l),
(447,-121,o),
(431,-124,o),
(415,-124,cs),
(381,-124,o),
(363,-104,o),
(363,-77,cs),
(363,-48,o),
(383,-4,o),
(432,69,c),
(375,95,l),
(293,8,o),
(252,-60,o),
(252,-106,cs),
(252,-186,o),
(310,-219,o),
(388,-219,cs)
);
},
{
alignment = -1;
ref = I;
}
);
width = 499;
}
);
unicode = 302;
},
{
glyphname = J;
kernLeft = J_2nd;
kernRight = H_1st;
layers = (
{
background = {
shapes = (
{
closed = 1;
nodes = (
(328,-218,o),
(385,-133,o),
(385,-28,cs),
(385,700,l),
(103,700,l),
(103,574,l),
(243,574,l),
(243,284,l),
(71,181,o),
(25,47,o),
(25,-46,cs),
(25,-153,o),
(92,-218,o),
(209,-218,cs)
);
},
{
closed = 1;
nodes = (
(177,-90,o),
(158,-69,o),
(158,-30,cs),
(158,-10,o),
(151,63,o),
(242,139,c),
(242,-30,ls),
(242,-66,o),
(228,-90,o),
(200,-90,cs)
);
}
);
};
layerId = "5dd0c03f-0ac1-43be-b978-266741ffc02a";
shapes = (
{
closed = 1;
nodes = (
(233,-216,o),
(303,-174,o),
(303,-60,cs),
(303,700,l),
(111,700,l),
(111,677,l),
(278,677,l),
(278,284,l),
(68,138,o),
(25,20,o),
(25,-74,cs),
(25,-172,o),
(94,-216,o),
(163,-216,cs)
);
},
{
closed = 1;
nodes = (
(104,-193,o),
(50,-156,o),
(50,-73,cs),
(50,7,o),
(86,120,o),
(278,254,c),
(278,-63,ls),
(278,-156,o),
(221,-193,o),
(161,-193,cs)
);
}
);
width = 388;
},
{
background = {
shapes = (
{
closed = 1;
nodes = (
(303,-218,o),
(360,-133,o),
(360,-28,cs),
(360,700,l),
(78,700,l),
(78,574,l),
(218,574,l),
(218,284,l),
(46,181,o),
(0,47,o),
(0,-46,cs),
(0,-153,o),
(67,-218,o),
(184,-218,cs)
);
},
{
closed = 1;
nodes = (
(152,-90,o),
(133,-69,o),
(133,-30,cs),
(133,-10,o),
(126,63,o),
(217,139,c),
(217,-30,ls),
(217,-66,o),
(203,-90,o),
(175,-90,cs)
);
}
);
};
layerId = "41AFA816-2F69-4745-BF67-F6DEA15443A0";
shapes = (
{
closed = 1;
nodes = (
(303,-218,o),
(360,-133,o),
(360,-28,cs),
(360,700,l),
(78,700,l),
(78,574,l),
(218,574,l),
(218,284,l),
(46,181,o),
(0,47,o),
(0,-46,cs),
(0,-153,o),
(67,-218,o),
(184,-218,cs)
);
},
{
closed = 1;
nodes = (
(152,-90,o),
(133,-69,o),
(133,-30,cs),
(133,40,o),
(158,90,o),
(217,139,c),
(217,-30,ls),
(217,-66,o),
(203,-90,o),
(175,-90,cs)
);
}
);
width = 430;
},
{
layerId = "32E5C913-0890-451E-8980-44FAA246AB8A";
shapes = (
{
closed = 1;
nodes = (
(302,-220,o),
(369,-138,o),
(369,32,cs),
(369,700,l),
(38,700,l),
(38,531,l),
(177,531,l),
(177,284,l),
(47,202,o),
(-23,85,o),
(-23,-33,cs),
(-23,-128,o),
(33,-220,o),
(165,-220,cs)
);
},
{
closed = 1;
nodes = (
(138,-44,o),
(122,-29,o),
(122,-2,cs),
(122,40,o),
(138,80,o),
(189,125,c),
(189,2,ls),
(189,-28,o),
(174,-44,o),
(156,-44,cs)
);
}
);
width = 413;
}
);
unicode = 74;
},
{
glyphname = K;
kernLeft = H_2nd;
kernRight = K_1st;
layers = (
{
background = {
shapes = (
{
closed = 1;
nodes = (
(110,0,l),
(110,325,l),
(362,325,ls),
(384,325,o),
(404,327,o),
(424,331,c),
(525,71,ls),
(545,23,o),
(574,0,o),
(621,0,cs),
(648,0,l),
(648,24,l),
(624,24,ls),
(583,24,o),
(567,40,o),
(549,82,cs),
(448,337,l),
(533,361,o),
(588,425,o),
(588,513,cs),
(588,700,l),
(563,700,l),
(562,511,ls),
(561,409,o),
(475,348,o),
(365,348,cs),
(110,348,l),
(110,700,l),
(85,700,l),
(85,0,l)
);
}
);
};
layerId = "5dd0c03f-0ac1-43be-b978-266741ffc02a";
shapes = (
{
closed = 1;
nodes = (
(110,0,l),
(110,325,l),
(362,325,ls),
(384,325,o),
(404,327,o),
(424,331,c),
(525,71,ls),
(544,23,o),
(574,0,o),
(621,0,cs),
(648,0,l),
(648,24,l),
(624,24,ls),
(583,24,o),
(566,40,o),
(549,82,cs),
(448,337,l),
(533,361,o),
(588,425,o),
(588,513,cs),
(588,700,l),
(563,700,l),
(563,511,ls),
(563,409,o),
(476,348,o),
(365,348,cs),
(110,348,l),
(110,700,l),
(85,700,l),
(85,0,l)
);
}
);
width = 680;
},
{
layerId = "41AFA816-2F69-4745-BF67-F6DEA15443A0";
shapes = (
{
closed = 1;
nodes = (
(213,0,l),
(213,283,l),
(310,283,ls),
(323,283,o),
(335,283,o),
(348,283,c),
(447,76,ls),
(470,29,o),
(511,0,o),
(578,0,cs),
(668,0,l),
(668,126,l),
(600,126,ls),
(589,126,o),
(580,130,o),
(576,139,cs),
(492,316,l),
(564,357,o),
(612,431,o),
(612,524,cs),
(612,700,l),
(469,700,l),
(469,524,ls),
(469,451,o),
(414,409,o),
(346,409,cs),
(213,409,l),
(213,700,l),
(70,700,l),
(70,0,l)
);
}
);
width = 678;
},
{
layerId = "32E5C913-0890-451E-8980-44FAA246AB8A";
shapes = (
{
closed = 1;
nodes = (
(260,0,l),
(260,264,l),
(297,264,ls),
(302,264,o),
(307,264,o),
(313,264,c),
(399,84,ls),
(425,32,o),
(474,0,o),
(559,0,cs),
(672,0,l),
(672,165,l),
(619,165,ls),
(603,165,o),
(590,173,o),
(584,187,cs),
(524,314,l),
(589,359,o),
(632,430,o),
(632,512,cs),
(632,700,l),
(416,700,l),
(416,516,ls),
(416,463,o),
(383,432,o),
(342,432,cs),
(260,432,l),
(260,700,l),
(44,700,l),
(44,0,l)
);
}
);
width = 674;
}
);
unicode = 75;
},
{
glyphname = L;
kernLeft = H_2nd;
kernRight = L_1st;
layers = (
{
background = {
shapes = (
{
closed = 1;
nodes = (
(451,0,l),
(451,126,l),
(266,126,ls),
(230,126,o),
(201,156,o),
(201,192,cs),
(201,700,l),
(58,700,l),
(58,209,ls),
(58,94,o),
(141,0,o),
(266,0,cs)
);
}
);
};
layerId = "5dd0c03f-0ac1-43be-b978-266741ffc02a";
shapes = (
{
closed = 1;
nodes = (
(428,0,l),
(428,23,l),
(237,23,ls),
(156,23,o),
(110,74,o),
(110,149,cs),
(110,699,l),
(85,699,l),
(85,154,ls),
(85,59,o),
(139,0,o),
(235,0,cs)
);
}
);
width = 473;
},
{
layerId = "41AFA816-2F69-4745-BF67-F6DEA15443A0";
shapes = (
{
closed = 1;
nodes = (
(451,0,l),
(451,126,l),
(266,126,ls),
(230,126,o),
(201,156,o),
(201,192,cs),
(201,700,l),
(58,700,l),
(58,209,ls),
(58,94,o),
(141,0,o),
(266,0,cs)
);
}
);
width = 471;
},
{
layerId = "32E5C913-0890-451E-8980-44FAA246AB8A";
shapes = (
{
closed = 1;
nodes = (
(489,0,l),
(489,169,l),
(304,169,ls),
(277,169,o),
(257,191,o),
(257,217,cs),
(257,700,l),
(41,700,l),
(41,219,ls),
(41,99,o),
(134,0,o),
(276,0,cs)
);
}
);
width = 506;
}
);
unicode = 76;
},
{
glyphname = LJ;
kernLeft = H_2nd;
kernRight = H_1st;
layers = (
{
layerId = "5dd0c03f-0ac1-43be-b978-266741ffc02a";
shapes = (
{
closed = 1;
nodes = (
(337,0,l),
(337,23,l),
(237,23,ls),
(156,23,o),
(110,74,o),
(110,149,cs),
(110,700,l),
(85,700,l),
(85,154,ls),
(85,59,o),
(139,0,o),
(235,0,cs)
);
},
{
alignment = -1;
pos = (285,0);
ref = J;
}
);
width = 715;
},
{
layerId = "41AFA816-2F69-4745-BF67-F6DEA15443A0";
shapes = (
{
closed = 1;
nodes = (
(376,0,l),
(376,126,l),
(266,126,ls),
(230,126,o),
(201,156,o),
(201,192,cs),
(201,700,l),
(58,700,l),
(58,209,ls),
(58,94,o),
(141,0,o),
(266,0,cs)
);
},
{
alignment = -1;
pos = (285,0);
ref = J;
}
);
width = 715;
},
{
layerId = "32E5C913-0890-451E-8980-44FAA246AB8A";
shapes = (
{
closed = 1;
nodes = (
(461,0,l),
(461,169,l),
(303,169,ls),
(276,169,o),
(257,191,o),
(257,217,cs),
(257,700,l),
(41,700,l),
(41,219,ls),
(41,99,o),
(134,0,o),
(276,0,cs)
);
},
{
alignment = -1;
pos = (399,0);
ref = J;
}
);
width = 812;
}
);
unicode = 455;
},
{
glyphname = Lslash;
kernLeft = H_2nd;
kernRight = L_1st;
layers = (
{
layerId = "5dd0c03f-0ac1-43be-b978-266741ffc02a";
shapes = (
{
closed = 1;
nodes = (
(324,424,l),
(324,448,l),
(1,371,l),
(1,347,l)
);
},
{
alignment = -1;
ref = L;
}
);
width = 486;
},
{
layerId = "41AFA816-2F69-4745-BF67-F6DEA15443A0";
shapes = (
{
closed = 1;
nodes = (
(324,389,l),
(324,468,l),
(1,391,l),
(1,312,l)
);
},
{
alignment = -1;
ref = L;
}
);
width = 486;
},
{
layerId = "32E5C913-0890-451E-8980-44FAA246AB8A";
shapes = (
{
closed = 1;
nodes = (
(368,394,l),
(368,508,l),
(-9,411,l),
(-9,297,l)
);
},
{
alignment = -1;
ref = L;
}
);
width = 509;
}
);
unicode = 321;
},
{
glyphname = M;
kernLeft = H_2nd;
kernRight = H_1st;
layers = (
{
background = {
shapes = (
{
closed = 1;
nodes = (
(673,-11,o),
(763,76,o),
(763,198,cs),
(763,520,ls),
(763,556,o),
(793,586,o),
(829,586,cs),
(865,586,o),
(894,556,o),
(894,520,cs),
(894,0,l),
(1037,0,l),
(1037,503,ls),
(1037,618,o),
(954,712,o),
(829,712,cs),
(704,712,o),
(620,618,o),
(620,503,cs),
(620,181,ls),
(620,145,o),
(590,115,o),
(554,115,cs),
(518,115,o),
(489,145,o),
(489,181,cs),
(489,503,ls),
(489,618,o),
(405,712,o),
(280,712,cs),
(155,712,o),
(72,618,o),
(72,503,cs),
(72,0,l),
(215,0,l),
(215,520,ls),
(215,556,o),
(244,586,o),
(280,586,cs),
(316,586,o),
(346,556,o),
(346,520,cs),
(346,198,ls),
(346,76,o),
(435,-11,o),
(554,-11,cs)
);
}
);
};
layerId = "5dd0c03f-0ac1-43be-b978-266741ffc02a";
shapes = (
{
closed = 1;
nodes = (
(641,-13,o),
(706,56,o),
(706,160,cs),
(706,547,ls),
(706,629,o),
(767,690,o),
(846,690,cs),
(923,690,o),
(984,629,o),
(984,547,cs),
(984,0,l),
(1009,0,l),
(1009,540,ls),
(1009,644,o),
(940,713,o),
(846,713,cs),
(750,713,o),
(681,644,o),
(681,540,cs),
(681,153,ls),
(681,69,o),
(621,10,o),
(549,10,cs),
(477,10,o),
(413,69,o),
(413,153,cs),
(413,540,ls),
(413,644,o),
(343,713,o),
(249,713,cs),
(153,713,o),
(85,644,o),
(85,540,cs),
(85,0,l),
(110,0,l),
(110,547,ls),
(110,629,o),
(172,690,o),
(249,690,cs),
(324,690,o),
(388,629,o),
(388,547,cs),
(388,160,ls),
(388,56,o),
(457,-13,o),
(549,-13,cs)
);
}
);
width = 1094;
},
{
layerId = "41AFA816-2F69-4745-BF67-F6DEA15443A0";
shapes = (
{
closed = 1;
nodes = (
(661,-11,o),
(751,76,o),
(751,198,cs),
(751,520,ls),
(751,556,o),
(781,586,o),
(817,586,cs),
(853,586,o),
(882,556,o),
(882,520,cs),
(882,0,l),
(1025,0,l),
(1025,503,ls),
(1025,618,o),
(942,712,o),
(817,712,cs),
(692,712,o),
(608,618,o),
(608,503,cs),
(608,181,ls),
(608,145,o),
(578,115,o),
(542,115,cs),
(506,115,o),
(477,145,o),
(477,181,cs),
(477,503,ls),
(477,618,o),
(393,712,o),
(268,712,cs),
(143,712,o),
(60,618,o),
(60,503,cs),
(60,0,l),
(203,0,l),
(203,520,ls),
(203,556,o),
(232,586,o),
(268,586,cs),
(304,586,o),
(334,556,o),
(334,520,cs),
(334,198,ls),
(334,76,o),
(423,-11,o),
(542,-11,cs)
);
}
);
width = 1085;
},
{
layerId = "32E5C913-0890-451E-8980-44FAA246AB8A";
shapes = (
{
closed = 1;
nodes = (
(704,-13,o),
(824,67,o),
(824,215,cs),
(824,489,ls),
(824,512,o),
(843,528,o),
(866,528,cs),
(887,528,o),
(907,512,o),
(907,489,cs),
(907,0,l),
(1112,0,l),
(1112,484,ls),
(1112,629,o),
(994,713,o),
(866,713,cs),
(737,713,o),
(619,629,o),
(619,484,cs),
(619,213,ls),
(619,186,o),
(598,171,o),
(576,171,cs),
(556,171,o),
(536,186,o),
(536,213,cs),
(536,484,ls),
(536,629,o),
(418,713,o),
(289,713,cs),
(158,713,o),
(41,629,o),
(41,484,cs),
(41,0,l),
(247,0,l),
(247,486,ls),
(247,512,o),
(265,528,o),
(289,528,cs),
(312,528,o),
(330,512,o),
(330,486,cs),
(330,215,ls),
(330,67,o),
(449,-13,o),
(577,-13,cs)
);
}
);
width = 1153;
}
);
unicode = 77;
},
{
glyphname = N;
kernLeft = H_2nd;
kernRight = H_1st;
layers = (
{
background = {
shapes = (
{
closed = 1;
nodes = (
(606,700,l),
(606,180,ls),
(606,144,o),
(576,114,o),
(540,114,cs),
(504,114,o),
(475,143,o),
(475,180,cs),
(475,503,ls),
(475,618,o),
(391,712,o),
(266,712,cs),
(141,712,o),
(58,618,o),
(58,503,cs),
(58,0,l),
(201,0,l),
(201,520,ls),
(201,556,o),
(230,586,o),
(266,586,cs),
(302,586,o),
(332,556,o),
(332,520,cs),
(332,197,ls),
(332,82,o),
(415,-12,o),
(540,-12,cs),
(665,-12,o),
(749,83,o),
(749,197,cs),
(749,700,l)
);
}
);
};
layerId = "5dd0c03f-0ac1-43be-b978-266741ffc02a";
shapes = (
{
closed = 1;
nodes = (
(641,-13,o),
(705,56,o),
(705,160,cs),
(705,700,l),
(680,700,l),
(680,153,ls),
(680,69,o),
(621,10,o),
(549,10,cs),
(477,10,o),
(413,69,o),
(413,153,cs),
(413,540,ls),
(413,644,o),
(343,713,o),
(249,713,cs),
(153,713,o),
(85,644,o),
(85,540,cs),
(85,0,l),
(110,0,l),
(110,547,ls),
(110,629,o),
(172,690,o),
(249,690,cs),
(324,690,o),
(388,629,o),
(388,547,cs),
(388,160,ls),
(388,56,o),
(457,-13,o),
(549,-13,cs)
);
}
);
width = 790;
},
{
layerId = "41AFA816-2F69-4745-BF67-F6DEA15443A0";
shapes = (
{
closed = 1;
nodes = (
(667,-12,o),
(751,82,o),
(751,197,cs),
(751,700,l),
(608,700,l),
(608,180,ls),
(608,144,o),
(578,114,o),
(542,114,cs),
(506,114,o),
(477,144,o),
(477,180,cs),
(477,503,ls),
(477,618,o),
(393,712,o),
(268,712,cs),
(143,712,o),
(60,618,o),
(60,503,cs),
(60,0,l),
(203,0,l),
(203,520,ls),
(203,556,o),
(232,586,o),
(268,586,cs),
(304,586,o),
(334,556,o),
(334,520,cs),
(334,197,ls),
(334,82,o),
(417,-12,o),
(542,-12,cs)
);
}
);
width = 811;
},
{
layerId = "32E5C913-0890-451E-8980-44FAA246AB8A";
shapes = (
{
closed = 1;
nodes = (
(705,-13,o),
(824,69,o),
(824,215,cs),
(824,700,l),
(619,700,l),
(619,213,ls),
(619,186,o),
(598,170,o),
(576,170,cs),
(556,170,o),
(536,186,o),
(536,213,cs),
(536,484,ls),
(536,629,o),
(418,713,o),
(289,713,cs),
(158,713,o),
(41,629,o),
(41,484,cs),
(41,0,l),
(247,0,l),
(247,486,ls),
(247,512,o),
(265,528,o),
(289,528,cs),
(312,528,o),
(330,512,o),
(330,486,cs),
(330,215,ls),
(330,69,o),
(448,-13,o),
(577,-13,cs)
);
}
);
width = 867;
}
);
unicode = 78;
},
{
glyphname = Eng;
kernLeft = H_2nd;
kernRight = H_1st;
layers = (
{
layerId = "5dd0c03f-0ac1-43be-b978-266741ffc02a";
shapes = (
{
closed = 1;
nodes = (
(559,-216,ls),
(650,-216,o),
(705,-161,o),
(705,-71,cs),
(705,284,l),
(680,284,l),
(680,-61,ls),
(680,-146,o),
(639,-193,o),
(553,-193,cs),
(517,-193,l),
(517,-216,l)
);
},
{
ref = N;
}
);
width = 790;
},
{
layerId = "41AFA816-2F69-4745-BF67-F6DEA15443A0";
shapes = (
{
closed = 1;
nodes = (
(575,-216,ls),
(694,-216,o),
(751,-131,o),
(751,-26,cs),
(751,284,l),
(608,284,l),
(608,-13,ls),
(608,-61,o),
(580,-88,o),
(543,-88,cs),
(477,-88,l),
(477,-216,l)
);
},
{
alignment = -1;
ref = N;
}
);
width = 811;
},
{
layerId = "32E5C913-0890-451E-8980-44FAA246AB8A";
shapes = (
{
closed = 1;
nodes = (
(648,-216,ls),
(767,-216,o),
(824,-131,o),
(824,-26,cs),
(824,284,l),
(619,284,l),
(619,-19,ls),
(619,-51,o),
(599,-66,o),
(572,-66,cs),
(479,-66,l),
(479,-216,l)
);
},
{
alignment = -1;
ref = N;
}
);
width = 867;
}
);
unicode = 330;
},
{
glyphname = O;
kernLeft = O_2nd;
kernRight = O_1st;
layers = (
{
background = {
shapes = (
{
closed = 1;
nodes = (
(650,-12,o),
(794,150,o),
(794,350,cs),
(794,550,o),
(650,712,o),
(427,712,cs),
(204,712,o),
(60,550,o),
(60,350,cs),
(60,150,o),
(204,-12,o),
(427,-12,cs)
);
},
{
closed = 1;
nodes = (
(298,114,o),
(203,215,o),
(203,350,cs),
(203,485,o),
(298,586,o),
(427,586,cs),
(556,586,o),
(651,485,o),
(651,350,cs),
(651,215,o),
(556,114,o),
(427,114,cs)
);
}
);
};
layerId = "5dd0c03f-0ac1-43be-b978-266741ffc02a";
shapes = (
{
closed = 1;
nodes = (
(637,-13,o),
(778,149,o),
(778,350,cs),
(778,551,o),
(637,713,o),
(419,713,cs),
(202,713,o),
(60,551,o),
(60,350,cs),
(60,149,o),
(202,-13,o),
(419,-13,cs)
);
},
{
closed = 1;
nodes = (
(226,10,o),
(85,156,o),
(85,350,cs),
(85,544,o),
(226,690,o),
(419,690,cs),
(612,690,o),
(753,544,o),
(753,350,cs),
(753,156,o),
(612,10,o),
(419,10,cs)
);
}
);
width = 838;
},
{
layerId = "41AFA816-2F69-4745-BF67-F6DEA15443A0";
shapes = (
{
closed = 1;
nodes = (
(620,-13,o),
(764,150,o),
(764,351,cs),
(764,551,o),
(620,713,o),
(397,713,cs),
(174,713,o),
(30,551,o),
(30,351,cs),
(30,150,o),
(174,-13,o),
(397,-13,cs)
);
},
{
closed = 1;
nodes = (
(268,114,o),
(173,215,o),
(173,351,cs),
(173,486,o),
(268,587,o),
(397,587,cs),
(526,587,o),
(621,486,o),
(621,351,cs),
(621,215,o),
(526,114,o),
(397,114,cs)
);
}
);
width = 794;
},
{
layerId = "32E5C913-0890-451E-8980-44FAA246AB8A";
shapes = (
{
closed = 1;
nodes = (
(627,-13,o),
(784,142,o),
(784,350,cs),
(784,559,o),
(627,713,o),
(405,713,cs),
(183,713,o),
(26,559,o),
(26,350,cs),
(26,142,o),
(183,-13,o),
(405,-13,cs)
);
},
{
closed = 1;
nodes = (
(306,161,o),
(244,245,o),
(244,350,cs),
(244,455,o),
(306,539,o),
(405,539,cs),
(504,539,o),
(566,455,o),
(566,350,cs),
(566,245,o),
(504,161,o),
(405,161,cs)
);
}
);
width = 810;
}
);
unicode = 79;
},
{
glyphname = Oogonek;
kernLeft = O_2nd;
kernRight = O_1st;
layers = (
{
background = {
shapes = (
{
closed = 1;
nodes = (
(408,-1,l),
(384,-37,o),
(363,-80,o),
(363,-119,cs),
(363,-189,o),
(412,-226,o),
(485,-226,cs),
(511,-226,o),
(530,-220,o),
(536,-218,c),
(536,-193,l),
(515,-199,o),
(498,-202,o),
(482,-202,cs),
(424,-202,o),
(389,-172,o),
(389,-121,cs),
(389,-81,o),
(412,-36,o),
(437,-1,c)
);
},
{
closed = 1;
nodes = (
(437,-1,l),
(461,35,o),
(486,62,o),
(490,66,c),
(471,78,l),
(467,74,o),
(436,41,o),
(408,-1,c)
);
}
);
};
layerId = "5dd0c03f-0ac1-43be-b978-266741ffc02a";
shapes = (
{
closed = 1;
nodes = (
(539,-226,o),
(558,-220,o),
(564,-218,c),
(564,-193,l),
(543,-199,o),
(526,-202,o),
(510,-202,cs),
(452,-202,o),
(417,-172,o),
(417,-121,cs),
(417,-81,o),
(440,-36,o),
(465,-1,c),
(436,-1,l),
(412,-37,o),
(391,-80,o),
(391,-119,cs),
(391,-189,o),
(440,-226,o),
(513,-226,cs)
);
},
{
ref = O;
}
);
width = 838;
},
{
background = {
shapes = (
{
closed = 1;
nodes = (
(464,-226,o),
(488,-223,o),
(502,-219,c),
(502,-134,l),
(488,-139,o),
(474,-142,o),
(459,-142,cs),
(428,-142,o),
(404,-120,o),
(404,-88,cs),
(404,-37,o),
(463,49,o),
(469,58,c),
(434,78,l),
(427,70,o),
(319,-41,o),
(319,-112,cs),
(319,-189,o),
(378,-226,o),
(450,-226,cs)
);
}
);
};
layerId = "41AFA816-2F69-4745-BF67-F6DEA15443A0";
shapes = (
{
closed = 1;
nodes = (
(464,-226,o),
(488,-223,o),
(502,-219,c),
(502,-134,l),
(488,-139,o),
(474,-142,o),
(459,-142,cs),
(428,-142,o),
(404,-120,o),
(404,-88,cs),
(404,-57,o),
(431,4,o),
(469,58,c),
(434,78,l),
(367,11,o),
(319,-69,o),
(319,-112,cs),
(319,-189,o),
(378,-226,o),
(450,-226,cs)
);
},
{
alignment = -1;
ref = O;
}
);
width = 794;
},
{
background = {
shapes = (
{
closed = 1;
nodes = (
(464,-227,o),
(496,-223,o),
(514,-218,c),
(514,-125,l),
(502,-129,o),
(486,-132,o),
(470,-132,cs),
(436,-132,o),
(418,-112,o),
(418,-85,cs),
(418,-37,o),
(483,54,o),
(487,61,c),
(430,87,l),
(423,79,o),
(307,-34,o),
(307,-114,cs),
(307,-194,o),
(365,-227,o),
(443,-227,cs)
);
}
);
};
layerId = "32E5C913-0890-451E-8980-44FAA246AB8A";
shapes = (
{
closed = 1;
nodes = (
(464,-227,o),
(496,-223,o),
(514,-218,c),
(514,-125,l),
(502,-129,o),
(486,-132,o),
(470,-132,cs),
(436,-132,o),
(418,-112,o),
(418,-85,cs),
(418,-56,o),
(447,5,o),
(487,61,c),
(430,87,l),
(359,19,o),
(307,-66,o),
(307,-114,cs),
(307,-194,o),
(365,-227,o),
(443,-227,cs)
);
},
{
alignment = -1;
ref = O;
}
);
width = 810;
}
);
unicode = 490;
},
{
glyphname = Oslash;
kernLeft = O_2nd;
kernRight = O_1st;
layers = (
{
background = {
shapes = (
{
closed = 1;
nodes = (
(752,701,l),
(52,0,l),
(85,0,l),
(787,701,l)
);
},
{
closed = 1;
nodes = (
(637,-13,o),
(778,149,o),
(778,350,cs),
(778,551,o),
(637,713,o),
(419,713,cs),
(202,713,o),
(60,551,o),
(60,350,cs),
(60,149,o),
(202,-13,o),
(419,-13,cs)
);
},
{
closed = 1;
nodes = (
(226,10,o),
(85,156,o),
(85,350,cs),
(85,544,o),
(226,690,o),
(419,690,cs),
(612,690,o),
(753,544,o),
(753,350,cs),
(753,156,o),
(612,10,o),
(419,10,cs)
);
}
);
};
layerId = "5dd0c03f-0ac1-43be-b978-266741ffc02a";
shapes = (
{
closed = 1;
nodes = (
(637,-13,o),
(778,149,o),
(778,350,cs),
(778,447,o),
(745,535,o),
(686,600,c),
(787,701,l),
(752,701,l),
(669,618,l),
(607,677,o),
(522,713,o),
(419,713,cs),
(202,713,o),
(60,551,o),
(60,350,cs),
(60,253,o),
(93,165,o),
(152,100,c),
(52,0,l),
(85,0,l),
(168,83,l),
(230,23,o),
(316,-13,o),
(419,-13,cs)
);
},
{
closed = 1;
nodes = (
(326,10,o),
(245,44,o),
(186,101,c),
(668,582,l),
(722,522,o),
(753,442,o),
(753,350,cs),
(753,156,o),
(612,10,o),
(419,10,cs)
);
},
{
closed = 1;
nodes = (
(116,178,o),
(85,259,o),
(85,350,cs),
(85,544,o),
(226,690,o),
(419,690,cs),
(512,690,o),
(592,656,o),
(651,600,c),
(170,118,l)
);
}
);
width = 838;
},
{
layerId = "41AFA816-2F69-4745-BF67-F6DEA15443A0";
shapes = (
{
closed = 1;
nodes = (
(620,-12,o),
(764,150,o),
(764,350,cs),
(764,441,o),
(729,527,o),
(670,591,c),
(765,701,l),
(635,701,l),
(595,655,l),
(539,691,o),
(471,712,o),
(397,712,cs),
(174,712,o),
(30,550,o),
(30,350,cs),
(30,258,o),
(65,173,o),
(123,108,c),
(30,0,l),
(160,0,l),
(198,45,l),
(255,9,o),
(323,-12,o),
(397,-12,cs)
);
},
{
closed = 1;
nodes = (
(355,114,o),
(316,124,o),
(283,143,c),
(581,488,l),
(606,450,o),
(621,402,o),
(621,350,cs),
(621,215,o),
(526,114,o),
(397,114,cs)
);
},
{
closed = 1;
nodes = (
(187,250,o),
(173,297,o),
(173,350,cs),
(173,485,o),
(268,586,o),
(397,586,cs),
(439,586,o),
(477,575,o),
(510,556,c),
(212,211,l)
);
}
);
width = 794;
},
{
layerId = "32E5C913-0890-451E-8980-44FAA246AB8A";
shapes = (
{
closed = 1;
nodes = (
(627,-13,o),
(784,142,o),
(784,350,cs),
(784,444,o),
(750,528,o),
(693,591,c),
(788,700,l),
(622,700,l),
(594,668,l),
(539,696,o),
(475,713,o),
(405,713,cs),
(183,713,o),
(26,558,o),
(26,350,cs),
(26,260,o),
(57,178,o),
(110,116,c),
(10,0,l),
(174,0,l),
(206,38,l),
(263,5,o),
(331,-13,o),
(405,-13,cs)
);
},
{
closed = 1;
nodes = (
(377,161,o),
(352,168,o),
(330,180,c),
(549,433,l),
(560,408,o),
(566,380,o),
(566,350,cs),
(566,245,o),
(504,161,o),
(405,161,cs)
);
},
{
closed = 1;
nodes = (
(249,300,o),
(244,324,o),
(244,350,cs),
(244,455,o),
(306,539,o),
(405,539,cs),
(429,539,o),
(450,534,o),
(470,525,c),
(258,279,l)
);
}
);
width = 810;
}
);
unicode = 216;
},
{
glyphname = OE;
kernLeft = O_2nd;
kernRight = E_1st;
layers = (
{
background = {
shapes = (
{
closed = 1;
nodes = (
(688,580,l),
(710,639,o),
(766,676,o),
(829,676,cs),
(1086,676,l),
(1086,699,l),
(826,699,ls),
(760,699,o),
(694,658,o),
(670,597,c)
);
},
{
closed = 1;
nodes = (
(765,345,l),
(1046,345,l),
(1046,368,l),
(765,368,l)
);
},
{
closed = 1;
nodes = (
(665,96,l),
(692,41,o),
(746,0,o),
(825,0,cs),
(1086,0,l),
(1086,23,l),
(832,23,ls),
(755,23,o),
(706,63,o),
(684,116,c)
);
},
{
closed = 1;
nodes = (
(637,-13,o),
(778,149,o),
(778,350,cs),
(778,551,o),
(637,713,o),
(419,713,cs),
(202,713,o),
(60,551,o),
(60,350,cs),
(60,149,o),
(202,-13,o),
(419,-13,cs)
);
},
{
closed = 1;
nodes = (
(226,10,o),
(85,156,o),
(85,350,cs),
(85,544,o),
(226,690,o),
(419,690,cs),
(612,690,o),
(753,544,o),
(753,350,cs),
(753,156,o),
(612,10,o),
(419,10,cs)
);
}
);
};
layerId = "5dd0c03f-0ac1-43be-b978-266741ffc02a";
shapes = (
{
closed = 1;
nodes = (
(523,-13,o),
(609,24,o),
(671,84,c),
(700,35,o),
(752,0,o),
(825,0,cs),
(1086,0,l),
(1086,23,l),
(832,23,ls),
(761,23,o),
(714,57,o),
(690,104,c),
(745,167,o),
(777,252,o),
(778,345,c),
(1046,345,l),
(1046,368,l),
(778,368,l),
(774,454,o),
(744,532,o),
(693,592,c),
(718,644,o),
(771,676,o),
(829,676,cs),
(1086,676,l),
(1086,699,l),
(826,699,ls),
(765,699,o),
(704,664,o),
(676,611,c),
(614,674,o),
(526,713,o),
(419,713,cs),
(202,713,o),
(60,551,o),
(60,350,cs),
(60,149,o),
(202,-13,o),
(419,-13,cs)
);
},
{
closed = 1;
nodes = (
(226,10,o),
(85,156,o),
(85,350,cs),
(85,544,o),
(226,690,o),
(419,690,cs),
(612,690,o),
(753,544,o),
(753,350,cs),
(753,156,o),
(612,10,o),
(419,10,cs)
);
}
);
width = 1136;
},
{
layerId = "41AFA816-2F69-4745-BF67-F6DEA15443A0";
shapes = (
{
closed = 1;
nodes = (
(490,-12,o),
(569,18,o),
(629,69,c),
(667,26,o),
(715,0,o),
(770,0,cs),
(1053,0,l),
(1053,126,l),
(787,126,ls),
(755,126,o),
(727,141,o),
(712,164,c),
(734,203,o),
(748,246,o),
(754,293,c),
(1019,293,l),
(1019,419,l),
(753,419,l),
(745,462,o),
(731,501,o),
(710,537,c),
(725,559,o),
(751,574,o),
(781,574,cs),
(1053,574,l),
(1053,700,l),
(765,700,ls),
(712,700,o),
(664,674,o),
(627,632,c),
(567,682,o),
(489,712,o),
(397,712,cs),
(174,712,o),
(30,550,o),
(30,350,cs),
(30,150,o),
(174,-12,o),
(397,-12,cs)
);
},
{
closed = 1;
nodes = (
(268,114,o),
(173,215,o),
(173,350,cs),
(173,485,o),
(268,586,o),
(397,586,cs),
(526,586,o),
(621,485,o),
(621,350,cs),
(621,215,o),
(526,114,o),
(397,114,cs)
);
}
);
width = 1093;
},
{
layerId = "32E5C913-0890-451E-8980-44FAA246AB8A";
shapes = (
{
closed = 1;
nodes = (
(491,-13,o),
(565,10,o),
(625,49,c),
(663,18,o),
(711,0,o),
(765,0,cs),
(1079,0,l),
(1079,169,l),
(768,169,ls),
(758,169,o),
(750,173,o),
(744,178,c),
(757,207,o),
(768,237,o),
(774,270,c),
(1070,270,l),
(1070,434,l),
(773,434,l),
(767,467,o),
(757,497,o),
(742,524,c),
(748,530,o),
(757,534,o),
(767,534,cs),
(1079,534,l),
(1079,700,l),
(767,700,ls),
(714,700,o),
(665,682,o),
(628,649,c),
(568,690,o),
(492,713,o),
(405,713,cs),
(175,713,o),
(26,558,o),
(26,350,cs),
(26,142,o),
(175,-13,o),
(405,-13,cs)
);
},
{
closed = 1;
nodes = (
(303,161,o),
(244,241,o),
(244,350,cs),
(244,459,o),
(303,539,o),
(405,539,cs),
(507,539,o),
(566,459,o),
(566,350,cs),
(566,241,o),
(507,161,o),
(405,161,cs)
);
}
);
width = 1115;
}
);
unicode = 338;
},
{
glyphname = P;
kernLeft = H_2nd;
kernRight = P_1st;
layers = (
{
background = {
shapes = (
{
closed = 1;
nodes = (
(377,270,ls),
(514,270,o),
(605,360,o),
(605,484,cs),
(605,613,o),
(505,700,o),
(383,700,cs),
(97,700,l),
(97,677,l),
(379,677,ls),
(487,677,o),
(580,606,o),
(580,484,cs),
(580,363,o),
(489,293,o),
(375,293,cs),
(100,293,l),
(100,270,l)
);
},
{
closed = 1;
nodes = (
(110,0,l),
(110,700,l),
(85,700,l),
(85,0,l)
);
}
);
};
layerId = "5dd0c03f-0ac1-43be-b978-266741ffc02a";
shapes = (
{
closed = 1;
nodes = (
(110,0,l),
(110,270,l),
(377,270,ls),
(514,270,o),
(605,360,o),
(605,484,cs),
(605,613,o),
(505,700,o),
(383,700,cs),
(85,700,l),
(85,0,l)
);
},
{
closed = 1;
nodes = (
(110,677,l),
(379,677,ls),
(487,677,o),
(580,606,o),
(580,484,cs),
(580,363,o),
(489,293,o),
(375,293,cs),
(110,293,l)
);
}
);
width = 665;
},
{
layerId = "41AFA816-2F69-4745-BF67-F6DEA15443A0";
shapes = (
{
closed = 1;
nodes = (
(213,0,l),
(213,202,l),
(363,202,ls),
(500,202,o),
(612,304,o),
(612,451,cs),
(612,598,o),
(500,700,o),
(363,700,cs),
(70,700,l),
(70,0,l)
);
},
{
closed = 1;
nodes = (
(213,574,l),
(346,574,ls),
(414,574,o),
(469,529,o),
(469,451,cs),
(469,373,o),
(414,328,o),
(346,328,cs),
(213,328,l)
);
}
);
width = 637;
},
{
layerId = "32E5C913-0890-451E-8980-44FAA246AB8A";
shapes = (
{
closed = 1;
nodes = (
(260,0,l),
(260,185,l),
(359,185,ls),
(509,185,o),
(632,291,o),
(632,444,cs),
(632,595,o),
(509,700,o),
(359,700,cs),
(44,700,l),
(44,0,l)
);
},
{
closed = 1;
nodes = (
(260,531,l),
(336,531,ls),
(377,531,o),
(414,498,o),
(414,442,cs),
(414,386,o),
(377,354,o),
(336,354,cs),
(260,354,l)
);
}
);
width = 657;
}
);
unicode = 80;
},
{
glyphname = Thorn;
kernLeft = H_2nd;
kernRight = P_1st;
layers = (
{
background = {
shapes = (
{
closed = 1;
nodes = (
(110,0,l),
(110,135,l),
(377,135,ls),
(514,135,o),
(605,225,o),
(605,349,cs),
(605,478,o),
(505,565,o),
(383,565,cs),
(85,565,l),
(85,0,l)
);
},
{
closed = 1;
nodes = (
(110,542,l),
(379,542,ls),
(487,542,o),
(580,471,o),
(580,349,cs),
(580,228,o),
(489,158,o),
(375,158,cs),
(110,158,l)
);
},
{
closed = 1;
nodes = (
(85,556,l),
(110,556,l),
(110,700,l),
(85,700,l)
);
}
);
};
layerId = "5dd0c03f-0ac1-43be-b978-266741ffc02a";
shapes = (
{
closed = 1;
nodes = (
(110,0,l),
(110,135,l),
(377,135,ls),
(514,135,o),
(605,225,o),
(605,349,cs),
(605,478,o),
(505,565,o),
(383,565,cs),
(110,565,l),
(110,700,l),
(85,700,l),
(85,0,l)
);
},
{
closed = 1;
nodes = (
(110,542,l),
(379,542,ls),
(487,542,o),
(580,471,o),
(580,349,cs),
(580,228,o),
(489,158,o),
(375,158,cs),
(110,158,l)
);
}
);
width = 665;
},
{
layerId = "41AFA816-2F69-4745-BF67-F6DEA15443A0";
shapes = (
{
closed = 1;
nodes = (
(213,0,l),
(213,102,l),
(363,102,ls),
(500,102,o),
(612,204,o),
(612,351,cs),
(612,498,o),
(500,600,o),
(363,600,cs),
(213,600,l),
(213,700,l),
(70,700,l),
(70,0,l)
);
},
{
closed = 1;
nodes = (
(213,474,l),
(346,474,ls),
(414,474,o),
(469,429,o),
(469,351,cs),
(469,273,o),
(414,228,o),
(346,228,cs),
(213,228,l)
);
}
);
width = 637;
},
{
layerId = "32E5C913-0890-451E-8980-44FAA246AB8A";
shapes = (
{
closed = 1;
nodes = (
(260,0,l),
(260,96,l),
(359,96,ls),
(510,96,o),
(632,200,o),
(632,351,cs),
(632,501,o),
(510,606,o),
(359,606,cs),
(260,606,l),
(260,700,l),
(44,700,l),
(44,0,l)
);
},
{
closed = 1;
nodes = (
(260,442,l),
(337,442,ls),
(377,442,o),
(414,408,o),
(414,351,cs),
(414,293,o),
(377,260,o),
(337,260,cs),
(260,260,l)
);
}
);
width = 657;
}
);
unicode = 222;
},
{
glyphname = Q;
kernLeft = O_2nd;
kernRight = O_1st;
layers = (
{
background = {
shapes = (
{
closed = 1;
nodes = (
(468,-203,l),
(468,-6,l),
(650,24,o),
(764,172,o),
(764,350,cs),
(764,550,o),
(620,712,o),
(397,712,cs),
(174,712,o),
(30,550,o),
(30,350,cs),
(30,172,o),
(144,24,o),
(326,-6,c),
(326,-203,l)
);
},
{
closed = 1;
nodes = (
(268,114,o),
(173,215,o),
(173,350,cs),
(173,485,o),
(268,586,o),
(397,586,cs),
(526,586,o),
(621,485,o),
(621,350,cs),
(621,215,o),
(526,114,o),
(397,114,cs)
);
}
);
};
layerId = "5dd0c03f-0ac1-43be-b978-266741ffc02a";
shapes = (
{
closed = 1;
nodes = (
(432,-203,l),
(432,0,l),
(407,0,l),
(407,-203,l)
);
},
{
alignment = -1;
ref = O;
}
);
width = 838;
},
{
background = {
shapes = (
{
closed = 1;
nodes = (
(620,-12,o),
(764,150,o),
(764,350,cs),
(764,550,o),
(620,712,o),
(397,712,cs),
(174,712,o),
(30,550,o),
(30,350,cs),
(30,150,o),
(174,-12,o),
(397,-12,cs)
);
},
{
closed = 1;
nodes = (
(268,114,o),
(173,215,o),
(173,350,cs),
(173,485,o),
(268,586,o),
(397,586,cs),
(526,586,o),
(621,485,o),
(621,350,cs),
(621,215,o),
(526,114,o),
(397,114,cs)
);
},
{
closed = 1;
nodes = (
(326,10,l),
(326,-203,l),
(468,-203,l),
(468,10,l)
);
}
);
};
layerId = "41AFA816-2F69-4745-BF67-F6DEA15443A0";
shapes = (
{
closed = 1;
nodes = (
(468,-203,l),
(468,10,l),
(326,10,l),
(326,-203,l)
);
},
{
ref = O;
}
);
width = 794;
},
{
layerId = "32E5C913-0890-451E-8980-44FAA246AB8A";
shapes = (
{
closed = 1;
nodes = (
(513,-203,l),
(513,24,l),
(298,24,l),
(298,-203,l)
);
},
{
alignment = -1;
ref = O;
}
);
width = 810;
}
);
unicode = 81;
},
{
glyphname = R;
kernLeft = H_2nd;
kernRight = P_1st;
layers = (
{
background = {
shapes = (
{
closed = 1;
nodes = (
(648,24,l),
(624,24,ls),
(583,24,o),
(567,41,o),
(548,82,cs),
(454,302,l),
(430,295,l),
(525,71,l),
(547,24,o),
(574,0,o),
(621,0,cs),
(648,0,l)
);
},
{
closed = 1;
nodes = (
(85,700,l),
(85,0,l),
(110,0,l),
(110,700,l)
);
},
{
closed = 1;
nodes = (
(514,281,o),
(605,369,o),
(605,490,cs),
(605,616,o),
(505,700,o),
(383,700,cs),
(97,700,l),
(97,677,l),
(379,677,ls),
(487,677,o),
(580,608,o),
(580,490,cs),
(580,372,o),
(489,304,o),
(375,304,cs),
(100,304,l),
(100,281,l),
(377,281,ls)
);
}
);
};
layerId = "5dd0c03f-0ac1-43be-b978-266741ffc02a";
shapes = (
{
closed = 1;
nodes = (
(110,0,l),
(110,281,l),
(377,281,ls),
(397,281,o),
(416,283,o),
(434,286,c),
(525,71,ls),
(547,24,o),
(574,0,o),
(621,0,cs),
(648,0,l),
(648,24,l),
(624,24,ls),
(583,24,o),
(567,41,o),
(548,82,cs),
(458,293,l),
(549,320,o),
(605,395,o),
(605,490,cs),
(605,616,o),
(505,700,o),
(383,700,cs),
(85,700,l),
(85,0,l)
);
},
{
closed = 1;
nodes = (
(110,677,l),
(379,677,ls),
(487,677,o),
(580,608,o),
(580,490,cs),
(580,372,o),
(489,304,o),
(375,304,cs),
(110,304,l)
);
}
);
width = 670;
},
{
layerId = "41AFA816-2F69-4745-BF67-F6DEA15443A0";
shapes = (
{
closed = 1;
nodes = (
(213,0,l),
(213,218,l),
(331,218,ls),
(343,218,o),
(356,218,o),
(368,218,c),
(447,76,ls),
(473,31,o),
(522,0,o),
(578,0,cs),
(668,0,l),
(668,126,l),
(600,126,ls),
(589,126,o),
(581,131,o),
(576,139,cs),
(512,251,l),
(584,292,o),
(632,366,o),
(632,459,cs),
(632,602,o),
(520,700,o),
(383,700,cs),
(70,700,l),
(70,0,l)
);
},
{
closed = 1;
nodes = (
(213,574,l),
(366,574,ls),
(433,574,o),
(489,531,o),
(489,459,cs),
(489,386,o),
(434,344,o),
(366,344,cs),
(213,344,l)
);
}
);
width = 683;
},
{
layerId = "32E5C913-0890-451E-8980-44FAA246AB8A";
shapes = (
{
closed = 1;
nodes = (
(260,0,l),
(260,196,l),
(317,196,ls),
(322,196,o),
(328,196,o),
(333,196,c),
(400,83,ls),
(429,34,o),
(487,0,o),
(558,0,cs),
(670,0,l),
(670,165,l),
(620,165,ls),
(598,165,o),
(590,172,o),
(581,185,cs),
(542,246,l),
(607,292,o),
(650,367,o),
(650,449,cs),
(650,597,o),
(527,700,o),
(376,700,cs),
(44,700,l),
(44,0,l)
);
},
{
closed = 1;
nodes = (
(260,531,l),
(354,531,ls),
(394,531,o),
(432,498,o),
(432,447,cs),
(432,394,o),
(394,361,o),
(354,361,cs),
(260,361,l)
);
}
);
width = 685;
}
);
unicode = 82;
},
{
glyphname = S;
kernLeft = S_2nd;
kernRight = S_1st;
layers = (
{
background = {
shapes = (
{
closed = 0;
nodes = (
(396,332,ls),
(495,332,o),
(548,252,o),
(548,177,cs),
(548,102,o),
(493,23,o),
(394,23,cs),
(108,23,l),
(108,0,l),
(389,0,ls),
(512,0,o),
(574,89,o),
(574,178,cs),
(574,266,o),
(512,355,o),
(389,355,cs)
);
}
);
};
layerId = "5dd0c03f-0ac1-43be-b978-266741ffc02a";
shapes = (
{
closed = 1;
nodes = (
(386,0,ls),
(512,0,o),
(574,96,o),
(574,191,cs),
(574,283,o),
(514,368,o),
(392,368,cs),
(237,368,ls),
(132,368,o),
(80,446,o),
(80,521,cs),
(80,597,o),
(138,677,o),
(243,677,cs),
(529,677,l),
(529,700,l),
(243,700,ls),
(118,700,o),
(55,608,o),
(55,518,cs),
(55,431,o),
(116,345,o),
(237,345,cs),
(392,345,ls),
(498,345,o),
(549,268,o),
(549,188,cs),
(549,108,o),
(494,23,o),
(386,23,cs),
(78,23,l),
(78,0,l)
);
}
);
width = 629;
},
{
layerId = "41AFA816-2F69-4745-BF67-F6DEA15443A0";
shapes = (
{
closed = 1;
nodes = (
(387,0,ls),
(499,0,o),
(591,81,o),
(591,223,cs),
(591,343,o),
(506,423,o),
(377,423,cs),
(256,423,ls),
(215,423,o),
(183,455,o),
(183,498,cs),
(183,539,o),
(215,574,o),
(256,574,cs),
(546,574,l),
(546,700,l),
(242,700,ls),
(130,700,o),
(40,617,o),
(40,492,cs),
(40,364,o),
(134,289,o),
(252,289,cs),
(369,289,ls),
(412,289,o),
(449,253,o),
(449,207,cs),
(449,163,o),
(412,126,o),
(369,126,cs),
(69,126,l),
(69,0,l)
);
}
);
width = 626;
},
{
layerId = "32E5C913-0890-451E-8980-44FAA246AB8A";
shapes = (
{
closed = 1;
nodes = (
(389,0,ls),
(513,0,o),
(614,84,o),
(614,231,cs),
(614,358,o),
(521,442,o),
(379,442,cs),
(282,442,ls),
(253,442,o),
(236,463,o),
(236,487,cs),
(236,510,o),
(253,531,o),
(282,531,cs),
(572,531,l),
(572,700,l),
(253,700,ls),
(129,700,o),
(29,613,o),
(29,482,cs),
(29,348,o),
(133,270,o),
(263,270,cs),
(353,270,ls),
(386,270,o),
(406,246,o),
(406,219,cs),
(406,193,o),
(386,169,o),
(353,169,cs),
(56,169,l),
(56,0,l)
);
}
);
width = 642;
}
);
unicode = 83;
},
{
glyphname = Germandbls;
kernLeft = H_2nd;
kernRight = S_1st;
layers = (
{
background = {
shapes = (
{
closed = 1;
nodes = (
(228,0,l),
(228,443,ls),
(228,522,o),
(280,586,o),
(362,586,cs),
(415,586,o),
(457,559,o),
(487,505,c),
(367,376,l),
(367,309,l),
(420,309,l),
(507,309,o),
(539,268,o),
(539,218,cs),
(539,167,o),
(501,126,o),
(454,126,c),
(339,125,l),
(339,0,l),
(495,0,ls),
(598,0,o),
(682,86,o),
(682,202,cs),
(682,288,o),
(634,365,o),
(515,397,c),
(634,504,l),
(611,613,o),
(517,712,o),
(363,712,cs),
(196,712,o),
(85,602,o),
(85,434,cs),
(85,0,l)
);
}
);
};
layerId = "5dd0c03f-0ac1-43be-b978-266741ffc02a";
shapes = (
{
closed = 1;
nodes = (
(110,0,l),
(110,447,ls),
(110,590,o),
(198,690,o),
(341,690,cs),
(437,690,o),
(522,638,o),
(560,543,c),
(389,380,l),
(389,365,l),
(408,364,ls),
(566,356,o),
(623,272,o),
(623,186,cs),
(623,102,o),
(564,23,o),
(464,23,cs),
(339,23,l),
(339,0,l),
(467,0,ls),
(580,0,o),
(648,90,o),
(648,186,cs),
(648,297,o),
(563,375,o),
(423,384,c),
(587,537,l),
(560,625,o),
(474,713,o),
(342,713,cs),
(188,713,o),
(85,608,o),
(85,442,cs),
(85,0,l)
);
}
);
width = 693;
},
{
layerId = "41AFA816-2F69-4745-BF67-F6DEA15443A0";
shapes = (
{
closed = 1;
nodes = (
(208,0,l),
(208,443,ls),
(208,522,o),
(260,586,o),
(342,586,cs),
(395,586,o),
(437,559,o),
(467,505,c),
(347,376,l),
(347,309,l),
(400,309,ls),
(487,309,o),
(519,268,o),
(519,218,cs),
(519,167,o),
(481,126,o),
(434,126,cs),
(319,126,l),
(319,0,l),
(475,0,ls),
(578,0,o),
(662,86,o),
(662,202,cs),
(662,288,o),
(614,365,o),
(495,397,c),
(614,504,l),
(591,613,o),
(497,712,o),
(343,712,cs),
(176,712,o),
(65,602,o),
(65,434,cs),
(65,0,l)
);
}
);
width = 702;
},
{
layerId = "32E5C913-0890-451E-8980-44FAA246AB8A";
shapes = (
{
closed = 1;
nodes = (
(248,0,l),
(248,439,ls),
(248,503,o),
(282,546,o),
(341,546,cs),
(376,546,o),
(403,528,o),
(420,492,c),
(322,381,l),
(322,296,l),
(390,296,ls),
(442,296,o),
(464,264,o),
(464,230,cs),
(464,195,o),
(441,163,o),
(399,163,cs),
(315,163,l),
(315,0,l),
(461,0,ls),
(577,0,o),
(671,91,o),
(671,212,cs),
(671,291,o),
(631,363,o),
(532,401,c),
(628,486,l),
(611,615,o),
(509,713,o),
(341,713,cs),
(160,713,o),
(43,601,o),
(43,420,cs),
(43,0,l)
);
}
);
width = 700;
}
);
unicode = 7838;
},
{
glyphname = T;
kernLeft = T_2nd;
kernRight = T_1st;
layers = (
{
background = {
shapes = (
{
closed = 1;
nodes = (
(488,0,l),
(488,126,l),
(438,126,ls),
(402,126,o),
(373,156,o),
(373,192,cs),
(373,574,l),
(568,574,l),
(568,700,l),
(35,700,l),
(35,574,l),
(230,574,l),
(230,209,ls),
(230,94,o),
(313,0,o),
(438,0,cs)
);
}
);
};
layerId = "5dd0c03f-0ac1-43be-b978-266741ffc02a";
shapes = (
{
closed = 1;
nodes = (
(467,0,l),
(467,23,l),
(427,23,ls),
(346,23,o),
(300,74,o),
(300,149,cs),
(300,677,l),
(540,677,l),
(540,700,l),
(35,700,l),
(35,677,l),
(275,677,l),
(275,154,ls),
(275,59,o),
(329,0,o),
(425,0,cs)
);
}
);
width = 575;
},
{
layerId = "41AFA816-2F69-4745-BF67-F6DEA15443A0";
shapes = (
{
closed = 1;
nodes = (
(468,0,l),
(468,126,l),
(418,126,ls),
(382,126,o),
(353,156,o),
(353,192,cs),
(353,574,l),
(548,574,l),
(548,700,l),
(15,700,l),
(15,574,l),
(210,574,l),
(210,209,ls),
(210,94,o),
(293,0,o),
(418,0,cs)
);
}
);
width = 563;
},
{
layerId = "32E5C913-0890-451E-8980-44FAA246AB8A";
shapes = (
{
closed = 1;
nodes = (
(517,0,l),
(517,169,l),
(450,169,ls),
(429,169,o),
(412,186,o),
(412,208,cs),
(412,531,l),
(589,531,l),
(589,700,l),
(15,700,l),
(15,531,l),
(196,531,l),
(196,219,ls),
(196,93,o),
(293,0,o),
(427,0,cs)
);
}
);
width = 604;
}
);
unicode = 84;
},
{
glyphname = Tbar;
kernLeft = T_2nd;
kernRight = T_1st;
layers = (
{
background = {
shapes = (
{
ref = T;
},
{
pos = (75,-198);
ref = macron;
scale = (1.5226,1);
}
);
};
layerId = "5dd0c03f-0ac1-43be-b978-266741ffc02a";
shapes = (
{
closed = 1;
nodes = (
(467,0,l),
(467,23,l),
(427,23,ls),
(346,23,o),
(300,74,o),
(300,149,cs),
(300,406,l),
(501,406,l),
(501,429,l),
(300,429,l),
(300,677,l),
(540,677,l),
(540,700,l),
(35,700,l),
(35,677,l),
(275,677,l),
(275,429,l),
(75,429,l),
(75,406,l),
(275,406,l),
(275,154,ls),
(275,59,o),
(329,0,o),
(425,0,cs)
);
}
);
width = 575;
},
{
background = {
shapes = (
{
closed = 1;
nodes = (
(468,0,l),
(468,126,l),
(418,126,ls),
(382,126,o),
(353,156,o),
(353,192,cs),
(353,574,l),
(548,574,l),
(548,700,l),
(15,700,l),
(15,574,l),
(210,574,l),
(210,209,ls),
(210,94,o),
(293,0,o),
(418,0,cs)
);
},
{
closed = 1;
nodes = (
(501.418,345,l),
(501.418,433,l),
(88.417,433,l),
(88.417,345,l)
);
}
);
};
layerId = "41AFA816-2F69-4745-BF67-F6DEA15443A0";
shapes = (
{
closed = 1;
nodes = (
(468,0,l),
(468,126,l),
(418,126,ls),
(382,126,o),
(353,156,o),
(353,192,cs),
(353,345,l),
(501,345,l),
(501,433,l),
(353,433,l),
(353,574,l),
(548,574,l),
(548,700,l),
(15,700,l),
(15,574,l),
(210,574,l),
(210,433,l),
(88,433,l),
(88,345,l),
(210,345,l),
(210,209,ls),
(210,94,o),
(293,0,o),
(418,0,cs)
);
}
);
width = 563;
},
{
layerId = "32E5C913-0890-451E-8980-44FAA246AB8A";
shapes = (
{
closed = 1;
nodes = (
(517,0,l),
(517,169,l),
(450,169,ls),
(429,169,o),
(412,186,o),
(412,208,cs),
(412,309,l),
(524,309,l),
(524,424,l),
(412,424,l),
(412,531,l),
(589,531,l),
(589,700,l),
(15,700,l),
(15,531,l),
(196,531,l),
(196,424,l),
(90,424,l),
(90,309,l),
(196,309,l),
(196,219,ls),
(196,93,o),
(293,0,o),
(427,0,cs)
);
}
);
width = 604;
}
);
unicode = 358;
},
{
glyphname = Tcedilla;
kernLeft = T_2nd;
kernRight = T_1st;
layers = (
{
background = {
shapes = (
{
closed = 1;
nodes = (
(376,-217,l),
(468,-1,l),
(468,11,l),
(348,23,l),
(245,-217,l)
);
}
);
};
layerId = "5dd0c03f-0ac1-43be-b978-266741ffc02a";
shapes = (
{
closed = 1;
nodes = (
(379,-203,l),
(467,0,l),
(467,10,l),
(443,14,l),
(354,-203,l)
);
},
{
ref = T;
}
);
width = 575;
},
{
background = {
shapes = (
{
closed = 1;
nodes = (
(376,-203,l),
(468,13,l),
(468,25,l),
(348,37,l),
(245,-203,l)
);
}
);
};
layerId = "41AFA816-2F69-4745-BF67-F6DEA15443A0";
shapes = (
{
closed = 1;
nodes = (
(382,-203,l),
(468,0,l),
(468,25,l),
(354,37,l),
(251,-203,l)
);
},
{
alignment = -1;
ref = T;
}
);
width = 563;
},
{
layerId = "32E5C913-0890-451E-8980-44FAA246AB8A";
shapes = (
{
closed = 1;
nodes = (
(423,-203,l),
(509,0,l),
(509,36,l),
(365,39,l),
(262,-203,l)
);
},
{
alignment = -1;
ref = T;
}
);
width = 604;
}
);
unicode = 354;
},
{
glyphname = U;
kernLeft = H_2nd;
kernRight = H_1st;
layers = (
{
background = {
shapes = (
{
closed = 1;
nodes = (
(482,-13,o),
(586,93,o),
(586,264,cs),
(586,700,l),
(561,700,l),
(561,253,ls),
(561,120,o),
(475,11,o),
(336,11,cs),
(196,11,o),
(110,120,o),
(110,253,cs),
(110,700,l),
(85,700,l),
(85,264,ls),
(85,93,o),
(189,-13,o),
(336,-13,cs)
);
}
);
};
layerId = "5dd0c03f-0ac1-43be-b978-266741ffc02a";
shapes = (
{
closed = 1;
nodes = (
(493,-13,o),
(600,93,o),
(600,264,cs),
(600,700,l),
(575,700,l),
(575,253,ls),
(575,120,o),
(486,11,o),
(343,11,cs),
(199,11,o),
(110,120,o),
(110,253,cs),
(110,700,l),
(85,700,l),
(85,264,ls),
(85,93,o),
(192,-13,o),
(343,-13,cs)
);
}
);
width = 685;
},
{
layerId = "41AFA816-2F69-4745-BF67-F6DEA15443A0";
shapes = (
{
closed = 1;
nodes = (
(526,-12,o),
(647,98,o),
(647,276,cs),
(647,700,l),
(504,700,l),
(504,267,ls),
(504,183,o),
(447,114,o),
(356,114,cs),
(265,114,o),
(208,183,o),
(208,267,cs),
(208,700,l),
(65,700,l),
(65,276,ls),
(65,98,o),
(186,-12,o),
(356,-12,cs)
);
}
);
width = 712;
},
{
layerId = "32E5C913-0890-451E-8980-44FAA246AB8A";
shapes = (
{
closed = 1;
nodes = (
(538,-12,o),
(667,100,o),
(667,281,cs),
(667,700,l),
(455,700,l),
(455,272,ls),
(455,207,o),
(416,161,o),
(355,161,cs),
(294,161,o),
(255,207,o),
(255,272,cs),
(255,700,l),
(43,700,l),
(43,281,ls),
(43,100,o),
(173,-12,o),
(355,-12,cs)
);
}
);
width = 709;
}
);
unicode = 85;
},
{
glyphname = V;
layers = (
{
background = {
shapes = (
{
closed = 1;
nodes = (
(355,-13,o),
(370,5,o),
(388,50,cs),
(650,700,l),
(625,700,l),
(369,60,ls),
(357,31,o),
(349,9,o),
(326,9,cs),
(303,9,o),
(296,31,o),
(284,60,cs),
(30,700,l),
(5,700,l),
(265,51,ls),
(284,5,o),
(298,-13,o),
(326,-13,cs)
);
}
);
};
layerId = "5dd0c03f-0ac1-43be-b978-266741ffc02a";
shapes = (
{
closed = 1;
nodes = (
(353,-13,o),
(369,3,o),
(388,50,cs),
(650,700,l),
(625,700,l),
(369,60,ls),
(352,18,o),
(344,9,o),
(326,9,cs),
(308,9,o),
(301,18,o),
(284,60,cs),
(30,700,l),
(5,700,l),
(265,51,ls),
(285,3,o),
(300,-13,o),
(326,-13,cs)
);
}
);
width = 655;
},
{
layerId = "41AFA816-2F69-4745-BF67-F6DEA15443A0";
shapes = (
{
closed = 1;
nodes = (
(406,-12,o),
(460,18,o),
(481,78,cs),
(689,700,l),
(537,700,l),
(362,136,ls),
(359,127,o),
(353,123,o),
(345,123,cs),
(337,123,o),
(331,127,o),
(328,136,cs),
(159,700,l),
(0,700,l),
(209,77,ls),
(231,16,o),
(284,-12,o),
(345,-12,cs)
);
}
);
width = 689;
},
{
background = {
shapes = (
{
closed = 1;
nodes = (
(453,-13,o),
(517,20,o),
(541,88,cs),
(760,700,l),
(534,700,l),
(388,201,ls),
(386,194,o),
(384,192,o),
(380,192,cs),
(377,192,o),
(375,195,o),
(373,201,cs),
(224,700,l),
(0,700,l),
(220,88,ls),
(244,21,o),
(307,-13,o),
(380,-13,cs)
);
}
);
};
layerId = "32E5C913-0890-451E-8980-44FAA246AB8A";
shapes = (
{
closed = 1;
nodes = (
(458,-13,o),
(519,25,o),
(541,88,cs),
(760,700,l),
(534,700,l),
(388,201,ls),
(386,194,o),
(384,192,o),
(380,192,cs),
(377,192,o),
(375,195,o),
(373,201,cs),
(224,700,l),
(0,700,l),
(220,88,ls),
(242,25,o),
(303,-13,o),
(380,-13,cs)
);
}
);
width = 760;
}
);
unicode = 86;
},
{
glyphname = W;
kernLeft = H_2nd;
kernRight = H_1st;
layers = (
{
background = {
shapes = (
{
closed = 1;
nodes = (
(420,-12,o),
(491,22,o),
(540,80,c),
(589,21,o),
(660,-12,o),
(745,-12,cs),
(906,-12,o),
(1021,94,o),
(1021,266,cs),
(1021,700,l),
(878,700,l),
(878,257,ls),
(878,178,o),
(827,114,o),
(745,114,cs),
(663,114,o),
(612,178,o),
(612,257,cs),
(612,700,l),
(469,700,l),
(469,257,ls),
(469,178,o),
(418,114,o),
(336,114,cs),
(254,114,o),
(203,178,o),
(203,257,cs),
(203,700,l),
(60,700,l),
(60,266,ls),
(60,94,o),
(175,-12,o),
(336,-12,cs)
);
}
);
};
layerId = "5dd0c03f-0ac1-43be-b978-266741ffc02a";
shapes = (
{
closed = 1;
nodes = (
(443,-13,o),
(550,42,o),
(579,166,c),
(608,41,o),
(712,-13,o),
(819,-13,cs),
(967,-13,o),
(1071,85,o),
(1071,244,cs),
(1071,700,l),
(1046,700,l),
(1046,241,ls),
(1046,114,o),
(959,10,o),
(819,10,cs),
(679,10,o),
(591,114,o),
(591,241,cs),
(591,700,l),
(566,700,l),
(566,241,ls),
(566,114,o),
(478,10,o),
(338,10,cs),
(197,10,o),
(110,114,o),
(110,241,cs),
(110,700,l),
(85,700,l),
(85,244,ls),
(85,85,o),
(189,-13,o),
(338,-13,cs)
);
}
);
width = 1156;
},
{
layerId = "41AFA816-2F69-4745-BF67-F6DEA15443A0";
shapes = (
{
closed = 1;
nodes = (
(420,-12,o),
(491,22,o),
(540,80,c),
(589,21,o),
(660,-12,o),
(745,-12,cs),
(906,-12,o),
(1021,94,o),
(1021,266,cs),
(1021,700,l),
(878,700,l),
(878,257,ls),
(878,178,o),
(827,114,o),
(745,114,cs),
(663,114,o),
(612,178,o),
(612,257,cs),
(612,700,l),
(469,700,l),
(469,257,ls),
(469,178,o),
(418,114,o),
(336,114,cs),
(254,114,o),
(203,178,o),
(203,257,cs),
(203,700,l),
(60,700,l),
(60,266,ls),
(60,94,o),
(175,-12,o),
(336,-12,cs)
);
}
);
width = 1081;
},
{
layerId = "32E5C913-0890-451E-8980-44FAA246AB8A";
shapes = (
{
closed = 1;
nodes = (
(412,-13,o),
(476,12,o),
(525,55,c),
(573,11,o),
(638,-13,o),
(716,-13,cs),
(887,-13,o),
(1009,95,o),
(1009,270,cs),
(1009,700,l),
(801,700,l),
(801,270,ls),
(801,210,o),
(768,171,o),
(716,171,cs),
(663,171,o),
(631,210,o),
(631,270,cs),
(631,700,l),
(420,700,l),
(420,270,ls),
(420,210,o),
(387,171,o),
(335,171,cs),
(283,171,o),
(250,210,o),
(250,270,cs),
(250,700,l),
(41,700,l),
(41,270,ls),
(41,95,o),
(164,-13,o),
(335,-13,cs)
);
}
);
width = 1050;
}
);
unicode = 87;
},
{
glyphname = X;
kernLeft = X_2nd;
kernRight = X_1st;
layers = (
{
background = {
shapes = (
{
closed = 1;
nodes = (
(90,0,l),
(591,700,l),
(561,700,l),
(60,0,l)
);
},
{
closed = 1;
nodes = (
(593,0,l),
(593,148,ls),
(593,275,o),
(511,380,o),
(331,375,c),
(203,375,o),
(108,479,o),
(108,587,cs),
(108,700,l),
(83,700,l),
(83,600,ls),
(83,442,o),
(205,352,o),
(334,352,cs),
(482,352,o),
(568,270,o),
(568,152,cs),
(568,0,l)
);
}
);
};
layerId = "5dd0c03f-0ac1-43be-b978-266741ffc02a";
shapes = (
{
closed = 1;
nodes = (
(90,0,l),
(342,352,l),
(485,349,o),
(568,268,o),
(568,152,cs),
(568,0,l),
(593,0,l),
(593,148,ls),
(593,268,o),
(519,369,o),
(358,375,c),
(591,700,l),
(561,700,l),
(328,375,l),
(202,376,o),
(108,480,o),
(108,587,cs),
(108,700,l),
(83,700,l),
(83,600,ls),
(83,451,o),
(192,362,o),
(313,353,c),
(60,0,l)
);
}
);
width = 653;
},
{
layerId = "41AFA816-2F69-4745-BF67-F6DEA15443A0";
shapes = (
{
closed = 1;
nodes = (
(219,0,l),
(389,287,l),
(472,287,o),
(518,233,o),
(518,164,cs),
(518,0,l),
(661,0,l),
(661,155,ls),
(661,285,o),
(587,374,o),
(475,403,c),
(658,700,l),
(497,700,l),
(328,414,l),
(263,422,o),
(222,473,o),
(222,536,cs),
(222,700,l),
(79,700,l),
(79,545,ls),
(79,423,o),
(143,338,o),
(241,303,c),
(58,0,l)
);
}
);
width = 703;
},
{
layerId = "32E5C913-0890-451E-8980-44FAA246AB8A";
shapes = (
{
closed = 1;
nodes = (
(251,0,l),
(406,258,l),
(441,251,o),
(468,217,o),
(468,177,cs),
(468,0,l),
(684,0,l),
(684,169,ls),
(684,284,o),
(621,370,o),
(515,409,c),
(696,700,l),
(457,700,l),
(309,453,l),
(282,460,o),
(263,487,o),
(263,521,cs),
(263,700,l),
(47,700,l),
(47,532,ls),
(47,424,o),
(101,343,o),
(195,298,c),
(12,0,l)
);
}
);
width = 708;
}
);
unicode = 88;
},
{
glyphname = Y;
kernLeft = Y_2nd;
kernRight = Y_1st;
layers = (
{
background = {
shapes = (
{
closed = 1;
nodes = (
(511,217,o),
(600,348,o),
(600,496,cs),
(600,699,l),
(575,699,l),
(575,485,ls),
(575,352,o),
(485,242,o),
(343,242,cs),
(200,242,o),
(110,352,o),
(110,485,cs),
(110,699,l),
(85,699,l),
(85,496,ls),
(85,348,o),
(172,217,o),
(342,217,cs)
);
},
{
closed = 1;
nodes = (
(354,0,l),
(354,229,l),
(329,229,l),
(329,0,l)
);
}
);
};
layerId = "5dd0c03f-0ac1-43be-b978-266741ffc02a";
shapes = (
{
closed = 1;
nodes = (
(354,0,l),
(354,217,l),
(521,223,o),
(600,352,o),
(600,496,cs),
(600,699,l),
(575,699,l),
(575,490,ls),
(575,357,o),
(494,240,o),
(343,240,cs),
(191,240,o),
(110,357,o),
(110,490,cs),
(110,699,l),
(85,699,l),
(85,496,ls),
(85,352,o),
(162,224,o),
(329,217,c),
(329,0,l)
);
}
);
width = 685;
},
{
layerId = "41AFA816-2F69-4745-BF67-F6DEA15443A0";
shapes = (
{
closed = 1;
nodes = (
(427,0,l),
(427,193,l),
(558,219,o),
(647,322,o),
(647,474,cs),
(647,700,l),
(504,700,l),
(504,465,ls),
(504,381,o),
(447,312,o),
(356,312,cs),
(265,312,o),
(208,381,o),
(208,465,cs),
(208,700,l),
(65,700,l),
(65,474,ls),
(65,322,o),
(153,220,o),
(284,193,c),
(284,0,l)
);
}
);
width = 712;
},
{
layerId = "32E5C913-0890-451E-8980-44FAA246AB8A";
shapes = (
{
closed = 1;
nodes = (
(454,0,l),
(454,186,l),
(575,221,o),
(651,322,o),
(651,464,cs),
(651,700,l),
(443,700,l),
(443,456,ls),
(443,393,o),
(405,349,o),
(346,349,cs),
(288,349,o),
(251,393,o),
(251,456,cs),
(251,700,l),
(43,700,l),
(43,464,ls),
(43,321,o),
(116,222,o),
(238,186,c),
(238,0,l)
);
}
);
width = 693;
}
);
unicode = 89;
},
{
glyphname = Z;
kernLeft = Z_2nd;
kernRight = Z_1st;
layers = (
{
background = {
shapes = (
{
closed = 1;
nodes = (
(565,0,l),
(565,126,l),
(204,126,ls),
(194,126,o),
(185,135,o),
(185,145,cs),
(185,150,o),
(187,154,o),
(190,157,cs),
(511,441,ls),
(545,471,o),
(560,510,o),
(560,552,cs),
(560,639,o),
(500,700,o),
(411,700,cs),
(52,700,l),
(52,574,l),
(390,574,ls),
(399,574,o),
(409,565,o),
(409,555,cs),
(409,550,o),
(407,546,o),
(404,543,cs),
(87,261,ls),
(49,228,o),
(35,190,o),
(35,148,cs),
(35,61,o),
(95,0,o),
(184,0,cs)
);
}
);
};
layerId = "5dd0c03f-0ac1-43be-b978-266741ffc02a";
shapes = (
{
closed = 1;
nodes = (
(551,0,l),
(551,23,l),
(189,23,ls),
(128,23,o),
(89,74,o),
(89,117,cs),
(89,167,o),
(105,182,o),
(163,225,cs),
(473,452,ls),
(527,491,o),
(558,522,o),
(558,584,cs),
(558,642,o),
(515,700,o),
(433,700,cs),
(94,700,l),
(94,677,l),
(442,677,ls),
(494,677,o),
(533,629,o),
(533,585,cs),
(533,540,o),
(517,514,o),
(464,475,cs),
(146,243,ls),
(90,202,o),
(65,178,o),
(65,121,cs),
(65,58,o),
(111,0,o),
(193,0,cs)
);
}
);
width = 623;
},
{
layerId = "41AFA816-2F69-4745-BF67-F6DEA15443A0";
shapes = (
{
closed = 1;
nodes = (
(565,0,l),
(565,126,l),
(204,126,ls),
(194,126,o),
(185,135,o),
(185,145,cs),
(185,150,o),
(187,154,o),
(190,157,cs),
(511,441,ls),
(545,471,o),
(560,510,o),
(560,552,cs),
(560,639,o),
(500,700,o),
(411,700,cs),
(52,700,l),
(52,574,l),
(390,574,ls),
(399,574,o),
(409,565,o),
(409,555,cs),
(409,550,o),
(407,546,o),
(404,543,cs),
(87,261,ls),
(49,228,o),
(35,190,o),
(35,148,cs),
(35,61,o),
(95,0,o),
(184,0,cs)
);
}
);
width = 600;
},
{
layerId = "32E5C913-0890-451E-8980-44FAA246AB8A";
shapes = (
{
closed = 1;
nodes = (
(595,0,l),
(595,165,l),
(275,165,ls),
(267,165,o),
(262,168,o),
(262,172,cs),
(262,175,o),
(264,177,o),
(267,180,cs),
(531,414,ls),
(572,450,o),
(590,493,o),
(590,536,cs),
(590,633,o),
(518,700,o),
(412,700,cs),
(39,700,l),
(39,534,l),
(341,534,ls),
(348,534,o),
(351,531,o),
(351,528,cs),
(351,526,o),
(350,524,o),
(347,521,cs),
(86,288,ls),
(41,249,o),
(24,207,o),
(24,164,cs),
(24,67,o),
(96,0,o),
(202,0,cs)
);
}
);
width = 619;
}
);
unicode = 90;
},
{
glyphname = A.ss01;
kernLeft = H_2nd;
kernRight = H_1st;
layers = (
{
background = {
shapes = (
{
closed = 1;
nodes = (
(110,0,l),
(110,447,ls),
(110,580,o),
(198,690,o),
(343,690,cs),
(487,690,o),
(575,580,o),
(575,447,cs),
(575,0,l),
(600,0,l),
(600,437,ls),
(600,607,o),
(493,713,o),
(343,713,cs),
(192,713,o),
(85,607,o),
(85,437,cs),
(85,0,l)
);
},
{
closed = 1;
nodes = (
(593,270,l),
(593,294,l),
(93,294,l),
(93,270,l)
);
}
);
};
guides = (
{
angle = 90;
pos = (350,0);
}
);
layerId = "5dd0c03f-0ac1-43be-b978-266741ffc02a";
shapes = (
{
closed = 1;
nodes = (
(110,0,l),
(110,270,l),
(575,270,l),
(575,0,l),
(600,0,l),
(600,437,ls),
(600,607,o),
(493,713,o),
(343,713,cs),
(192,713,o),
(85,607,o),
(85,437,cs),
(85,0,l)
);
},
{
closed = 1;
nodes = (
(110,438,ls),
(110,581,o),
(198,690,o),
(343,690,cs),
(487,690,o),
(575,581,o),
(575,438,cs),
(575,294,l),
(110,294,l)
);
}
);
width = 685;
},
{
guides = (
{
angle = 90;
pos = (350,0);
}
);
layerId = "41AFA816-2F69-4745-BF67-F6DEA15443A0";
shapes = (
{
closed = 1;
nodes = (
(208,0,l),
(208,189,l),
(504,189,l),
(504,0,l),
(647,0,l),
(647,424,ls),
(647,602,o),
(526,712,o),
(356,712,cs),
(186,712,o),
(65,602,o),
(65,424,cs),
(65,0,l)
);
},
{
closed = 1;
nodes = (
(208,433,ls),
(208,517,o),
(265,586,o),
(356,586,cs),
(447,586,o),
(504,517,o),
(504,433,cs),
(504,315,l),
(208,315,l)
);
}
);
width = 712;
},
{
layerId = "32E5C913-0890-451E-8980-44FAA246AB8A";
shapes = (
{
closed = 1;
nodes = (
(255,0,l),
(255,166,l),
(455,166,l),
(455,0,l),
(667,0,l),
(667,419,ls),
(667,600,o),
(537,712,o),
(355,712,cs),
(171,712,o),
(43,600,o),
(43,419,cs),
(43,0,l)
);
},
{
closed = 1;
nodes = (
(255,428,ls),
(255,493,o),
(293,539,o),
(355,539,cs),
(415,539,o),
(455,493,o),
(455,428,cs),
(455,335,l),
(255,335,l)
);
}
);
width = 709;
}
);
},
{
glyphname = Aogonek.ss01;
kernLeft = H_2nd;
kernRight = H_1st;
layers = (
{
background = {
shapes = (
{
closed = 1;
nodes = (
(573,-215,o),
(586,-213,o),
(599,-208,c),
(599,-187,l),
(586,-192,o),
(573,-194,o),
(561,-194,cs),
(529,-194,o),
(503,-177,o),
(503,-142,cs),
(503,-83,o),
(592,-7,o),
(600,0,c),
(581,13,l),
(574,7,o),
(478,-76,o),
(478,-141,cs),
(478,-185,o),
(515,-215,o),
(560,-215,cs)
);
}
);
};
layerId = "5dd0c03f-0ac1-43be-b978-266741ffc02a";
shapes = (
{
closed = 1;
nodes = (
(573,-215,o),
(586,-213,o),
(599,-208,c),
(599,-187,l),
(586,-192,o),
(573,-194,o),
(561,-194,cs),
(529,-194,o),
(503,-177,o),
(503,-142,cs),
(503,-105,o),
(540,-52,o),
(600,0,c),
(581,13,l),
(517,-43,o),
(478,-101,o),
(478,-141,cs),
(478,-185,o),
(515,-215,o),
(560,-215,cs)
);
},
{
ref = A.ss01;
}
);
width = 685;
},
{
background = {
shapes = (
{
closed = 1;
nodes = (
(609,-218,o),
(633,-215,o),
(647,-211,c),
(647,-126,l),
(633,-131,o),
(619,-134,o),
(604,-134,cs),
(573,-134,o),
(549,-112,o),
(549,-80,cs),
(549,-29,o),
(598,57,o),
(604,66,c),
(569,86,l),
(562,78,o),
(464,-33,o),
(464,-104,cs),
(464,-181,o),
(523,-218,o),
(595,-218,cs)
);
}
);
};
layerId = "41AFA816-2F69-4745-BF67-F6DEA15443A0";
shapes = (
{
closed = 1;
nodes = (
(609,-218,o),
(633,-215,o),
(647,-211,c),
(647,-126,l),
(633,-131,o),
(619,-134,o),
(604,-134,cs),
(573,-134,o),
(549,-112,o),
(549,-80,cs),
(549,-48,o),
(572,13,o),
(604,66,c),
(569,86,l),
(508,19,o),
(464,-61,o),
(464,-104,cs),
(464,-181,o),
(523,-218,o),
(595,-218,cs)
);
},
{
alignment = -1;
ref = A.ss01;
}
);
width = 712;
},
{
background = {
shapes = (
{
closed = 1;
nodes = (
(617,-219,o),
(649,-215,o),
(667,-210,c),
(667,-117,l),
(655,-121,o),
(639,-124,o),
(622,-124,cs),
(588,-124,o),
(570,-104,o),
(570,-77,cs),
(570,-29,o),
(633,62,o),
(637,69,c),
(580,95,l),
(573,87,o),
(460,-26,o),
(460,-106,cs),
(460,-186,o),
(518,-219,o),
(595,-219,cs)
);
}
);
};
layerId = "32E5C913-0890-451E-8980-44FAA246AB8A";
shapes = (
{
closed = 1;
nodes = (
(617,-219,o),
(649,-215,o),
(667,-210,c),
(667,-117,l),
(655,-121,o),
(639,-124,o),
(622,-124,cs),
(588,-124,o),
(570,-104,o),
(570,-77,cs),
(570,-48,o),
(598,13,o),
(637,69,c),
(580,95,l),
(510,27,o),
(460,-57,o),
(460,-106,cs),
(460,-186,o),
(518,-219,o),
(595,-219,cs)
);
},
{
alignment = -1;
ref = A.ss01;
}
);
width = 709;
}
);
metricLeft = A.ss01;
metricRight = A.ss01;
},
{
glyphname = E.ss01;
kernLeft = H_2nd;
kernRight = E_1st;
layers = (
{
background = {
shapes = (
{
closed = 1;
nodes = (
(498,0,l),
(498,24,l),
(260,24,ls),
(154,24,o),
(85,95,o),
(85,185,c),
(84,243,o),
(105,296,o),
(140,338,c),
(195,286,o),
(274,254,o),
(357,254,cs),
(444,254,o),
(496,296,o),
(496,360,cs),
(496,410,o),
(451,461,o),
(353,461,cs),
(271,461,o),
(195,428,o),
(140,374,c),
(108,412,o),
(89,459,o),
(89,512,cs),
(89,614,o),
(154,676,o),
(264,676,cs),
(498,676,l),
(498,700,l),
(267,700,ls),
(157,700,o),
(64,648,o),
(64,509,cs),
(64,450,o),
(86,398,o),
(123,356,c),
(84,310,o),
(60,252,o),
(60,188,cs),
(60,73,o),
(146,0,o),
(263,0,cs)
);
},
{
closed = 1;
nodes = (
(281,277,o),
(207,307,o),
(156,357,c),
(207,408,o),
(278,440,o),
(353,439,cs),
(428,438,o),
(471,403,o),
(471,358,cs),
(471,309,o),
(431,277,o),
(357,277,cs)
);
}
);
};
layerId = "5dd0c03f-0ac1-43be-b978-266741ffc02a";
shapes = (
{
closed = 1;
nodes = (
(498,0,l),
(498,24,l),
(260,24,ls),
(154,24,o),
(85,95,o),
(85,185,cs),
(84,243,o),
(105,296,o),
(140,338,c),
(195,286,o),
(274,254,o),
(357,254,cs),
(444,254,o),
(496,296,o),
(496,360,cs),
(496,410,o),
(451,461,o),
(353,461,cs),
(271,461,o),
(195,428,o),
(140,374,c),
(108,412,o),
(89,459,o),
(89,512,cs),
(89,614,o),
(154,676,o),
(264,676,cs),
(498,676,l),
(498,700,l),
(267,700,ls),
(157,700,o),
(64,648,o),
(64,509,cs),
(64,450,o),
(86,398,o),
(123,356,c),
(84,310,o),
(60,252,o),
(60,188,cs),
(60,73,o),
(146,0,o),
(263,0,cs)
);
},
{
closed = 1;
nodes = (
(281,277,o),
(207,307,o),
(156,357,c),
(207,408,o),
(278,439,o),
(353,439,cs),
(428,439,o),
(471,403,o),
(471,358,cs),
(471,309,o),
(431,277,o),
(357,277,cs)
);
}
);
width = 548;
},
{
layerId = "41AFA816-2F69-4745-BF67-F6DEA15443A0";
shapes = (
{
closed = 1;
nodes = (
(533,0,l),
(533,126,l),
(261,126,ls),
(228,126,o),
(183,156,o),
(183,209,cs),
(183,233,o),
(190,254,o),
(201,273,c),
(253,235,o),
(314,212,o),
(367,212,cs),
(483,212,o),
(521,290,o),
(521,352,cs),
(521,414,o),
(483,494,o),
(367,494,cs),
(314,494,o),
(253,470,o),
(200,431,c),
(189,451,o),
(183,471,o),
(183,495,cs),
(183,532,o),
(211,574,o),
(261,574,cs),
(533,574,l),
(533,700,l),
(271,700,ls),
(166,700,o),
(41,650,o),
(41,499,cs),
(41,446,o),
(66,393,o),
(107,353,c),
(64,311,o),
(41,256,o),
(41,204,cs),
(41,83,o),
(129,0,o),
(271,0,cs)
);
},
{
closed = 1;
nodes = (
(342,326,o),
(306,332,o),
(273,353,c),
(305,373,o),
(342,380,o),
(366,380,cs),
(394,380,o),
(407,368,o),
(407,353,cs),
(407,338,o),
(394,326,o),
(366,326,cs)
);
}
);
width = 572;
},
{
layerId = "32E5C913-0890-451E-8980-44FAA246AB8A";
shapes = (
{
closed = 1;
nodes = (
(569,0,l),
(569,165,l),
(303,165,ls),
(266,165,o),
(243,184,o),
(243,217,cs),
(243,223,o),
(244,229,o),
(248,234,c),
(287,218,o),
(331,211,o),
(373,211,cs),
(512,211,o),
(549,292,o),
(549,352,cs),
(549,412,o),
(512,494,o),
(373,494,cs),
(331,494,o),
(287,487,o),
(247,470,c),
(244,475,o),
(243,481,o),
(243,488,cs),
(243,510,o),
(259,535,o),
(303,535,cs),
(569,535,l),
(569,700,l),
(284,700,ls),
(168,700,o),
(29,647,o),
(29,489,cs),
(29,442,o),
(51,394,o),
(87,353,c),
(50,310,o),
(29,259,o),
(29,214,cs),
(29,87,o),
(127,0,o),
(284,0,cs)
);
},
{
closed = 1;
nodes = (
(316,325,o),
(284,344,o),
(276,353,c),
(284,362,o),
(314,380,o),
(357,380,cs),
(386,380,o),
(401,370,o),
(401,353,cs),
(401,336,o),
(387,325,o),
(357,325,cs)
);
}
);
width = 605;
}
);
},
{
glyphname = Eogonek.ss01;
kernLeft = H_2nd;
kernRight = E_1st;
layers = (
{
background = {
shapes = (
{
closed = 1;
nodes = (
(398,14,l),
(373,-23,o),
(349,-69,o),
(349,-111,cs),
(349,-181,o),
(398,-218,o),
(471,-218,cs),
(497,-218,o),
(516,-212,o),
(522,-210,c),
(522,-185,l),
(501,-191,o),
(484,-194,o),
(468,-194,cs),
(410,-194,o),
(375,-164,o),
(375,-113,cs),
(375,-71,o),
(401,-23,o),
(427,14,c)
);
},
{
closed = 1;
nodes = (
(427,14,l),
(450,46,o),
(472,70,o),
(476,74,c),
(457,86,l),
(453,82,o),
(425,53,o),
(398,14,c)
);
}
);
};
layerId = "5dd0c03f-0ac1-43be-b978-266741ffc02a";
shapes = (
{
closed = 1;
nodes = (
(473,-218,o),
(492,-212,o),
(498,-210,c),
(498,-185,l),
(477,-191,o),
(460,-194,o),
(444,-194,cs),
(386,-194,o),
(351,-164,o),
(351,-113,cs),
(351,-71,o),
(377,-23,o),
(403,14,c),
(374,14,l),
(349,-23,o),
(325,-69,o),
(325,-111,cs),
(325,-181,o),
(374,-218,o),
(447,-218,cs)
);
},
{
ref = E.ss01;
}
);
width = 548;
},
{
background = {
shapes = (
{
closed = 1;
nodes = (
(494,-218,o),
(518,-215,o),
(532,-211,c),
(532,-126,l),
(518,-131,o),
(504,-134,o),
(489,-134,cs),
(458,-134,o),
(434,-112,o),
(434,-80,cs),
(434,-29,o),
(493,57,o),
(499,66,c),
(464,86,l),
(457,78,o),
(349,-33,o),
(349,-104,cs),
(349,-181,o),
(408,-218,o),
(480,-218,cs)
);
}
);
};
layerId = "41AFA816-2F69-4745-BF67-F6DEA15443A0";
shapes = (
{
closed = 1;
nodes = (
(494,-218,o),
(518,-215,o),
(532,-211,c),
(532,-126,l),
(518,-131,o),
(504,-134,o),
(489,-134,cs),
(458,-134,o),
(434,-112,o),
(434,-80,cs),
(434,-48,o),
(461,13,o),
(499,66,c),
(464,86,l),
(397,19,o),
(349,-61,o),
(349,-104,cs),
(349,-181,o),
(408,-218,o),
(480,-218,cs)
);
},
{
alignment = -1;
ref = E.ss01;
}
);
width = 572;
},
{
background = {
shapes = (
{
closed = 1;
nodes = (
(519,-219,o),
(551,-215,o),
(569,-210,c),
(569,-117,l),
(557,-121,o),
(541,-124,o),
(524,-124,cs),
(490,-124,o),
(472,-104,o),
(472,-77,cs),
(472,-29,o),
(537,62,o),
(542,69,c),
(485,95,l),
(478,87,o),
(363,-26,o),
(362,-106,cs),
(361,-186,o),
(420,-219,o),
(497,-219,cs)
);
}
);
};
layerId = "32E5C913-0890-451E-8980-44FAA246AB8A";
shapes = (
{
closed = 1;
nodes = (
(519,-219,o),
(551,-215,o),
(569,-210,c),
(569,-117,l),
(557,-121,o),
(541,-124,o),
(524,-124,cs),
(490,-124,o),
(472,-104,o),
(472,-77,cs),
(472,-29,o),
(537,62,o),
(542,69,c),
(485,95,l),
(478,87,o),
(362,-26,o),
(362,-106,cs),
(362,-186,o),
(420,-219,o),
(497,-219,cs)
);
},
{
alignment = -1;
ref = E.ss01;
}
);
width = 605;
}
);
metricLeft = E.ss01;
metricRight = E.ss01;
},
{
glyphname = G.ss01;
kernLeft = O_2nd;
kernRight = H_1st;
layers = (
{
background = {
shapes = (
{
closed = 1;
nodes = (
(60,158,o),
(201,4,o),
(419,0,c),
(520,0,l),
(520,-203,l),
(663,-203,l),
(663,405,l),
(397,405,l),
(397,279,l),
(520,279,l),
(520,126,l),
(422,126,l),
(295,128,o),
(203,222,o),
(203,350,cs),
(203,477,o),
(295,572,o),
(422,574,c),
(639,574,l),
(639,700,l),
(419,700,l),
(201,696,o),
(60,542,o),
(60,350,cs)
);
}
);
};
layerId = "5dd0c03f-0ac1-43be-b978-266741ffc02a";
shapes = (
{
closed = 1;
nodes = (
(629,-239,l),
(629,352,l),
(457,352,l),
(457,328,l),
(601,328,l),
(601,24,l),
(413,24,ls),
(223,24,o),
(87,164,o),
(87,350,cs),
(87,534,o),
(225,676,o),
(415,676,cs),
(610,676,l),
(610,699,l),
(413,699,ls),
(202,699,o),
(60,539,o),
(60,350,cs),
(60,160,o),
(202,0,o),
(413,0,cs),
(601,0,l),
(601,-239,l)
);
}
);
width = 714;
},
{
layerId = "41AFA816-2F69-4745-BF67-F6DEA15443A0";
shapes = (
{
closed = 1;
nodes = (
(633,-203,l),
(633,405,l),
(367,405,l),
(367,279,l),
(490,279,l),
(490,126,l),
(392,126,ls),
(265,126,o),
(173,222,o),
(173,350,cs),
(173,477,o),
(265,574,o),
(392,574,cs),
(609,574,l),
(609,700,l),
(389,700,ls),
(171,700,o),
(30,542,o),
(30,350,cs),
(30,158,o),
(171,0,o),
(389,0,cs),
(490,0,l),
(490,-203,l)
);
}
);
width = 698;
},
{
layerId = "32E5C913-0890-451E-8980-44FAA246AB8A";
shapes = (
{
closed = 1;
nodes = (
(686,-203,l),
(686,419,l),
(382,419,l),
(382,254,l),
(482,254,l),
(482,165,l),
(409,165,ls),
(307,165,o),
(246,245,o),
(246,350,cs),
(246,454,o),
(307,535,o),
(409,535,cs),
(655,535,l),
(655,700,l),
(402,700,ls),
(174,700,o),
(26,558,o),
(26,350,cs),
(26,142,o),
(173,0,o),
(402,0,cs),
(482,0,l),
(482,-203,l)
);
}
);
width = 729;
}
);
},
{
glyphname = J.ss01;
kernLeft = J_2nd;
kernRight = H_1st;
layers = (
{
background = {
shapes = (
{
closed = 1;
nodes = (
(105,573,l),
(283,573,l),
(283,192,ls),
(283,156,o),
(254,126,o),
(218,126,cs),
(18,126,l),
(18,0,l),
(218,0,ls),
(343,0,o),
(426,94,o),
(426,209,cs),
(426,700,l),
(105,700,l)
);
}
);
};
layerId = "5dd0c03f-0ac1-43be-b978-266741ffc02a";
shapes = (
{
closed = 1;
nodes = (
(205,0,ls),
(301,0,o),
(355,59,o),
(355,154,cs),
(355,700,l),
(132,700,l),
(132,677,l),
(330,677,l),
(330,149,ls),
(330,74,o),
(284,23,o),
(203,23,cs),
(45,23,l),
(45,0,l)
);
}
);
width = 440;
},
{
layerId = "41AFA816-2F69-4745-BF67-F6DEA15443A0";
shapes = (
{
closed = 1;
nodes = (
(235,0,ls),
(360,0,o),
(443,94,o),
(443,209,cs),
(443,700,l),
(122,700,l),
(122,573,l),
(300,573,l),
(300,192,ls),
(300,156,o),
(271,126,o),
(235,126,cs),
(35,126,l),
(35,0,l)
);
}
);
width = 501;
},
{
layerId = "32E5C913-0890-451E-8980-44FAA246AB8A";
shapes = (
{
closed = 1;
nodes = (
(198,0,ls),
(332,0,o),
(430,93,o),
(430,219,cs),
(430,700,l),
(73,700,l),
(73,531,l),
(221,531,l),
(221,207,ls),
(221,185,o),
(204,168,o),
(183,168,cs),
(24,168,l),
(24,0,l)
);
}
);
width = 470;
}
);
},
{
glyphname = K.ss01;
kernLeft = H_2nd;
kernRight = K_1st;
layers = (
{
layerId = "5dd0c03f-0ac1-43be-b978-266741ffc02a";
shapes = (
{
closed = 1;
nodes = (
(110,0,l),
(110,345,l),
(362,345,l),
(591,0,l),
(622,0,l),
(380,358,l),
(614,700,l),
(585,700,l),
(359,368,l),
(110,368,l),
(110,700,l),
(85,700,l),
(85,0,l)
);
}
);
width = 637;
},
{
layerId = "41AFA816-2F69-4745-BF67-F6DEA15443A0";
shapes = (
{
closed = 1;
nodes = (
(213,0,l),
(213,293,l),
(339,293,l),
(521,0,l),
(691,0,l),
(456,364,l),
(685,700,l),
(520,700,l),
(336,419,l),
(213,419,l),
(213,700,l),
(70,700,l),
(70,0,l)
);
}
);
width = 691;
},
{
layerId = "32E5C913-0890-451E-8980-44FAA246AB8A";
shapes = (
{
closed = 1;
nodes = (
(260,0,l),
(260,269,l),
(352,269,l),
(482,0,l),
(728,0,l),
(537,373,l),
(712,700,l),
(479,700,l),
(351,438,l),
(260,438,l),
(260,700,l),
(44,700,l),
(44,0,l)
);
}
);
width = 732;
}
);
},
{
glyphname = L.ss01;
kernLeft = H_2nd;
kernRight = L_1st;
layers = (
{
background = {
shapes = (
{
closed = 1;
nodes = (
(266,126,ls),
(230,126,o),
(201,156,o),
(201,192,cs),
(201,700,l),
(58,700,l),
(58,209,ls),
(58,94,o),
(141,0,o),
(266,0,cs),
(336,0,l),
(336,126,l)
);
}
);
};
layerId = "5dd0c03f-0ac1-43be-b978-266741ffc02a";
shapes = (
{
closed = 1;
nodes = (
(277,0,l),
(277,23,l),
(237,23,ls),
(156,23,o),
(110,74,o),
(110,149,cs),
(110,700,l),
(85,700,l),
(85,154,ls),
(85,59,o),
(139,0,o),
(235,0,cs)
);
}
);
width = 356;
},
{
layerId = "41AFA816-2F69-4745-BF67-F6DEA15443A0";
shapes = (
{
closed = 1;
nodes = (
(336,0,l),
(336,126,l),
(266,126,ls),
(230,126,o),
(201,156,o),
(201,192,cs),
(201,700,l),
(58,700,l),
(58,209,ls),
(58,94,o),
(141,0,o),
(266,0,cs)
);
}
);
width = 356;
},
{
layerId = "32E5C913-0890-451E-8980-44FAA246AB8A";
shapes = (
{
closed = 1;
nodes = (
(401,0,l),
(401,169,l),
(303,169,ls),
(276,169,o),
(257,191,o),
(257,217,cs),
(257,700,l),
(41,700,l),
(41,219,ls),
(41,99,o),
(134,0,o),
(276,0,cs)
);
}
);
width = 417;
}
);
},
{
glyphname = Lslash.ss01;
kernLeft = H_2nd;
kernRight = L_1st;
layers = (
{
background = {
shapes = (
{
closed = 1;
nodes = (
(324,424,l),
(324,448,l),
(1,371,l),
(1,347,l)
);
}
);
};
layerId = "5dd0c03f-0ac1-43be-b978-266741ffc02a";
shapes = (
{
closed = 1;
nodes = (
(324,424,l),
(324,448,l),
(1,371,l),
(1,347,l)
);
},
{
ref = L.ss01;
}
);
width = 356;
},
{
background = {
shapes = (
{
closed = 1;
nodes = (
(324,389,l),
(324,468,l),
(1,391,l),
(1,312,l)
);
}
);
};
layerId = "41AFA816-2F69-4745-BF67-F6DEA15443A0";
shapes = (
{
closed = 1;
nodes = (
(324,389,l),
(324,468,l),
(1,391,l),
(1,312,l)
);
},
{
ref = L.ss01;
}
);
width = 356;
},
{
layerId = "32E5C913-0890-451E-8980-44FAA246AB8A";
shapes = (
{
closed = 1;
nodes = (
(368,394,l),
(368,508,l),
(-9,411,l),
(-9,297,l)
);
},
{
alignment = -1;
ref = L.ss01;
}
);
width = 417;
}
);
},
{
glyphname = M.ss01;
kernLeft = H_2nd;
kernRight = P_1st;
layers = (
{
background = {
shapes = (
{
closed = 1;
nodes = (
(641,77,o),
(707,152,o),
(707,256,cs),
(707,541,ls),
(707,623,o),
(767,690,o),
(846,690,cs),
(923,690,o),
(984,623,o),
(984,541,cs),
(984,0,l),
(1011,0,l),
(1011,534,ls),
(1011,638,o),
(940,713,o),
(846,713,cs),
(750,713,o),
(680,638,o),
(680,534,cs),
(680,249,ls),
(680,165,o),
(621,100,o),
(549,100,cs),
(477,100,o),
(414,165,o),
(414,249,cs),
(414,534,ls),
(414,638,o),
(343,713,o),
(249,713,cs),
(153,713,o),
(83,638,o),
(83,534,cs),
(83,0,l),
(110,0,l),
(110,541,ls),
(110,623,o),
(172,690,o),
(249,690,cs),
(324,690,o),
(387,623,o),
(387,541,cs),
(387,256,ls),
(387,152,o),
(457,77,o),
(549,77,cs)
);
}
);
};
layerId = "5dd0c03f-0ac1-43be-b978-266741ffc02a";
shapes = (
{
closed = 1;
nodes = (
(110,0,l),
(110,541,ls),
(110,623,o),
(172,690,o),
(249,690,cs),
(324,690,o),
(388,623,o),
(388,541,cs),
(388,256,ls),
(388,152,o),
(457,77,o),
(549,77,cs),
(641,77,o),
(706,152,o),
(706,256,cs),
(706,541,ls),
(706,623,o),
(767,690,o),
(846,690,cs),
(923,690,o),
(984,623,o),
(984,541,cs),
(984,0,l),
(1009,0,l),
(1009,534,ls),
(1009,638,o),
(940,713,o),
(846,713,cs),
(750,713,o),
(681,638,o),
(681,534,cs),
(681,249,ls),
(681,165,o),
(621,100,o),
(549,100,cs),
(477,100,o),
(413,165,o),
(413,249,cs),
(413,534,ls),
(413,638,o),
(343,713,o),
(249,713,cs),
(153,713,o),
(85,638,o),
(85,534,cs),
(85,0,l)
);
}
);
width = 1094;
},
{
layerId = "41AFA816-2F69-4745-BF67-F6DEA15443A0";
shapes = (
{
closed = 1;
nodes = (
(203,0,l),
(203,520,ls),
(203,556,o),
(232,586,o),
(268,586,cs),
(304,586,o),
(334,556,o),
(334,520,cs),
(334,263,ls),
(334,148,o),
(417,54,o),
(542,54,cs),
(667,54,o),
(751,149,o),
(751,263,cs),
(751,520,ls),
(751,556,o),
(781,586,o),
(817,586,cs),
(853,586,o),
(882,556,o),
(882,520,cs),
(882,0,l),
(1025,0,l),
(1025,503,ls),
(1025,618,o),
(942,712,o),
(817,712,cs),
(692,712,o),
(608,618,o),
(608,503,cs),
(608,246,ls),
(608,210,o),
(578,180,o),
(542,180,cs),
(506,180,o),
(477,209,o),
(477,246,cs),
(477,503,ls),
(477,618,o),
(393,712,o),
(268,712,cs),
(143,712,o),
(60,618,o),
(60,503,cs),
(60,0,l)
);
}
);
width = 1085;
},
{
layerId = "32E5C913-0890-451E-8980-44FAA246AB8A";
shapes = (
{
closed = 1;
nodes = (
(247,0,l),
(247,486,ls),
(247,512,o),
(265,528,o),
(289,528,cs),
(312,528,o),
(330,512,o),
(330,486,cs),
(330,282,ls),
(330,135,o),
(448,54,o),
(577,54,cs),
(705,54,o),
(824,136,o),
(824,282,cs),
(824,489,ls),
(824,512,o),
(843,528,o),
(866,528,cs),
(887,528,o),
(907,512,o),
(907,489,cs),
(907,0,l),
(1112,0,l),
(1112,484,ls),
(1112,629,o),
(994,713,o),
(866,713,cs),
(737,713,o),
(619,629,o),
(619,484,cs),
(619,280,ls),
(619,253,o),
(598,237,o),
(576,237,cs),
(556,237,o),
(536,253,o),
(536,280,cs),
(536,484,ls),
(536,629,o),
(418,713,o),
(289,713,cs),
(158,713,o),
(41,629,o),
(41,484,cs),
(41,0,l)
);
}
);
width = 1153;
}
);
},
{
glyphname = N.ss01;
kernLeft = H_2nd;
kernRight = P_1st;
layers = (
{
background = {
shapes = (
{
closed = 1;
nodes = (
(65,0,l),
(208,0,l),
(208,433,ls),
(208,517,o),
(265,586,o),
(356,586,cs),
(447,586,o),
(504,517,o),
(504,433,cs),
(504,0,l),
(647,0,l),
(647,424,ls),
(647,602,o),
(526,712,o),
(356,712,cs),
(186,712,o),
(65,602,o),
(65,424,cs)
);
}
);
};
layerId = "5dd0c03f-0ac1-43be-b978-266741ffc02a";
shapes = (
{
closed = 1;
nodes = (
(110,0,l),
(110,447,ls),
(110,580,o),
(199,689,o),
(343,689,cs),
(486,689,o),
(575,580,o),
(575,447,cs),
(575,0,l),
(600,0,l),
(600,436,ls),
(600,607,o),
(493,713,o),
(343,713,cs),
(192,713,o),
(85,607,o),
(85,436,cs),
(85,0,l)
);
}
);
width = 685;
},
{
layerId = "41AFA816-2F69-4745-BF67-F6DEA15443A0";
shapes = (
{
closed = 1;
nodes = (
(208,0,l),
(208,433,ls),
(208,517,o),
(265,586,o),
(356,586,cs),
(447,586,o),
(504,517,o),
(504,433,cs),
(504,0,l),
(647,0,l),
(647,424,ls),
(647,602,o),
(526,712,o),
(356,712,cs),
(186,712,o),
(65,602,o),
(65,424,cs),
(65,0,l)
);
}
);
width = 712;
},
{
layerId = "32E5C913-0890-451E-8980-44FAA246AB8A";
shapes = (
{
closed = 1;
nodes = (
(255,0,l),
(255,428,ls),
(255,493,o),
(294,539,o),
(355,539,cs),
(416,539,o),
(455,493,o),
(455,428,cs),
(455,0,l),
(667,0,l),
(667,419,ls),
(667,600,o),
(538,712,o),
(355,712,cs),
(173,712,o),
(43,600,o),
(43,419,cs),
(43,0,l)
);
}
);
width = 709;
}
);
},
{
glyphname = Eng.ss01;
kernLeft = H_2nd;
kernRight = H_1st;
layers = (
{
layerId = "5dd0c03f-0ac1-43be-b978-266741ffc02a";
shapes = (
{
closed = 1;
nodes = (
(454,-216,ls),
(545,-216,o),
(600,-161,o),
(600,-71,cs),
(600,100,l),
(575,100,l),
(575,-61,ls),
(575,-146,o),
(534,-193,o),
(448,-193,cs),
(412,-193,l),
(412,-216,l)
);
},
{
ref = N.ss01;
}
);
width = 685;
},
{
layerId = "41AFA816-2F69-4745-BF67-F6DEA15443A0";
shapes = (
{
closed = 1;
nodes = (
(470,-216,ls),
(590,-216,o),
(647,-131,o),
(647,-26,cs),
(647,100,l),
(504,100,l),
(504,-13,ls),
(504,-61,o),
(476,-88,o),
(438,-88,cs),
(372,-88,l),
(372,-216,l)
);
},
{
alignment = -1;
ref = N.ss01;
}
);
width = 712;
},
{
layerId = "32E5C913-0890-451E-8980-44FAA246AB8A";
shapes = (
{
closed = 1;
nodes = (
(484,-216,ls),
(607,-216,o),
(667,-131,o),
(667,-26,cs),
(667,100,l),
(455,100,l),
(455,-19,ls),
(455,-51,o),
(435,-66,o),
(407,-66,cs),
(314,-66,l),
(314,-216,l)
);
},
{
alignment = -1;
ref = N.ss01;
}
);
width = 709;
}
);
metricLeft = N.ss01;
metricRight = N.ss01;
},
{
glyphname = O.ss01;
kernLeft = O_2nd;
kernRight = O.alt1_1st;
layers = (
{
background = {
shapes = (
{
closed = 1;
nodes = (
(637,-13,o),
(778,146.332,o),
(778,343.733,cs),
(778,522,o),
(661,667,o),
(472,693,c),
(463,694,o),
(449,696,o),
(419,700,c),
(202,700,o),
(60,541.134,o),
(60,343.733,cs),
(60,146.332,o),
(202,-13,o),
(419,-13,cs)
);
},
{
closed = 1;
nodes = (
(226,10,o),
(85,152,o),
(85,343.733,cs),
(85,533,o),
(226,677,o),
(419,677,cs),
(612,677,o),
(753,534,o),
(753,343.733,cs),
(753,152,o),
(612,10,o),
(419,10,cs)
);
},
{
closed = 1;
nodes = (
(419,677,l),
(803,677,l),
(803,700,l),
(419,700,l)
);
}
);
};
layerId = "5dd0c03f-0ac1-43be-b978-266741ffc02a";
shapes = (
{
closed = 1;
nodes = (
(637,-13,o),
(778,146,o),
(778,344,cs),
(778,499,o),
(689,629,o),
(542,677,c),
(803,677,l),
(803,700,l),
(419,700,ls),
(202,700,o),
(60,541,o),
(60,344,cs),
(60,146,o),
(202,-13,o),
(419,-13,cs)
);
},
{
closed = 1;
nodes = (
(226,10,o),
(85,152,o),
(85,344,cs),
(85,533,o),
(226,677,o),
(419,677,cs),
(612,677,o),
(753,534,o),
(753,344,cs),
(753,152,o),
(612,10,o),
(419,10,cs)
);
}
);
width = 838;
},
{
layerId = "41AFA816-2F69-4745-BF67-F6DEA15443A0";
shapes = (
{
closed = 1;
nodes = (
(620,-12,o),
(764,148,o),
(764,344,cs),
(764,432,o),
(731,512,o),
(674,574,c),
(770,574,l),
(770,700,l),
(397,700,ls),
(174,700,o),
(30,542,o),
(30,344,cs),
(30,148,o),
(174,-12,o),
(397,-12,cs)
);
},
{
closed = 1;
nodes = (
(268,114,o),
(173,214,o),
(173,344,cs),
(173,478,o),
(268,573,o),
(397,573,cs),
(526,573,o),
(621,478,o),
(621,344,cs),
(621,214,o),
(526,114,o),
(397,114,cs)
);
}
);
width = 794;
},
{
layerId = "32E5C913-0890-451E-8980-44FAA246AB8A";
shapes = (
{
closed = 1;
nodes = (
(627,-13,o),
(784,140,o),
(784,344,cs),
(784,414,o),
(764,478,o),
(729,531,c),
(804,531,l),
(804,700,l),
(405,700,ls),
(183,700,o),
(26,549,o),
(26,344,cs),
(26,140,o),
(183,-13,o),
(405,-13,cs)
);
},
{
closed = 1;
nodes = (
(306,159,o),
(244,241,o),
(244,344,cs),
(244,447,o),
(306,529,o),
(405,529,cs),
(504,529,o),
(566,447,o),
(566,344,cs),
(566,241,o),
(504,159,o),
(405,159,cs)
);
}
);
width = 810;
}
);
},
{
glyphname = Oogonek.ss01;
kernLeft = O_2nd;
kernRight = O_1st;
layers = (
{
background = {
shapes = (
{
closed = 1;
nodes = (
(408,-1,l),
(384,-37,o),
(363,-80,o),
(363,-119,cs),
(363,-189,o),
(412,-226,o),
(485,-226,cs),
(511,-226,o),
(530,-220,o),
(536,-218,c),
(536,-193,l),
(515,-199,o),
(498,-202,o),
(482,-202,cs),
(424,-202,o),
(389,-172,o),
(389,-121,cs),
(389,-81,o),
(412,-36,o),
(437,-1,c)
);
},
{
closed = 1;
nodes = (
(437,-1,l),
(461,35,o),
(486,62,o),
(490,66,c),
(471,78,l),
(467,74,o),
(436,41,o),
(408,-1,c)
);
}
);
};
layerId = "5dd0c03f-0ac1-43be-b978-266741ffc02a";
shapes = (
{
closed = 1;
nodes = (
(539,-226,o),
(558,-220,o),
(564,-218,c),
(564,-193,l),
(543,-199,o),
(526,-202,o),
(510,-202,cs),
(452,-202,o),
(417,-172,o),
(417,-121,cs),
(417,-81,o),
(440,-36,o),
(465,-1,c),
(436,-1,l),
(412,-37,o),
(391,-80,o),
(391,-119,cs),
(391,-189,o),
(440,-226,o),
(513,-226,cs)
);
},
{
ref = O.ss01;
}
);
width = 838;
},
{
background = {
shapes = (
{
alignment = -1;
ref = O;
},
{
alignment = -1;
pos = (312,-8);
ref = ogonek;
}
);
};
layerId = "41AFA816-2F69-4745-BF67-F6DEA15443A0";
shapes = (
{
closed = 1;
nodes = (
(464,-226,o),
(488,-223,o),
(502,-219,c),
(502,-134,l),
(488,-139,o),
(474,-142,o),
(459,-142,cs),
(428,-142,o),
(404,-120,o),
(404,-88,cs),
(404,-37,o),
(463,49,o),
(469,58,c),
(434,78,l),
(427,70,o),
(319,-41,o),
(319,-112,cs),
(319,-189,o),
(378,-226,o),
(450,-226,cs)
);
},
{
alignment = -1;
ref = O.ss01;
}
);
width = 794;
},
{
background = {
shapes = (
{
closed = 1;
nodes = (
(464,-227,o),
(496,-223,o),
(514,-218,c),
(514,-125,l),
(502,-129,o),
(486,-132,o),
(470,-132,cs),
(436,-132,o),
(418,-112,o),
(418,-85,cs),
(418,-37,o),
(483,54,o),
(487,61,c),
(430,87,l),
(423,79,o),
(308,-34,o),
(307,-114,cs),
(306,-194,o),
(365,-227,o),
(443,-227,cs)
);
}
);
};
layerId = "32E5C913-0890-451E-8980-44FAA246AB8A";
shapes = (
{
closed = 1;
nodes = (
(464,-227,o),
(496,-223,o),
(514,-218,c),
(514,-125,l),
(502,-129,o),
(486,-132,o),
(470,-132,cs),
(436,-132,o),
(418,-112,o),
(418,-85,cs),
(418,-37,o),
(483,54,o),
(487,61,c),
(430,87,l),
(423,79,o),
(307,-34,o),
(307,-114,cs),
(307,-194,o),
(365,-227,o),
(443,-227,cs)
);
},
{
alignment = -1;
ref = O.ss01;
}
);
width = 810;
}
);
metricLeft = O.ss01;
metricRight = O.ss01;
},
{
glyphname = Q.ss01;
kernLeft = O_2nd;
kernRight = O_1st;
layers = (
{
background = {
shapes = (
{
closed = 1;
nodes = (
(622,-15,o),
(783,137,o),
(783,350,cs),
(783,551,o),
(641,713,o),
(421,713,cs),
(201,713,o),
(60,551,o),
(60,350,cs),
(60,155,o),
(199,-11,o),
(422,-11,cs)
);
},
{
closed = 1;
nodes = (
(733,-216,o),
(797,-176,o),
(797,-105,cs),
(797,-38,o),
(737,25,o),
(579,41,c),
(555,20,l),
(632,17,o),
(772,-17,o),
(772,-104,cs),
(772,-164,o),
(722,-193,o),
(658,-193,cs),
(509,-193,o),
(446,-73,o),
(430,3,c),
(403,9,l),
(429,-130,o),
(533,-216,o),
(658,-216,cs)
);
},
{
closed = 1;
nodes = (
(228,12,o),
(85,163,o),
(85,350,cs),
(85,544,o),
(229,690,o),
(421,690,cs),
(613,690,o),
(758,544,o),
(758,350,cs),
(758,151,o),
(605,12,o),
(421,12,cs)
);
}
);
};
layerId = "5dd0c03f-0ac1-43be-b978-266741ffc02a";
shapes = (
{
closed = 1;
nodes = (
(733,-216,o),
(797,-176,o),
(797,-105,cs),
(797,-43,o),
(743,14,o),
(611,37,c),
(714,98,o),
(783,211,o),
(783,350,cs),
(783,551,o),
(641,713,o),
(421,713,cs),
(201,713,o),
(60,551,o),
(60,350,cs),
(60,163,o),
(187,0,o),
(407,-11,c),
(439,-138,o),
(539,-216,o),
(658,-216,cs)
);
},
{
closed = 1;
nodes = (
(518,-193,o),
(454,-87,o),
(433,-11,c),
(484,-11,o),
(532,0,o),
(575,19,c),
(654,11,o),
(772,-24,o),
(772,-104,cs),
(772,-164,o),
(722,-193,o),
(658,-193,cs)
);
},
{
closed = 1;
nodes = (
(242,11,o),
(85,142,o),
(85,350,cs),
(85,544,o),
(229,690,o),
(421,690,cs),
(613,690,o),
(758,544,o),
(758,350,cs),
(758,151,o),
(605,11,o),
(421,11,cs)
);
}
);
width = 843;
},
{
background = {
shapes = (
{
closed = 1;
nodes = (
(718,-218,o),
(786,-168,o),
(786,-73,cs),
(786,7,o),
(728,61,o),
(647,82,c),
(722,148,o),
(764,244,o),
(764,350,cs),
(764,550,o),
(620,712,o),
(397,712,cs),
(174,712,o),
(30,550,o),
(30,350,cs),
(30,170,o),
(147,20,o),
(333,-7,c),
(360,-138,o),
(465,-218,o),
(614,-218,cs)
);
},
{
closed = 1;
nodes = (
(493,-94,o),
(465,-7,o),
(462,2,c),
(466,5,o),
(491,11,o),
(525,11,cs),
(574,11,o),
(652,-10,o),
(652,-50,cs),
(652,-73,o),
(636,-94,o),
(590,-94,cs)
);
},
{
closed = 1;
nodes = (
(268,114,o),
(173,215,o),
(173,350,cs),
(173,485,o),
(268,586,o),
(397,586,cs),
(526,586,o),
(621,485,o),
(621,350,cs),
(621,215,o),
(526,114,o),
(397,114,cs)
);
}
);
};
layerId = "41AFA816-2F69-4745-BF67-F6DEA15443A0";
shapes = (
{
closed = 1;
nodes = (
(717,-218,o),
(786,-168,o),
(786,-73,cs),
(786,7,o),
(728,61,o),
(647,82,c),
(722,148,o),
(764,244,o),
(764,350,cs),
(764,550,o),
(620,712,o),
(397,712,cs),
(174,712,o),
(30,550,o),
(30,350,cs),
(30,170,o),
(148,19,o),
(335,-7,c),
(362,-139,o),
(465,-218,o),
(611,-218,cs)
);
},
{
closed = 1;
nodes = (
(493,-100,o),
(465,-8,o),
(462,2,c),
(466,5,o),
(491,11,o),
(525,11,cs),
(574,11,o),
(652,-10,o),
(652,-54,cs),
(652,-83,o),
(629,-100,o),
(590,-100,cs)
);
},
{
closed = 1;
nodes = (
(268,114,o),
(173,215,o),
(173,350,cs),
(173,485,o),
(268,586,o),
(397,586,cs),
(526,586,o),
(621,485,o),
(621,350,cs),
(621,215,o),
(526,114,o),
(397,114,cs)
);
}
);
width = 794;
},
{
background = {
shapes = (
{
closed = 1;
nodes = (
(722,-202,o),
(800,-146,o),
(800,-41,cs),
(800,31,o),
(754,84,o),
(688,113,c),
(746,177,o),
(780,256,o),
(780,350,cs),
(780,562,o),
(631,713,o),
(403,713,cs),
(174,713,o),
(26,562,o),
(26,350,cs),
(26,171,o),
(134,39,o),
(308,0,c),
(342,-123,o),
(451,-202,o),
(602,-202,cs)
);
},
{
closed = 1;
nodes = (
(505,-70,o),
(481,1,o),
(479,9,c),
(482,11,o),
(503,16,o),
(533,16,cs),
(575,16,o),
(642,-1,o),
(642,-35,cs),
(642,-54,o),
(628,-70,o),
(589,-70,cs)
);
},
{
closed = 1;
nodes = (
(309,155,o),
(241,228,o),
(241,350,cs),
(241,472,o),
(309,546,o),
(401,546,cs),
(492,546,o),
(560,472,o),
(560,350,cs),
(560,228,o),
(492,155,o),
(401,155,cs)
);
}
);
};
layerId = "32E5C913-0890-451E-8980-44FAA246AB8A";
shapes = (
{
closed = 1;
nodes = (
(720,-202,o),
(800,-146,o),
(800,-41,cs),
(800,31,o),
(754,84,o),
(688,113,c),
(746,177,o),
(780,256,o),
(780,350,cs),
(780,562,o),
(631,713,o),
(403,713,cs),
(174,713,o),
(26,562,o),
(26,350,cs),
(26,171,o),
(134,39,o),
(309,0,c),
(342,-123,o),
(449,-202,o),
(598,-202,cs)
);
},
{
closed = 1;
nodes = (
(505,-72,o),
(481,1,o),
(479,9,c),
(482,11,o),
(503,16,o),
(533,16,cs),
(575,16,o),
(642,-1,o),
(642,-36,cs),
(642,-56,o),
(628,-72,o),
(589,-72,cs)
);
},
{
closed = 1;
nodes = (
(309,155,o),
(241,228,o),
(241,350,cs),
(241,472,o),
(309,546,o),
(401,546,cs),
(492,546,o),
(560,472,o),
(560,350,cs),
(560,228,o),
(492,155,o),
(401,155,cs)
);
}
);
width = 807;
}
);
metricLeft = O;
},
{
glyphname = R.ss01;
kernLeft = H_2nd;
kernRight = P_1st;
layers = (
{
background = {
shapes = (
{
closed = 1;
nodes = (
(586,0,l),
(446,302,l),
(422,295,l),
(558,0,l)
);
},
{
closed = 1;
nodes = (
(85,700,l),
(85,0,l),
(110,0,l),
(110,700,l)
);
},
{
closed = 1;
nodes = (
(514,281,o),
(605,369,o),
(605,490,cs),
(605,616,o),
(505,700,o),
(383,700,cs),
(97,700,l),
(97,677,l),
(379,677,ls),
(487,677,o),
(580,608,o),
(580,490,cs),
(580,372,o),
(489,304,o),
(375,304,cs),
(100,304,l),
(100,281,l),
(377,281,ls)
);
}
);
};
layerId = "5dd0c03f-0ac1-43be-b978-266741ffc02a";
shapes = (
{
closed = 1;
nodes = (
(110,0,l),
(110,281,l),
(377,281,ls),
(394,281,o),
(411,282,o),
(427,285,c),
(558,0,l),
(586,0,l),
(451,291,l),
(546,316,o),
(605,393,o),
(605,490,cs),
(605,616,o),
(505,700,o),
(383,700,cs),
(85,700,l),
(85,0,l)
);
},
{
closed = 1;
nodes = (
(110,677,l),
(379,677,ls),
(487,677,o),
(580,608,o),
(580,490,cs),
(580,372,o),
(489,304,o),
(375,304,cs),
(110,304,l)
);
}
);
width = 670;
},
{
layerId = "41AFA816-2F69-4745-BF67-F6DEA15443A0";
shapes = (
{
closed = 1;
nodes = (
(213,0,l),
(213,202,l),
(365,202,ls),
(371,202,o),
(378,202,o),
(384,202,c),
(495,0,l),
(668,0,l),
(522,242,l),
(588,285,o),
(632,359,o),
(632,451,cs),
(632,598,o),
(520,700,o),
(383,700,cs),
(70,700,l),
(70,0,l)
);
},
{
closed = 1;
nodes = (
(213,574,l),
(366,574,ls),
(433,574,o),
(489,529,o),
(489,451,cs),
(489,373,o),
(434,328,o),
(366,328,cs),
(213,328,l)
);
}
);
width = 683;
},
{
layerId = "32E5C913-0890-451E-8980-44FAA246AB8A";
shapes = (
{
closed = 1;
nodes = (
(260,0,l),
(260,199,l),
(325,199,ls),
(329,199,o),
(333,199,o),
(337,199,c),
(447,0,l),
(689,0,l),
(542,250,l),
(606,297,o),
(650,367,o),
(650,450,cs),
(650,598,o),
(527,700,o),
(376,700,cs),
(44,700,l),
(44,0,l)
);
},
{
closed = 1;
nodes = (
(260,535,l),
(354,535,ls),
(393,535,o),
(431,503,o),
(431,450,cs),
(431,395,o),
(394,364,o),
(354,364,cs),
(260,364,l)
);
}
);
width = 690;
}
);
},
{
glyphname = T.ss01;
kernLeft = T_2nd;
kernRight = T_1st;
layers = (
{
background = {
shapes = (
{
closed = 1;
nodes = (
(35,700,l),
(35,574,l),
(230,574,l),
(230,0,l),
(373,0,l),
(373,574,l),
(568,574,l),
(568,700,l)
);
}
);
};
layerId = "5dd0c03f-0ac1-43be-b978-266741ffc02a";
shapes = (
{
closed = 1;
nodes = (
(300,0,l),
(300,677,l),
(539,677,l),
(539,700,l),
(35,700,l),
(35,677,l),
(275,677,l),
(275,0,l)
);
}
);
width = 574;
},
{
layerId = "41AFA816-2F69-4745-BF67-F6DEA15443A0";
shapes = (
{
closed = 1;
nodes = (
(353,0,l),
(353,574,l),
(548,574,l),
(548,700,l),
(15,700,l),
(15,574,l),
(210,574,l),
(210,0,l)
);
}
);
width = 563;
},
{
layerId = "32E5C913-0890-451E-8980-44FAA246AB8A";
shapes = (
{
closed = 1;
nodes = (
(412,0,l),
(412,531,l),
(589,531,l),
(589,700,l),
(15,700,l),
(15,531,l),
(197,531,l),
(197,0,l)
);
}
);
width = 604;
}
);
},
{
glyphname = Tbar.ss01;
kernLeft = T_2nd;
kernRight = T_1st;
layers = (
{
layerId = "5dd0c03f-0ac1-43be-b978-266741ffc02a";
shapes = (
{
closed = 1;
nodes = (
(500,406,l),
(500,429,l),
(75,429,l),
(75,406,l)
);
},
{
ref = T.ss01;
}
);
width = 574;
},
{
layerId = "41AFA816-2F69-4745-BF67-F6DEA15443A0";
shapes = (
{
closed = 1;
nodes = (
(475,345,l),
(475,433,l),
(88,433,l),
(88,345,l)
);
},
{
ref = T.ss01;
}
);
width = 563;
},
{
layerId = "32E5C913-0890-451E-8980-44FAA246AB8A";
shapes = (
{
closed = 1;
nodes = (
(515,309,l),
(515,424,l),
(90,424,l),
(90,309,l)
);
},
{
alignment = -1;
ref = T.ss01;
}
);
width = 604;
}
);
metricLeft = T.ss01;
metricRight = T.ss01;
},
{
glyphname = Tcedilla.ss01;
kernLeft = T_2nd;
kernRight = T_1st;
layers = (
{
layerId = "5dd0c03f-0ac1-43be-b978-266741ffc02a";
shapes = (
{
closed = 1;
nodes = (
(212,-203,l),
(300,0,l),
(300,10,l),
(276,14,l),
(187,-203,l)
);
},
{
ref = T.ss01;
}
);
width = 574;
},
{
layerId = "41AFA816-2F69-4745-BF67-F6DEA15443A0";
shapes = (
{
closed = 1;
nodes = (
(267,-203,l),
(353,0,l),
(353,25,l),
(239,37,l),
(136,-203,l)
);
},
{
alignment = -1;
ref = T.ss01;
}
);
width = 563;
},
{
layerId = "32E5C913-0890-451E-8980-44FAA246AB8A";
shapes = (
{
closed = 1;
nodes = (
(326,-203,l),
(412,0,l),
(412,36,l),
(268,39,l),
(165,-203,l)
);
},
{
alignment = -1;
ref = T.ss01;
}
);
width = 604;
}
);
metricLeft = T.ss01;
metricRight = T.ss01;
},
{
glyphname = W.ss01;
kernLeft = H_2nd;
kernRight = H_1st;
layers = (
{
background = {
shapes = (
{
closed = 1;
nodes = (
(58,700,l),
(58,197,ls),
(58,82,o),
(141,-12,o),
(266,-12,cs),
(391,-12,o),
(475,82,o),
(475,197,cs),
(475,519,ls),
(475,555,o),
(504,585,o),
(540,585,cs),
(576,585,o),
(606,555,o),
(606,519,cs),
(606,197,ls),
(606,82,o),
(690,-12,o),
(815,-12,cs),
(940,-12,o),
(1023,82,o),
(1023,197,cs),
(1023,700,l),
(880,700,l),
(880,180,ls),
(880,144,o),
(851,114,o),
(815,114,cs),
(779,114,o),
(749,144,o),
(749,180,cs),
(749,502,ls),
(749,624,o),
(659,711,o),
(540,711,cs),
(421,711,o),
(332,624,o),
(332,502,cs),
(332,180,ls),
(332,144,o),
(302,114,o),
(266,114,cs),
(230,114,o),
(201,144,o),
(201,180,cs),
(201,700,l)
);
}
);
};
layerId = "5dd0c03f-0ac1-43be-b978-266741ffc02a";
shapes = (
{
closed = 1;
nodes = (
(343,-13,o),
(413,56,o),
(413,160,cs),
(413,547,ls),
(413,631,o),
(477,690,o),
(549,690,cs),
(621,690,o),
(681,631,o),
(681,547,cs),
(681,160,ls),
(681,56,o),
(750,-13,o),
(846,-13,cs),
(940,-13,o),
(1009,56,o),
(1009,160,cs),
(1009,700,l),
(984,700,l),
(984,153,ls),
(984,71,o),
(923,10,o),
(846,10,cs),
(767,10,o),
(706,71,o),
(706,153,cs),
(706,540,ls),
(706,644,o),
(641,713,o),
(549,713,cs),
(457,713,o),
(388,644,o),
(388,540,cs),
(388,153,ls),
(388,71,o),
(324,10,o),
(249,10,cs),
(172,10,o),
(110,71,o),
(110,153,cs),
(110,700,l),
(85,700,l),
(85,160,ls),
(85,56,o),
(153,-13,o),
(249,-13,cs)
);
}
);
width = 1094;
},
{
layerId = "41AFA816-2F69-4745-BF67-F6DEA15443A0";
shapes = (
{
closed = 1;
nodes = (
(393,-12,o),
(477,82,o),
(477,197,cs),
(477,519,ls),
(477,555,o),
(506,585,o),
(542,585,cs),
(578,585,o),
(608,555,o),
(608,519,cs),
(608,197,ls),
(608,82,o),
(692,-12,o),
(817,-12,cs),
(942,-12,o),
(1025,82,o),
(1025,197,cs),
(1025,700,l),
(882,700,l),
(882,180,ls),
(882,144,o),
(853,114,o),
(817,114,cs),
(781,114,o),
(751,144,o),
(751,180,cs),
(751,502,ls),
(751,624,o),
(661,711,o),
(542,711,cs),
(423,711,o),
(334,624,o),
(334,502,cs),
(334,180,ls),
(334,144,o),
(304,114,o),
(268,114,cs),
(232,114,o),
(203,144,o),
(203,180,cs),
(203,700,l),
(60,700,l),
(60,197,ls),
(60,82,o),
(143,-12,o),
(268,-12,cs)
);
}
);
width = 1085;
},
{
layerId = "32E5C913-0890-451E-8980-44FAA246AB8A";
shapes = (
{
closed = 1;
nodes = (
(418,-13,o),
(536,72,o),
(536,217,cs),
(536,487,ls),
(536,514,o),
(556,530,o),
(576,530,cs),
(598,530,o),
(619,514,o),
(619,487,cs),
(619,217,ls),
(619,72,o),
(737,-13,o),
(866,-13,cs),
(994,-13,o),
(1112,72,o),
(1112,217,cs),
(1112,700,l),
(907,700,l),
(907,212,ls),
(907,188,o),
(887,172,o),
(866,172,cs),
(843,172,o),
(824,188,o),
(824,212,cs),
(824,485,ls),
(824,633,o),
(704,713,o),
(577,713,cs),
(449,713,o),
(330,633,o),
(330,485,cs),
(330,214,ls),
(330,188,o),
(312,172,o),
(289,172,cs),
(265,172,o),
(247,188,o),
(247,214,cs),
(247,700,l),
(41,700,l),
(41,217,ls),
(41,72,o),
(158,-13,o),
(289,-13,cs)
);
}
);
width = 1153;
}
);
},
{
glyphname = X.ss01;
kernLeft = H_2nd;
kernRight = H_1st;
layers = (
{
background = {
shapes = (
{
closed = 1;
nodes = (
(493,348,o),
(600,454,o),
(600,625,cs),
(600,700,l),
(575,700,l),
(575,614,ls),
(575,481,o),
(486,372,o),
(343,372,cs),
(199,372,o),
(110,481,o),
(110,614,cs),
(110,700,l),
(85,700,l),
(85,625,ls),
(85,454,o),
(192,348,o),
(343,348,cs)
);
},
{
closed = 1;
nodes = (
(192,372,o),
(85,266,o),
(85,95,cs),
(85,0,l),
(110,0,l),
(110,106,ls),
(110,239,o),
(199,348,o),
(343,348,cs),
(486,348,o),
(575,239,o),
(575,106,cs),
(575,0,l),
(600,0,l),
(600,95,ls),
(600,266,o),
(493,372,o),
(343,372,cs)
);
}
);
};
layerId = "5dd0c03f-0ac1-43be-b978-266741ffc02a";
shapes = (
{
closed = 1;
nodes = (
(110,0,l),
(110,106,ls),
(110,239,o),
(199,348,o),
(343,348,cs),
(486,348,o),
(575,239,o),
(575,106,cs),
(575,0,l),
(600,0,l),
(600,95,ls),
(600,232,o),
(531,332,o),
(415,360,c),
(531,388,o),
(600,488,o),
(600,625,cs),
(600,700,l),
(575,700,l),
(575,614,ls),
(575,481,o),
(486,372,o),
(343,372,cs),
(199,372,o),
(110,481,o),
(110,614,cs),
(110,700,l),
(85,700,l),
(85,625,ls),
(85,488,o),
(154,388,o),
(270,360,c),
(154,332,o),
(85,232,o),
(85,95,cs),
(85,0,l)
);
}
);
width = 685;
},
{
layerId = "41AFA816-2F69-4745-BF67-F6DEA15443A0";
shapes = (
{
closed = 1;
nodes = (
(213,0,l),
(213,144,ls),
(213,243,o),
(282,287,o),
(366,287,cs),
(450,287,o),
(519,243,o),
(519,144,cs),
(519,0,l),
(662,0,l),
(662,147,ls),
(662,237,o),
(621,307,o),
(556,352,c),
(618,397,o),
(657,465,o),
(657,553,cs),
(657,700,l),
(514,700,l),
(514,556,ls),
(514,457,o),
(447,413,o),
(366,413,cs),
(285,413,o),
(218,457,o),
(218,556,cs),
(218,700,l),
(75,700,l),
(75,553,ls),
(75,464,o),
(114,396,o),
(176,351,c),
(111,306,o),
(70,237,o),
(70,147,cs),
(70,0,l)
);
}
);
width = 732;
},
{
layerId = "32E5C913-0890-451E-8980-44FAA246AB8A";
shapes = (
{
closed = 1;
nodes = (
(252,0,l),
(252,164,ls),
(252,213,o),
(292,259,o),
(356,259,cs),
(422,259,o),
(462,213,o),
(462,164,cs),
(462,0,l),
(670,0,l),
(670,157,ls),
(670,236,o),
(636,305,o),
(577,353,c),
(635,400,o),
(669,467,o),
(669,545,cs),
(669,700,l),
(461,700,l),
(461,526,ls),
(461,476,o),
(422,430,o),
(356,430,cs),
(293,430,o),
(253,476,o),
(253,526,cs),
(253,700,l),
(45,700,l),
(45,545,ls),
(45,466,o),
(80,397,o),
(139,349,c),
(79,302,o),
(44,234,o),
(44,157,cs),
(44,0,l)
);
}
);
width = 714;
}
);
},
{
glyphname = Z.ss01;
kernLeft = Z_2nd;
kernRight = Z_1st;
layers = (
{
background = {
shapes = (
{
closed = 1;
nodes = (
(377,0,l),
(500,0,ls),
(545,0,o),
(573,-28,o),
(573,-74,cs),
(573,-85,l),
(598,-85,l),
(598,-76,ls),
(598,-17,o),
(563,23,o),
(498,23,cs),
(377,23,l)
);
},
{
closed = 1;
nodes = (
(461,0,l),
(461,23,l),
(189,23,ls),
(128,23,o),
(89,74,o),
(89,117,cs),
(89,167,o),
(105,182,o),
(163,225,cs),
(473,452,ls),
(527,491,o),
(558,522,o),
(558,584,cs),
(558,642,o),
(515,700,o),
(433,700,cs),
(95,700,l),
(94,677,l),
(442,677,ls),
(494,677,o),
(533,629,o),
(533,585,cs),
(533,540,o),
(517,514,o),
(464,475,cs),
(146,243,ls),
(90,202,o),
(65,178,o),
(65,121,cs),
(65,58,o),
(111,0,o),
(193,0,cs)
);
}
);
};
layerId = "5dd0c03f-0ac1-43be-b978-266741ffc02a";
shapes = (
{
closed = 1;
nodes = (
(598,-85,l),
(598,-76,ls),
(598,-17,o),
(563,23,o),
(498,23,cs),
(189,23,ls),
(128,23,o),
(89,74,o),
(89,117,cs),
(89,167,o),
(105,182,o),
(163,225,cs),
(473,452,ls),
(527,491,o),
(558,522,o),
(558,584,cs),
(558,642,o),
(515,700,o),
(433,700,cs),
(94,700,l),
(94,677,l),
(442,677,ls),
(494,677,o),
(533,629,o),
(533,585,cs),
(533,540,o),
(517,514,o),
(464,475,cs),
(146,243,ls),
(90,202,o),
(65,178,o),
(65,121,cs),
(65,58,o),
(111,0,o),
(193,0,cs),
(500,0,ls),
(545,0,o),
(573,-28,o),
(573,-74,cs),
(573,-85,l)
);
}
);
width = 613;
},
{
layerId = "41AFA816-2F69-4745-BF67-F6DEA15443A0";
shapes = (
{
closed = 1;
nodes = (
(598,-85,l),
(598,-19,ls),
(598,72,o),
(543,126,o),
(453,126,cs),
(204,126,ls),
(194,126,o),
(185,135,o),
(185,145,cs),
(185,150,o),
(187,154,o),
(190,157,cs),
(511,441,ls),
(545,471,o),
(560,510,o),
(560,552,cs),
(560,639,o),
(500,700,o),
(411,700,cs),
(52,700,l),
(52,574,l),
(390,574,ls),
(399,574,o),
(409,565,o),
(409,555,cs),
(409,550,o),
(407,546,o),
(404,543,cs),
(87,261,ls),
(49,228,o),
(35,190,o),
(35,148,cs),
(35,61,o),
(95,0,o),
(184,0,cs),
(445,0,ls),
(466,0,o),
(477,-12,o),
(477,-32,cs),
(477,-85,l)
);
}
);
width = 600;
},
{
layerId = "32E5C913-0890-451E-8980-44FAA246AB8A";
shapes = (
{
closed = 1;
nodes = (
(618,-85,l),
(618,8,ls),
(618,110,o),
(557,170,o),
(458,170,cs),
(279,170,ls),
(273,170,o),
(269,173,o),
(269,177,cs),
(269,180,o),
(270,183,o),
(273,186,cs),
(531,414,ls),
(572,450,o),
(590,493,o),
(590,536,cs),
(590,633,o),
(518,700,o),
(412,700,cs),
(39,700,l),
(39,530,l),
(334,530,ls),
(340,530,o),
(344,527,o),
(344,523,cs),
(344,520,o),
(343,518,o),
(340,515,cs),
(86,288,ls),
(41,249,o),
(24,207,o),
(24,164,cs),
(24,67,o),
(96,0,o),
(202,0,cs),
(436,0,ls),
(459,0,o),
(471,-14,o),
(471,-38,cs),
(471,-85,l)
);
}
);
width = 630;
}
);
},
{
glyphname = K.ss02;
kernLeft = H_2nd;
kernRight = K_1st;
layers = (
{
background = {
shapes = (
{
closed = 1;
nodes = (
(110,0,l),
(110,355,l),
(365,355,ls),
(475,355,o),
(561,294,o),
(562,192,cs),
(563,0,l),
(588,0,l),
(588,190,ls),
(588,296,o),
(510,360,o),
(407,375,c),
(614,700,l),
(585,700,l),
(382,377,l),
(375,378,o),
(369,378,o),
(362,378,cs),
(110,378,l),
(110,700,l),
(85,700,l),
(85,0,l)
);
}
);
};
layerId = "5dd0c03f-0ac1-43be-b978-266741ffc02a";
shapes = (
{
closed = 1;
nodes = (
(110,0,l),
(110,355,l),
(365,355,ls),
(476,355,o),
(563,294,o),
(563,192,cs),
(563,0,l),
(588,0,l),
(588,190,ls),
(588,296,o),
(510,360,o),
(407,375,c),
(614,700,l),
(585,700,l),
(382,377,l),
(375,378,o),
(369,378,o),
(362,378,cs),
(110,378,l),
(110,700,l),
(85,700,l),
(85,0,l)
);
}
);
width = 673;
},
{
layerId = "41AFA816-2F69-4745-BF67-F6DEA15443A0";
shapes = (
{
closed = 1;
nodes = (
(213,0,l),
(213,293,l),
(369,293,ls),
(445,293,o),
(492,238,o),
(492,170,cs),
(492,0,l),
(635,0,l),
(635,161,ls),
(635,280,o),
(573,365,o),
(477,400,c),
(637,700,l),
(483,700,l),
(338,419,l),
(333,419,o),
(327,419,o),
(322,419,cs),
(213,419,l),
(213,700,l),
(70,700,l),
(70,0,l)
);
}
);
width = 692;
},
{
layerId = "32E5C913-0890-451E-8980-44FAA246AB8A";
shapes = (
{
closed = 1;
nodes = (
(260,0,l),
(260,269,l),
(380,269,ls),
(429,269,o),
(461,233,o),
(461,188,cs),
(461,0,l),
(676,0,l),
(676,170,ls),
(676,270,o),
(629,348,o),
(547,392,c),
(701,700,l),
(470,700,l),
(352,438,l),
(348,438,o),
(345,438,o),
(342,438,cs),
(260,438,l),
(260,700,l),
(44,700,l),
(44,0,l)
);
}
);
width = 717;
}
);
},
{
glyphname = M.ss02;
kernLeft = H_2nd;
kernRight = P_1st;
layers = (
{
background = {
shapes = (
{
closed = 1;
nodes = (
(83,0,l),
(226,0,l),
(226,443,ls),
(226,522,o),
(277,586,o),
(359,586,cs),
(441,586,o),
(492,522,o),
(492,443,cs),
(492,0,l),
(635,0,l),
(635,443,ls),
(635,522,o),
(686,586,o),
(768,586,cs),
(850,586,o),
(901,522,o),
(901,443,cs),
(901,0,l),
(1044,0,l),
(1044,434,ls),
(1044,606,o),
(929,712,o),
(768,712,cs),
(683,712,o),
(612,679,o),
(563,620,c),
(514,678,o),
(443,712,o),
(359,712,cs),
(198,712,o),
(83,606,o),
(83,434,cs)
);
}
);
};
layerId = "5dd0c03f-0ac1-43be-b978-266741ffc02a";
shapes = (
{
closed = 1;
nodes = (
(110,0,l),
(110,459,ls),
(110,586,o),
(197,690,o),
(338,690,cs),
(478,690,o),
(566,586,o),
(566,459,cs),
(566,0,l),
(591,0,l),
(591,459,ls),
(591,586,o),
(679,690,o),
(819,690,cs),
(959,690,o),
(1046,586,o),
(1046,459,cs),
(1046,0,l),
(1071,0,l),
(1071,456,ls),
(1071,615,o),
(967,713,o),
(819,713,cs),
(712,713,o),
(608,659,o),
(579,534,c),
(550,658,o),
(443,713,o),
(338,713,cs),
(189,713,o),
(85,615,o),
(85,456,cs),
(85,0,l)
);
}
);
width = 1156;
},
{
layerId = "41AFA816-2F69-4745-BF67-F6DEA15443A0";
shapes = (
{
closed = 1;
nodes = (
(203,0,l),
(203,443,ls),
(203,522,o),
(254,586,o),
(336,586,cs),
(418,586,o),
(469,522,o),
(469,443,cs),
(469,0,l),
(612,0,l),
(612,443,ls),
(612,522,o),
(663,586,o),
(745,586,cs),
(827,586,o),
(878,522,o),
(878,443,cs),
(878,0,l),
(1021,0,l),
(1021,434,ls),
(1021,606,o),
(906,712,o),
(745,712,cs),
(660,712,o),
(589,679,o),
(540,620,c),
(491,678,o),
(420,712,o),
(336,712,cs),
(175,712,o),
(60,606,o),
(60,434,cs),
(60,0,l)
);
}
);
width = 1081;
},
{
layerId = "32E5C913-0890-451E-8980-44FAA246AB8A";
shapes = (
{
closed = 1;
nodes = (
(250,0,l),
(250,430,ls),
(250,491,o),
(283,529,o),
(335,529,cs),
(387,529,o),
(420,491,o),
(420,430,cs),
(420,0,l),
(631,0,l),
(631,430,ls),
(631,491,o),
(663,529,o),
(716,529,cs),
(768,529,o),
(801,491,o),
(801,430,cs),
(801,0,l),
(1009,0,l),
(1009,430,ls),
(1009,605,o),
(887,713,o),
(716,713,cs),
(638,713,o),
(573,689,o),
(525,646,c),
(476,689,o),
(412,713,o),
(335,713,cs),
(164,713,o),
(41,605,o),
(41,430,cs),
(41,0,l)
);
}
);
width = 1050;
}
);
},
{
glyphname = X.ss02;
kernLeft = X_2nd;
kernRight = K_1st;
layers = (
{
layerId = "5dd0c03f-0ac1-43be-b978-266741ffc02a";
shapes = (
{
closed = 1;
nodes = (
(45,0,l),
(241,346,l),
(370,346,l),
(567,0,l),
(597,0,l),
(390,361,l),
(587,700,l),
(559,700,l),
(366,369,l),
(245,369,l),
(51,700,l),
(23,700,l),
(221,361,l),
(15,0,l)
);
}
);
width = 612;
},
{
guides = (
{
angle = 90;
pos = (582,0);
}
);
layerId = "41AFA816-2F69-4745-BF67-F6DEA15443A0";
shapes = (
{
closed = 1;
nodes = (
(170,0,l),
(322,293,l),
(364,293,l),
(516,0,l),
(686,0,l),
(481,364,l),
(680,700,l),
(515,700,l),
(361,419,l),
(325,419,l),
(171,700,l),
(6,700,l),
(205,364,l),
(0,0,l)
);
}
);
width = 686;
},
{
layerId = "32E5C913-0890-451E-8980-44FAA246AB8A";
shapes = (
{
closed = 1;
nodes = (
(235,0,l),
(365,265,l),
(377,265,l),
(507,0,l),
(742,0,l),
(538,363,l),
(727,700,l),
(503,700,l),
(377,448,l),
(366,448,l),
(239,700,l),
(16,700,l),
(204,363,l),
(0,0,l)
);
}
);
width = 742;
}
);
},
{
glyphname = K.ss03;
kernLeft = H_2nd;
kernRight = K_1st;
layers = (
{
background = {
shapes = (
{
closed = 1;
nodes = (
(110,0,l),
(110,325,l),
(362,325,ls),
(384,325,o),
(404,327,o),
(424,331,c),
(525,71,ls),
(545,23,o),
(574,0,o),
(621,0,cs),
(648,0,l),
(648,24,l),
(624,24,ls),
(583,24,o),
(567,40,o),
(549,82,cs),
(448,337,l),
(533,361,o),
(588,425,o),
(588,513,cs),
(588,700,l),
(563,700,l),
(562,511,ls),
(561,409,o),
(475,348,o),
(365,348,cs),
(110,348,l),
(110,700,l),
(85,700,l),
(85,0,l)
);
},
{
closed = 1;
nodes = (
(631,0,l),
(703,0,l),
(703,24,l),
(631,24,l)
);
}
);
};
layerId = "5dd0c03f-0ac1-43be-b978-266741ffc02a";
shapes = (
{
closed = 1;
nodes = (
(110,0,l),
(110,325,l),
(362,325,ls),
(384,325,o),
(404,327,o),
(424,331,c),
(525,71,ls),
(544,23,o),
(574,0,o),
(621,0,cs),
(648,0,l),
(648,24,l),
(624,24,ls),
(583,24,o),
(566,40,o),
(549,82,cs),
(448,337,l),
(533,361,o),
(588,425,o),
(588,513,cs),
(588,700,l),
(563,700,l),
(563,511,ls),
(563,409,o),
(476,348,o),
(365,348,cs),
(110,348,l),
(110,700,l),
(85,700,l),
(85,0,l)
);
}
);
width = 680;
},
{
layerId = "41AFA816-2F69-4745-BF67-F6DEA15443A0";
shapes = (
{
closed = 1;
nodes = (
(213,0,l),
(213,283,l),
(329,283,l),
(335,283,o),
(342,283,o),
(348,283,c),
(447,76,ls),
(470,29,o),
(511,0,o),
(578,0,cs),
(703,0,l),
(703,126,l),
(600,126,ls),
(589,126,o),
(580,130,o),
(576,139,cs),
(492,316,l),
(564,357,o),
(612,431,o),
(612,524,cs),
(612,700,l),
(469,700,l),
(469,524,ls),
(469,451,o),
(414,409,o),
(346,409,cs),
(213,409,l),
(213,700,l),
(70,700,l),
(70,0,l)
);
}
);
width = 678;
},
{
layerId = "32E5C913-0890-451E-8980-44FAA246AB8A";
shapes = (
{
closed = 1;
nodes = (
(260,0,l),
(260,264,l),
(300,264,l),
(304,264,o),
(308,264,o),
(313,264,c),
(399,84,ls),
(425,32,o),
(474,0,o),
(559,0,cs),
(705,0,l),
(705,165,l),
(619,165,ls),
(603,165,o),
(590,173,o),
(584,187,cs),
(524,314,l),
(589,359,o),
(632,430,o),
(632,512,cs),
(632,700,l),
(416,700,l),
(416,516,ls),
(416,463,o),
(383,432,o),
(342,432,cs),
(260,432,l),
(260,700,l),
(44,700,l),
(44,0,l)
);
}
);
width = 674;
}
);
},
{
glyphname = R.ss03;
kernLeft = H_2nd;
kernRight = P_1st;
layers = (
{
background = {
shapes = (
{
closed = 1;
nodes = (
(648,24,l),
(624,24,ls),
(583,24,o),
(567,41,o),
(548,82,cs),
(454,302,l),
(430,295,l),
(525,71,ls),
(547,24,o),
(574,0,o),
(621,0,cs),
(648,0,l)
);
},
{
closed = 1;
nodes = (
(85,700,l),
(85,0,l),
(110,0,l),
(110,700,l)
);
},
{
closed = 1;
nodes = (
(514,281,o),
(605,369,o),
(605,490,cs),
(605,616,o),
(505,700,o),
(383,700,cs),
(97,700,l),
(97,677,l),
(379,677,ls),
(487,677,o),
(580,608,o),
(580,490,cs),
(580,372,o),
(489,304,o),
(375,304,cs),
(100,304,l),
(100,281,l),
(377,281,ls)
);
}
);
};
layerId = "5dd0c03f-0ac1-43be-b978-266741ffc02a";
shapes = (
{
closed = 1;
nodes = (
(110,0,l),
(110,281,l),
(377,281,ls),
(397,281,o),
(416,283,o),
(434,286,c),
(525,71,ls),
(547,24,o),
(574,0,o),
(621,0,cs),
(648,0,l),
(648,24,l),
(624,24,ls),
(583,24,o),
(567,41,o),
(548,82,cs),
(458,293,l),
(549,320,o),
(605,395,o),
(605,490,cs),
(605,616,o),
(505,700,o),
(383,700,cs),
(85,700,l),
(85,0,l)
);
},
{
closed = 1;
nodes = (
(110,677,l),
(379,677,ls),
(487,677,o),
(580,608,o),
(580,490,cs),
(580,372,o),
(489,304,o),
(375,304,cs),
(110,304,l)
);
}
);
width = 670;
},
{
layerId = "41AFA816-2F69-4745-BF67-F6DEA15443A0";
shapes = (
{
closed = 1;
nodes = (
(213,0,l),
(213,218,l),
(352,218,ls),
(357,218,o),
(363,218,o),
(368,218,c),
(447,76,ls),
(473,31,o),
(522,0,o),
(578,0,cs),
(708,0,l),
(708,126,l),
(600,126,ls),
(589,126,o),
(581,131,o),
(576,139,cs),
(512,251,l),
(584,292,o),
(632,366,o),
(632,459,cs),
(632,602,o),
(520,700,o),
(383,700,cs),
(70,700,l),
(70,0,l)
);
},
{
closed = 1;
nodes = (
(213,574,l),
(366,574,ls),
(433,574,o),
(489,531,o),
(489,459,cs),
(489,386,o),
(434,344,o),
(366,344,cs),
(213,344,l)
);
}
);
width = 683;
},
{
layerId = "32E5C913-0890-451E-8980-44FAA246AB8A";
shapes = (
{
closed = 1;
nodes = (
(260,0,l),
(260,196,l),
(322,196,ls),
(326,196,o),
(329,196,o),
(333,196,c),
(400,83,ls),
(429,34,o),
(487,0,o),
(558,0,cs),
(716,0,l),
(716,165,l),
(620,165,ls),
(598,165,o),
(590,172,o),
(581,185,cs),
(542,246,l),
(607,292,o),
(650,367,o),
(650,449,cs),
(650,597,o),
(527,700,o),
(376,700,cs),
(44,700,l),
(44,0,l)
);
},
{
closed = 1;
nodes = (
(260,531,l),
(354,531,ls),
(394,531,o),
(432,498,o),
(432,447,cs),
(432,394,o),
(394,361,o),
(354,361,cs),
(260,361,l)
);
}
);
width = 685;
}
);
},
{
glyphname = X.ss03;
kernLeft = X_2nd;
kernRight = X_1st;
layers = (
{
background = {
shapes = (
{
closed = 1;
nodes = (
(565,677,l),
(771,677,l),
(771,700,l),
(565,700,l)
);
},
{
ref = X;
}
);
};
layerId = "5dd0c03f-0ac1-43be-b978-266741ffc02a";
shapes = (
{
closed = 1;
nodes = (
(90,0,l),
(342,352,l),
(485,349,o),
(568,268,o),
(568,152,cs),
(568,0,l),
(593,0,l),
(593,148,ls),
(593,268,o),
(519,369,o),
(358,375,c),
(575,677,l),
(771,677,l),
(771,700,l),
(561,700,l),
(328,375,l),
(202,376,o),
(108,480,o),
(108,587,cs),
(108,700,l),
(83,700,l),
(83,600,ls),
(83,451,o),
(192,362,o),
(313,353,c),
(60,0,l)
);
}
);
width = 653;
},
{
background = {
shapes = (
{
closed = 1;
nodes = (
(58,0,l),
(219,0,l),
(389,287,l),
(395,287,ls),
(471,287,o),
(518,232,o),
(518,164,cs),
(518,0,l),
(661,0,l),
(661,155,ls),
(661,285,o),
(587,374,o),
(475,403,c),
(658,700,l),
(497,700,l),
(328,414,l),
(263,422,o),
(222,473,o),
(222,536,cs),
(222,700,l),
(79,700,l),
(79,545,ls),
(79,423,o),
(143,338,o),
(241,303,c)
);
},
{
closed = 1;
nodes = (
(517,574,l),
(813,574,l),
(813,700,l),
(517,700,l)
);
}
);
};
layerId = "41AFA816-2F69-4745-BF67-F6DEA15443A0";
shapes = (
{
closed = 1;
nodes = (
(219,0,l),
(389,287,l),
(472,287,o),
(518,233,o),
(518,164,cs),
(518,0,l),
(661,0,l),
(661,155,ls),
(661,285,o),
(587,374,o),
(475,403,c),
(580,574,l),
(813,574,l),
(813,700,l),
(497,700,l),
(328,414,l),
(263,422,o),
(222,473,o),
(222,536,cs),
(222,700,l),
(79,700,l),
(79,545,ls),
(79,423,o),
(143,338,o),
(241,303,c),
(58,0,l)
);
}
);
width = 703;
},
{
layerId = "32E5C913-0890-451E-8980-44FAA246AB8A";
shapes = (
{
closed = 1;
nodes = (
(251,0,l),
(406,258,l),
(441,251,o),
(468,217,o),
(468,177,cs),
(468,0,l),
(684,0,l),
(684,169,ls),
(684,284,o),
(621,370,o),
(515,409,c),
(591,531,l),
(813,531,l),
(813,700,l),
(457,700,l),
(309,453,l),
(282,460,o),
(263,487,o),
(263,521,cs),
(263,700,l),
(47,700,l),
(47,532,ls),
(47,424,o),
(101,343,o),
(195,298,c),
(12,0,l)
);
}
);
width = 708;
}
);
},
{
glyphname = Z.ss03;
kernLeft = Z_2nd;
kernRight = Z_1st;
layers = (
{
background = {
shapes = (
{
closed = 1;
nodes = (
(548,0,l),
(598,0,l),
(598,23,l),
(548,23,l)
);
},
{
closed = 1;
nodes = (
(551,0,l),
(551,23,l),
(189,23,ls),
(128,23,o),
(89,74,o),
(89,117,cs),
(89,167,o),
(105,182,o),
(163,225,cs),
(473,452,ls),
(527,491,o),
(558,522,o),
(558,584,cs),
(558,642,o),
(515,700,o),
(433,700,cs),
(95,700,l),
(94,677,l),
(442,677,ls),
(494,677,o),
(533,629,o),
(533,585,cs),
(533,540,o),
(517,514,o),
(464,475,cs),
(146,243,ls),
(90,202,o),
(65,178,o),
(65,121,cs),
(65,58,o),
(111,0,o),
(193,0,cs)
);
}
);
};
layerId = "5dd0c03f-0ac1-43be-b978-266741ffc02a";
shapes = (
{
closed = 1;
nodes = (
(598,0,l),
(598,23,l),
(189,23,ls),
(128,23,o),
(89,74,o),
(89,117,cs),
(89,167,o),
(105,182,o),
(163,225,cs),
(473,452,ls),
(527,491,o),
(558,522,o),
(558,584,cs),
(558,642,o),
(515,700,o),
(433,700,cs),
(94,700,l),
(94,677,l),
(442,677,ls),
(494,677,o),
(533,629,o),
(533,585,cs),
(533,540,o),
(517,514,o),
(464,475,cs),
(146,243,ls),
(90,202,o),
(65,178,o),
(65,121,cs),
(65,58,o),
(111,0,o),
(193,0,cs)
);
}
);
width = 623;
},
{
layerId = "41AFA816-2F69-4745-BF67-F6DEA15443A0";
shapes = (
{
closed = 1;
nodes = (
(625,0,l),
(625,126,l),
(204,126,ls),
(194,126,o),
(185,135,o),
(185,145,cs),
(185,150,o),
(187,154,o),
(190,157,cs),
(511,441,ls),
(545,471,o),
(560,510,o),
(560,552,cs),
(560,639,o),
(500,700,o),
(411,700,cs),
(52,700,l),
(52,574,l),
(390,574,ls),
(399,574,o),
(409,565,o),
(409,555,cs),
(409,550,o),
(407,546,o),
(404,543,cs),
(87,261,ls),
(49,228,o),
(35,190,o),
(35,148,cs),
(35,61,o),
(95,0,o),
(184,0,cs)
);
}
);
width = 600;
},
{
layerId = "32E5C913-0890-451E-8980-44FAA246AB8A";
shapes = (
{
closed = 1;
nodes = (
(644,0,l),
(644,165,l),
(275,165,ls),
(267,165,o),
(262,168,o),
(262,172,cs),
(262,175,o),
(264,177,o),
(267,180,cs),
(531,414,ls),
(572,450,o),
(590,493,o),
(590,536,cs),
(590,633,o),
(518,700,o),
(412,700,cs),
(39,700,l),
(39,534,l),
(341,534,ls),
(348,534,o),
(351,531,o),
(351,528,cs),
(351,526,o),
(350,524,o),
(347,521,cs),
(86,288,ls),
(41,249,o),
(24,207,o),
(24,164,cs),
(24,67,o),
(96,0,o),
(202,0,cs)
);
}
);
width = 619;
}
);
},
{
glyphname = C_T;
kernLeft = O_2nd;
kernRight = T_1st;
layers = (
{
background = {
shapes = (
{
closed = 1;
nodes = (
(846,0,l),
(846,23,l),
(806,23,ls),
(725,23,o),
(679,74,o),
(679,149,cs),
(679,677,l),
(919,677,l),
(919,700,l),
(414,700,l),
(414,677,l),
(654,677,l),
(654,154,ls),
(654,59,o),
(708,0,o),
(804,0,cs)
);
},
{
closed = 1;
nodes = (
(449,24,l),
(390,24,ls),
(203,24,o),
(58,165,o),
(58,351,cs),
(58,535,o),
(203,677,o),
(390,677,cs),
(449,677,l),
(449,700,l),
(387,700,ls),
(178,700,o),
(30,542,o),
(30,351,cs),
(30,159,o),
(178,0,o),
(387,0,cs),
(449,0,l)
);
}
);
};
layerId = "5dd0c03f-0ac1-43be-b978-266741ffc02a";
shapes = (
{
closed = 1;
nodes = (
(449,0,l),
(449,24,l),
(390,24,ls),
(203,24,o),
(58,165,o),
(58,351,cs),
(58,535,o),
(203,677,o),
(390,677,cs),
(654,677,l),
(654,154,ls),
(654,59,o),
(708,0,o),
(804,0,cs),
(846,0,l),
(846,23,l),
(806,23,ls),
(725,23,o),
(679,74,o),
(679,149,cs),
(679,677,l),
(919,677,l),
(919,700,l),
(387,700,ls),
(178,700,o),
(30,542,o),
(30,351,cs),
(30,159,o),
(178,0,o),
(387,0,cs)
);
}
);
width = 954;
},
{
layerId = "41AFA816-2F69-4745-BF67-F6DEA15443A0";
shapes = (
{
closed = 1;
nodes = (
(498,0,l),
(498,126,l),
(392,126,ls),
(265,126,o),
(173,222,o),
(173,350,cs),
(173,477,o),
(265,574,o),
(392,574,cs),
(648,574,l),
(648,209,ls),
(648,91,o),
(734,0,o),
(856,0,cs),
(906,0,l),
(906,126,l),
(856,126,ls),
(820,126,o),
(791,156,o),
(791,192,cs),
(791,574,l),
(986,574,l),
(986,700,l),
(389,700,ls),
(171,700,o),
(30,542,o),
(30,350,cs),
(30,158,o),
(171,0,o),
(389,0,cs)
);
}
);
width = 1001;
},
{
layerId = "32E5C913-0890-451E-8980-44FAA246AB8A";
shapes = (
{
closed = 1;
nodes = (
(530,0,l),
(530,169,l),
(409,169,ls),
(307,169,o),
(246,248,o),
(246,350,cs),
(246,452,o),
(307,531,o),
(409,531,cs),
(651,531,l),
(651,219,ls),
(651,93,o),
(749,0,o),
(882,0,cs),
(972,0,l),
(972,169,l),
(906,169,ls),
(884,169,o),
(867,186,o),
(867,208,cs),
(867,531,l),
(1045,531,l),
(1045,700,l),
(402,700,ls),
(174,700,o),
(26,558,o),
(26,350,cs),
(26,142,o),
(173,0,o),
(402,0,cs)
);
}
);
width = 1060;
}
);
metricLeft = C;
metricRight = T;
},
{
glyphname = F_T;
kernLeft = H_2nd;
kernRight = T_1st;
layers = (
{
background = {
shapes = (
{
ref = F;
},
{
alignment = -1;
pos = (412,0);
ref = T;
}
);
};
layerId = "5dd0c03f-0ac1-43be-b978-266741ffc02a";
shapes = (
{
closed = 1;
nodes = (
(110,0,l),
(110,342,l),
(437,342,l),
(437,365,l),
(110,365,l),
(110,551,ls),
(110,626,o),
(156,677,o),
(237,677,cs),
(687,677,l),
(687,154,ls),
(687,59,o),
(741,0,o),
(837,0,cs),
(879,0,l),
(879,23,l),
(839,23,ls),
(758,23,o),
(712,74,o),
(712,149,cs),
(712,677,l),
(952,677,l),
(952,700,l),
(235,700,ls),
(141,700,o),
(85,643,o),
(85,551,cs),
(85,0,l)
);
}
);
width = 987;
},
{
layerId = "41AFA816-2F69-4745-BF67-F6DEA15443A0";
shapes = (
{
closed = 1;
nodes = (
(201,0,l),
(201,257,l),
(431,257,l),
(431,383,l),
(201,383,l),
(201,496,ls),
(201,539,o),
(235,574,o),
(278,574,cs),
(601,574,l),
(601,209,ls),
(601,94,o),
(684,0,o),
(809,0,cs),
(859,0,l),
(859,126,l),
(809,126,ls),
(773,126,o),
(744,156,o),
(744,192,cs),
(744,574,l),
(929,574,l),
(929,700,l),
(262,700,ls),
(149,700,o),
(58,609,o),
(58,496,cs),
(58,0,l)
);
}
);
width = 944;
},
{
layerId = "32E5C913-0890-451E-8980-44FAA246AB8A";
shapes = (
{
closed = 1;
nodes = (
(257,0,l),
(257,240,l),
(475,240,l),
(475,405,l),
(257,405,l),
(257,482,ls),
(257,510,o),
(278,531,o),
(306,531,cs),
(613,531,l),
(613,219,ls),
(613,93,o),
(710,0,o),
(844,0,cs),
(934,0,l),
(934,169,l),
(868,169,ls),
(846,169,o),
(829,186,o),
(829,208,cs),
(829,531,l),
(1004,531,l),
(1004,700,l),
(273,700,ls),
(139,700,o),
(41,608,o),
(41,486,cs),
(41,0,l)
);
}
);
width = 1019;
}
);
metricLeft = F;
metricRight = T;
},
{
glyphname = L_L;
kernLeft = H_2nd;
kernRight = "1st";
layers = (
{
background = {
shapes = (
{
closed = 1;
nodes = (
(110,395,l),
(410,395,l),
(410,454,l),
(110,454,l)
);
}
);
};
layerId = "5dd0c03f-0ac1-43be-b978-266741ffc02a";
shapes = (
{
ref = L.ss01;
},
{
alignment = -1;
pos = (325,0);
ref = L;
}
);
width = 798;
},
{
background = {
shapes = (
{
closed = 1;
nodes = (
(597,246,ls),
(561,246,o),
(532,276,o),
(532,312,cs),
(532,820,l),
(389,820,l),
(389,329,ls),
(389,214,o),
(472,120,o),
(597,120,cs),
(782,120,l),
(782,246,l)
);
}
);
};
layerId = "41AFA816-2F69-4745-BF67-F6DEA15443A0";
shapes = (
{
ref = L.ss01;
},
{
alignment = -1;
pos = (331,0);
ref = L;
}
);
width = 802;
},
{
layerId = "32E5C913-0890-451E-8980-44FAA246AB8A";
shapes = (
{
alignment = -1;
ref = L.ss01;
},
{
alignment = -1;
pos = (417,0);
ref = L;
}
);
width = 923;
}
);
metricLeft = L;
metricRight = L;
},
{
glyphname = O_T;
kernLeft = O_2nd;
kernRight = T_1st;
layers = (
{
background = {
shapes = (
{
closed = 1;
nodes = (
(1275,0,l),
(1275,23,l),
(1235,23,ls),
(1154,23,o),
(1108,74,o),
(1108,149,cs),
(1108,677,l),
(1348,677,l),
(1348,700,l),
(775,700,l),
(775,677,l),
(1083,677,l),
(1083,154,ls),
(1083,59,o),
(1137,0,o),
(1233,0,cs)
);
},
{
closed = 1;
nodes = (
(419,700,ls),
(202,700,o),
(60,541,o),
(60,344,cs),
(60,146,o),
(202,-13,o),
(419,-13,cs),
(637,-13,o),
(778,146,o),
(778,344,cs),
(778,499,o),
(689,629,o),
(542,677,c),
(803,677,l),
(803,700,l)
);
},
{
closed = 1;
nodes = (
(753,152,o),
(612,10,o),
(419,10,cs),
(226,10,o),
(85,152,o),
(85,344,cs),
(85,533,o),
(226,677,o),
(419,677,cs),
(612,677,o),
(753,534,o),
(753,344,cs)
);
}
);
};
layerId = "5dd0c03f-0ac1-43be-b978-266741ffc02a";
shapes = (
{
closed = 1;
nodes = (
(637,-13,o),
(778,146,o),
(778,344,cs),
(778,499,o),
(689,629,o),
(542,677,c),
(1083,677,l),
(1083,154,ls),
(1083,59,o),
(1137,0,o),
(1233,0,cs),
(1275,0,l),
(1275,23,l),
(1235,23,ls),
(1154,23,o),
(1108,74,o),
(1108,149,cs),
(1108,677,l),
(1348,677,l),
(1348,700,l),
(419,700,ls),
(202,700,o),
(60,541,o),
(60,344,cs),
(60,146,o),
(202,-13,o),
(419,-13,cs)
);
},
{
closed = 1;
nodes = (
(226,10,o),
(85,152,o),
(85,344,cs),
(85,533,o),
(226,677,o),
(419,677,cs),
(612,677,o),
(753,534,o),
(753,344,cs),
(753,152,o),
(612,10,o),
(419,10,cs)
);
}
);
width = 1383;
},
{
layerId = "41AFA816-2F69-4745-BF67-F6DEA15443A0";
shapes = (
{
closed = 1;
nodes = (
(620,-12,o),
(764,148,o),
(764,344,cs),
(764,432,o),
(731,512,o),
(674,574,c),
(935,574,l),
(935,209,ls),
(935,94,o),
(1018,0,o),
(1143,0,cs),
(1203,0,l),
(1203,126,l),
(1143,126,ls),
(1107,126,o),
(1078,156,o),
(1078,192,cs),
(1078,574,l),
(1283,574,l),
(1283,700,l),
(397,700,ls),
(174,700,o),
(30,542,o),
(30,344,cs),
(30,148,o),
(174,-12,o),
(397,-12,cs)
);
},
{
closed = 1;
nodes = (
(268,114,o),
(173,214,o),
(173,344,cs),
(173,478,o),
(268,573,o),
(397,573,cs),
(526,573,o),
(621,478,o),
(621,344,cs),
(621,214,o),
(526,114,o),
(397,114,cs)
);
}
);
width = 1298;
},
{
layerId = "32E5C913-0890-451E-8980-44FAA246AB8A";
shapes = (
{
closed = 1;
nodes = (
(637,-13,o),
(784,144,o),
(784,337,cs),
(784,413,o),
(760,479,o),
(718,531,c),
(913,531,l),
(913,219,ls),
(913,93,o),
(1011,0,o),
(1145,0,cs),
(1237,0,l),
(1237,169,l),
(1168,169,ls),
(1146,169,o),
(1129,186,o),
(1129,208,cs),
(1129,531,l),
(1308,531,l),
(1308,700,l),
(405,700,ls),
(175,700,o),
(26,556,o),
(26,349,cs),
(26,141,o),
(175,-13,o),
(405,-13,cs)
);
},
{
closed = 1;
nodes = (
(303,155,o),
(246,237,o),
(246,349,cs),
(246,461,o),
(303,542,o),
(405,542,cs),
(507,542,o),
(564,461,o),
(564,349,cs),
(564,237,o),
(507,155,o),
(405,155,cs)
);
}
);
width = 1323;
}
);
metricLeft = O;
metricRight = T;
},
{
glyphname = S_T;
kernLeft = S_2nd;
kernRight = T_1st;
layers = (
{
background = {
shapes = (
{
closed = 1;
nodes = (
(389,0,ls),
(513,0,o),
(574,93,o),
(574,187,cs),
(574,280,o),
(513,368,o),
(389,368,cs),
(233,368,ls),
(134,368,o),
(81,448,o),
(81,523,cs),
(81,598,o),
(136,677,o),
(235,677,cs),
(641,677,l),
(641,700,l),
(240,700,ls),
(117,700,o),
(55,611,o),
(55,522,cs),
(55,434,o),
(117,345,o),
(240,345,cs),
(396,345,ls),
(496,345,o),
(548,266,o),
(548,186,cs),
(548,107,o),
(496,23,o),
(396,23,cs),
(78,23,l),
(78,0,l)
);
},
{
closed = 1;
nodes = (
(1043,0,l),
(1043,23,l),
(1003,23,ls),
(922,23,o),
(876,74,o),
(876,149,cs),
(876,677,l),
(1116,677,l),
(1116,700,l),
(611,700,l),
(611,677,l),
(851,677,l),
(851,154,ls),
(851,59,o),
(905,0,o),
(1001,0,cs)
);
}
);
};
layerId = "5dd0c03f-0ac1-43be-b978-266741ffc02a";
shapes = (
{
closed = 1;
nodes = (
(389,0,ls),
(513,0,o),
(574,93,o),
(574,187,cs),
(574,280,o),
(513,368,o),
(389,368,cs),
(233,368,ls),
(134,368,o),
(81,448,o),
(81,523,cs),
(81,598,o),
(136,677,o),
(235,677,cs),
(851,677,l),
(851,154,ls),
(851,59,o),
(905,0,o),
(1001,0,cs),
(1043,0,l),
(1043,23,l),
(1003,23,ls),
(922,23,o),
(876,74,o),
(876,149,cs),
(876,677,l),
(1116,677,l),
(1116,700,l),
(240,700,ls),
(117,700,o),
(55,611,o),
(55,522,cs),
(55,434,o),
(117,345,o),
(240,345,cs),
(396,345,ls),
(496,345,o),
(548,266,o),
(548,186,cs),
(548,107,o),
(496,23,o),
(396,23,cs),
(78,23,l),
(78,0,l)
);
}
);
width = 1151;
},
{
layerId = "41AFA816-2F69-4745-BF67-F6DEA15443A0";
shapes = (
{
closed = 1;
nodes = (
(387,0,ls),
(499,0,o),
(591,81,o),
(591,223,cs),
(591,343,o),
(506,423,o),
(377,423,cs),
(256,423,ls),
(215,423,o),
(183,455,o),
(183,498,cs),
(183,539,o),
(215,574,o),
(256,574,cs),
(766,574,l),
(766,209,ls),
(766,94,o),
(849,0,o),
(974,0,cs),
(1024,0,l),
(1024,126,l),
(974,126,ls),
(938,126,o),
(909,156,o),
(909,192,cs),
(909,574,l),
(1104,574,l),
(1104,700,l),
(242,700,ls),
(130,700,o),
(40,617,o),
(40,492,cs),
(40,364,o),
(134,289,o),
(252,289,cs),
(369,289,ls),
(412,289,o),
(449,253,o),
(449,207,cs),
(449,163,o),
(412,126,o),
(369,126,cs),
(69,126,l),
(69,0,l)
);
}
);
width = 1119;
},
{
layerId = "32E5C913-0890-451E-8980-44FAA246AB8A";
shapes = (
{
closed = 1;
nodes = (
(389,0,ls),
(513,0,o),
(614,84,o),
(614,231,cs),
(614,358,o),
(521,442,o),
(379,442,cs),
(282,442,ls),
(253,442,o),
(236,463,o),
(236,487,cs),
(236,510,o),
(253,531,o),
(282,531,cs),
(753,531,l),
(753,219,ls),
(753,93,o),
(850,0,o),
(984,0,cs),
(1074,0,l),
(1074,169,l),
(1007,169,ls),
(985,169,o),
(968,186,o),
(968,208,cs),
(968,531,l),
(1146,531,l),
(1146,700,l),
(253,700,ls),
(129,700,o),
(29,613,o),
(29,482,cs),
(29,348,o),
(133,270,o),
(263,270,cs),
(353,270,ls),
(386,270,o),
(406,246,o),
(406,219,cs),
(406,193,o),
(386,169,o),
(353,169,cs),
(56,169,l),
(56,0,l)
);
}
);
width = 1161;
}
);
metricLeft = S;
metricRight = T;
},
{
glyphname = T_T;
kernLeft = T_2nd;
kernRight = T_1st;
layers = (
{
background = {
shapes = (
{
closed = 1;
nodes = (
(930,0,l),
(930,23,l),
(890,23,ls),
(809,23,o),
(763,74,o),
(763,149,cs),
(763,677,l),
(1003,677,l),
(1003,700,l),
(498,700,l),
(498,677,l),
(738,677,l),
(738,154,ls),
(738,59,o),
(792,0,o),
(888,0,cs)
);
},
{
closed = 1;
nodes = (
(467,0,l),
(467,23,l),
(427,23,ls),
(346,23,o),
(300,74,o),
(300,149,cs),
(300,677,l),
(540,677,l),
(540,700,l),
(35,700,l),
(35,677,l),
(275,677,l),
(275,154,ls),
(275,59,o),
(329,0,o),
(425,0,cs)
);
}
);
};
layerId = "5dd0c03f-0ac1-43be-b978-266741ffc02a";
shapes = (
{
closed = 1;
nodes = (
(467,0,l),
(467,23,l),
(427,23,ls),
(346,23,o),
(300,74,o),
(300,149,cs),
(300,677,l),
(738,677,l),
(738,154,ls),
(738,59,o),
(792,0,o),
(888,0,cs),
(930,0,l),
(930,23,l),
(890,23,ls),
(809,23,o),
(763,74,o),
(763,149,cs),
(763,677,l),
(1003,677,l),
(1003,700,l),
(35,700,l),
(35,677,l),
(275,677,l),
(275,154,ls),
(275,59,o),
(329,0,o),
(425,0,cs)
);
}
);
width = 1038;
},
{
layerId = "41AFA816-2F69-4745-BF67-F6DEA15443A0";
shapes = (
{
closed = 1;
nodes = (
(468,0,l),
(468,126,l),
(418,126,ls),
(382,126,o),
(353,156,o),
(353,192,cs),
(353,574,l),
(599,574,l),
(599,209,ls),
(599,91,o),
(685,0,o),
(807,0,cs),
(857,0,l),
(857,126,l),
(807,126,ls),
(771,126,o),
(742,156,o),
(742,192,cs),
(742,574,l),
(937,574,l),
(937,700,l),
(15,700,l),
(15,574,l),
(210,574,l),
(210,209,ls),
(210,94,o),
(293,0,o),
(418,0,cs)
);
}
);
width = 952;
},
{
layerId = "32E5C913-0890-451E-8980-44FAA246AB8A";
shapes = (
{
closed = 1;
nodes = (
(517,0,l),
(517,169,l),
(450,169,ls),
(429,169,o),
(412,186,o),
(412,208,cs),
(412,531,l),
(627,531,l),
(627,219,ls),
(627,93,o),
(725,0,o),
(858,0,cs),
(948,0,l),
(948,169,l),
(881,169,ls),
(860,169,o),
(843,186,o),
(843,208,cs),
(843,531,l),
(1020,531,l),
(1020,700,l),
(15,700,l),
(15,531,l),
(196,531,l),
(196,219,ls),
(196,93,o),
(293,0,o),
(427,0,cs)
);
}
);
width = 1035;
}
);
metricLeft = T;
metricRight = T;
},
{
glyphname = T.ss01_T.ss01;
kernLeft = T_2nd;
kernRight = T_1st;
layers = (
{
background = {
shapes = (
{
closed = 1;
nodes = (
(763,0,l),
(763,677,l),
(1002,677,l),
(1002,700,l),
(498,700,l),
(498,677,l),
(738,677,l),
(738,0,l)
);
},
{
closed = 1;
nodes = (
(300,0,l),
(300,677,l),
(539,677,l),
(539,700,l),
(35,700,l),
(35,677,l),
(275,677,l),
(275,0,l)
);
}
);
};
layerId = "5dd0c03f-0ac1-43be-b978-266741ffc02a";
shapes = (
{
closed = 1;
nodes = (
(300,0,l),
(300,677,l),
(738,677,l),
(738,0,l),
(763,0,l),
(763,677,l),
(1002,677,l),
(1002,700,l),
(35,700,l),
(35,677,l),
(275,677,l),
(275,0,l)
);
}
);
width = 1037;
},
{
layerId = "41AFA816-2F69-4745-BF67-F6DEA15443A0";
shapes = (
{
closed = 1;
nodes = (
(363,0,l),
(363,574,l),
(609,574,l),
(609,0,l),
(752,0,l),
(752,574,l),
(957,574,l),
(957,700,l),
(15,700,l),
(15,574,l),
(220,574,l),
(220,0,l)
);
}
);
width = 972;
},
{
layerId = "32E5C913-0890-451E-8980-44FAA246AB8A";
shapes = (
{
closed = 1;
nodes = (
(415,0,l),
(415,531,l),
(630,531,l),
(630,0,l),
(846,0,l),
(846,531,l),
(1025,531,l),
(1025,700,l),
(15,700,l),
(15,531,l),
(199,531,l),
(199,0,l)
);
}
);
width = 1040;
}
);
metricLeft = T;
metricRight = T;
},
{
glyphname = T_h;
kernLeft = T_2nd;
kernRight = n_1st;
layers = (
{
background = {
shapes = (
{
closed = 1;
nodes = (
(605,0,l),
(605,295,ls),
(605,432,o),
(708,500,o),
(811,500,cs),
(915,500,o),
(1019,431,o),
(1019,295,cs),
(1019,0,l),
(1043,0,l),
(1044,299,ls),
(1044,448,o),
(928,523,o),
(812,523,cs),
(724,523,o),
(644,480,o),
(605,399,c),
(605,700,l),
(580,700,l),
(580,0,l)
);
},
{
closed = 1;
nodes = (
(458,24,l),
(428,24,l),
(339,24,o),
(280,82,o),
(280,168,c),
(280,677,l),
(593,677,l),
(593,700,l),
(15,700,l),
(15,677,l),
(255,677,l),
(255,159,l),
(255,69,o),
(328,0,o),
(423,0,c),
(458,0,l)
);
}
);
};
layerId = "5dd0c03f-0ac1-43be-b978-266741ffc02a";
shapes = (
{
closed = 1;
nodes = (
(467,0,l),
(467,23,l),
(427,23,ls),
(346,23,o),
(300,74,o),
(300,149,cs),
(300,677,l),
(580,677,l),
(580,0,l),
(605,0,l),
(605,295,ls),
(605,432,o),
(708,500,o),
(811,500,cs),
(915,500,o),
(1019,431,o),
(1019,295,cs),
(1019,0,l),
(1044,0,l),
(1044,299,ls),
(1044,448,o),
(928,523,o),
(812,523,cs),
(724,523,o),
(644,480,o),
(605,399,c),
(605,700,l),
(35,700,l),
(35,677,l),
(275,677,l),
(275,154,ls),
(275,59,o),
(329,0,o),
(425,0,cs)
);
}
);
width = 1129;
},
{
layerId = "41AFA816-2F69-4745-BF67-F6DEA15443A0";
shapes = (
{
closed = 1;
nodes = (
(458,0,l),
(458,126,l),
(418,126,ls),
(382,126,o),
(353,156,o),
(353,192,cs),
(353,574,l),
(529,574,l),
(529,0,l),
(666,0,l),
(666,297,ls),
(666,357,o),
(717,405,o),
(778,405,cs),
(840,405,o),
(890,355,o),
(890,293,cs),
(890,0,l),
(1027,0,l),
(1027,293,ls),
(1027,419,o),
(955,522,o),
(808,522,cs),
(760,522,o),
(708,508,o),
(666,474,c),
(666,700,l),
(15,700,l),
(15,574,l),
(210,574,l),
(210,209,ls),
(210,94,o),
(293,0,o),
(418,0,cs)
);
}
);
width = 1092;
},
{
layerId = "32E5C913-0890-451E-8980-44FAA246AB8A";
shapes = (
{
closed = 1;
nodes = (
(514,0,l),
(514,169,l),
(450,169,ls),
(429,169,o),
(412,186,o),
(412,208,cs),
(412,531,l),
(609,531,l),
(609,0,l),
(800,0,l),
(800,278,ls),
(800,326,o),
(836,355,o),
(876,355,cs),
(914,355,o),
(950,326,o),
(950,277,cs),
(950,0,l),
(1142,0,l),
(1142,298,ls),
(1142,442,o),
(1058,530,o),
(930,530,cs),
(884,530,o),
(837,515,o),
(800,489,c),
(800,700,l),
(15,700,l),
(15,531,l),
(196,531,l),
(196,219,ls),
(196,93,o),
(293,0,o),
(427,0,cs)
);
}
);
width = 1184;
}
);
metricLeft = T;
metricRight = h;
},
{
glyphname = T.ss01_h;
kernLeft = T_2nd;
kernRight = n_1st;
layers = (
{
background = {
shapes = (
{
closed = 1;
nodes = (
(300,0,l),
(300,677,l),
(614,677,l),
(614,700,l),
(35,700,l),
(35,677,l),
(275,677,l),
(275,0,l)
);
},
{
closed = 1;
nodes = (
(625,0,l),
(625,295,ls),
(625,432,o),
(728,500,o),
(831,500,cs),
(935,500,o),
(1039,431,o),
(1039,295,cs),
(1039,0,l),
(1063,0,l),
(1064,299,ls),
(1064,448,o),
(948,523,o),
(832,523,cs),
(744,523,o),
(664,480,o),
(625,399,c),
(625,700,l),
(600,700,l),
(600,0,l)
);
}
);
};
layerId = "5dd0c03f-0ac1-43be-b978-266741ffc02a";
shapes = (
{
closed = 1;
nodes = (
(300,0,l),
(300,677,l),
(600,677,l),
(600,0,l),
(625,0,l),
(625,295,ls),
(625,432,o),
(728,500,o),
(831,500,cs),
(935,500,o),
(1039,431,o),
(1039,295,cs),
(1039,0,l),
(1064,0,l),
(1064,299,ls),
(1064,448,o),
(948,523,o),
(832,523,cs),
(744,523,o),
(664,480,o),
(625,399,c),
(625,700,l),
(35,700,l),
(35,677,l),
(275,677,l),
(275,0,l)
);
}
);
width = 1149;
},
{
layerId = "41AFA816-2F69-4745-BF67-F6DEA15443A0";
shapes = (
{
closed = 1;
nodes = (
(353,0,l),
(353,574,l),
(531,574,l),
(531,0,l),
(668,0,l),
(668,297,ls),
(668,357,o),
(719,405,o),
(780,405,cs),
(842,405,o),
(892,355,o),
(892,293,cs),
(892,0,l),
(1029,0,l),
(1029,293,ls),
(1029,419,o),
(957,522,o),
(810,522,cs),
(762,522,o),
(710,508,o),
(668,474,c),
(668,700,l),
(15,700,l),
(15,574,l),
(210,574,l),
(210,0,l)
);
}
);
width = 1094;
},
{
layerId = "32E5C913-0890-451E-8980-44FAA246AB8A";
shapes = (
{
closed = 1;
nodes = (
(412,0,l),
(412,531,l),
(611,531,l),
(611,0,l),
(803,0,l),
(803,278,ls),
(803,326,o),
(838,356,o),
(878,356,cs),
(916,356,o),
(953,327,o),
(953,278,cs),
(953,1,l),
(1145,1,l),
(1145,299,ls),
(1145,443,o),
(1060,531,o),
(932,531,cs),
(886,531,o),
(839,516,o),
(802,489,c),
(802,700,l),
(15,700,l),
(15,531,l),
(197,531,l),
(197,0,l)
);
}
);
width = 1187;
}
);
metricLeft = T;
metricRight = h;
},
{
glyphname = T_i;
kernLeft = T_2nd;
kernRight = h_1st;
layers = (
{
background = {
shapes = (
{
closed = 1;
nodes = (
(230,574,l),
(230,209,ls),
(230,94,o),
(313,0,o),
(438,0,cs),
(478,0,l),
(478,126,l),
(438,126,ls),
(402,126,o),
(373,156,o),
(373,192,cs),
(373,574,l),
(498,574,l),
(498,700,l),
(35,700,l),
(35,574,l)
);
}
);
};
layerId = "5dd0c03f-0ac1-43be-b978-266741ffc02a";
shapes = (
{
closed = 1;
nodes = (
(478,0,l),
(478,24,l),
(448,24,ls),
(359,24,o),
(300,82,o),
(300,168,cs),
(300,677,l),
(498,677,l),
(498,700,l),
(35,700,l),
(35,677,l),
(275,677,l),
(275,159,ls),
(275,69,o),
(348,0,o),
(443,0,cs)
);
},
{
pos = (515,0);
ref = i;
}
);
width = 710;
},
{
layerId = "41AFA816-2F69-4745-BF67-F6DEA15443A0";
shapes = (
{
closed = 1;
nodes = (
(483,0,l),
(483,126,l),
(418,126,ls),
(382,126,o),
(353,156,o),
(353,192,cs),
(353,574,l),
(483,574,l),
(483,700,l),
(15,700,l),
(15,574,l),
(210,574,l),
(210,209,ls),
(210,94,o),
(293,0,o),
(418,0,cs)
);
},
{
pos = (495,0);
ref = i;
}
);
width = 762;
},
{
layerId = "32E5C913-0890-451E-8980-44FAA246AB8A";
shapes = (
{
closed = 1;
nodes = (
(543,0,l),
(543,169,l),
(450,169,ls),
(429,169,o),
(412,186,o),
(412,208,cs),
(412,531,l),
(543,531,l),
(543,700,l),
(15,700,l),
(15,531,l),
(196,531,l),
(196,219,ls),
(196,93,o),
(293,0,o),
(427,0,cs)
);
},
{
alignment = -1;
pos = (571,0);
ref = i;
}
);
width = 848;
}
);
metricLeft = T;
metricRight = i;
},
{
color = 9;
glyphname = T.ss01_i;
kernLeft = T_2nd;
kernRight = h_1st;
layers = (
{
background = {
shapes = (
{
closed = 1;
nodes = (
(300,345,l),
(600,345,l),
(600,412,l),
(300,412,l)
);
}
);
};
layerId = "5dd0c03f-0ac1-43be-b978-266741ffc02a";
shapes = (
{
closed = 1;
nodes = (
(300,0,l),
(300,677,l),
(625,677,l),
(625,700,l),
(35,700,l),
(35,677,l),
(275,677,l),
(275,0,l)
);
},
{
closed = 1;
nodes = (
(625,0,l),
(625,510,l),
(600,510,l),
(600,0,l)
);
}
);
width = 710;
},
{
layerId = "41AFA816-2F69-4745-BF67-F6DEA15443A0";
shapes = (
{
closed = 1;
nodes = (
(353,0,l),
(353,574,l),
(668,574,l),
(668,700,l),
(15,700,l),
(15,574,l),
(210,574,l),
(210,0,l)
);
},
{
closed = 1;
nodes = (
(667,0,l),
(667,510,l),
(529,510,l),
(529,0,l)
);
}
);
width = 733;
},
{
associatedMasterId = "41AFA816-2F69-4745-BF67-F6DEA15443A0";
attr = {
axisRules = (
{
min = 800;
}
);
};
layerId = "B65F643D-1234-47D3-8F10-FC9605F111B8";
name = "Demibold [800]";
shapes = (
{
closed = 1;
nodes = (
(353,0,l),
(353,574,l),
(464,574,l),
(464,700,l),
(15,700,l),
(15,574,l),
(210,574,l),
(210,0,l)
);
},
{
pos = (464,0);
ref = idotless;
},
{
pos = (512,-147);
ref = dotaccent;
}
);
width = 749;
},
{
associatedMasterId = "5dd0c03f-0ac1-43be-b978-266741ffc02a";
attr = {
axisRules = (
{
min = 800;
}
);
};
background = {
shapes = (
{
closed = 1;
nodes = (
(625,-150,l),
(625,360,l),
(600,360,l),
(600,-150,l)
);
}
);
};
layerId = "EC5776D6-BAEA-49CA-A3C5-2EA5BCE8508C";
name = "Thin [800]";
shapes = (
{
closed = 1;
nodes = (
(300,0,l),
(300,677,l),
(539,677,l),
(539,700,l),
(35,700,l),
(35,677,l),
(275,677,l),
(275,0,l)
);
},
{
alignment = -1;
pos = (514,0);
ref = idotless;
},
{
alignment = -1;
pos = (539,-56);
ref = dotaccent;
}
);
width = 723;
},
{
layerId = "32E5C913-0890-451E-8980-44FAA246AB8A";
shapes = (
{
closed = 1;
nodes = (
(412,0,l),
(412,531,l),
(798,531,l),
(798,700,l),
(15,700,l),
(15,531,l),
(197,531,l),
(197,0,l)
);
},
{
closed = 1;
nodes = (
(798,0,l),
(798,472,l),
(606,472,l),
(606,0,l)
);
}
);
width = 841;
},
{
associatedMasterId = "32E5C913-0890-451E-8980-44FAA246AB8A";
attr = {
axisRules = (
{
min = 800;
}
);
};
layerId = "4B4B6A61-F0D2-4CFF-B7CA-2583027A25CB";
name = "Black [800]";
shapes = (
{
closed = 1;
nodes = (
(412,0,l),
(412,531,l),
(538,531,l),
(538,700,l),
(15,700,l),
(15,531,l),
(197,531,l),
(197,0,l)
);
},
{
alignment = -1;
pos = (563,0);
ref = idotless;
},
{
alignment = -1;
pos = (598,-143);
ref = dotaccent;
}
);
width = 847;
}
);
metricLeft = T;
metricRight = l;
},
{
glyphname = T_iacute;
kernLeft = T_2nd;
kernRight = h_1st;
layers = (
{
background = {
shapes = (
{
closed = 1;
nodes = (
(300,361,l),
(600,361,l),
(600,425,l),
(300,425,l)
);
}
);
};
layerId = "5dd0c03f-0ac1-43be-b978-266741ffc02a";
shapes = (
{
closed = 1;
nodes = (
(478,0,l),
(478,24,l),
(448,24,ls),
(359,24,o),
(300,82,o),
(300,168,cs),
(300,677,l),
(498,677,l),
(498,700,l),
(35,700,l),
(35,677,l),
(275,677,l),
(275,159,ls),
(275,69,o),
(348,0,o),
(443,0,cs)
);
},
{
closed = 1;
nodes = (
(644,577,l),
(748,700,l),
(720,700,l),
(616,577,l)
);
},
{
closed = 1;
nodes = (
(625,0,l),
(625,510,l),
(600,510,l),
(600,0,l)
);
}
);
width = 735;
},
{
background = {
shapes = (
{
closed = 1;
nodes = (
(531,510,l),
(531,0,l),
(669,0,l),
(669,510,l)
);
}
);
};
layerId = "41AFA816-2F69-4745-BF67-F6DEA15443A0";
shapes = (
{
closed = 1;
nodes = (
(459,0,l),
(459,126,l),
(418,126,ls),
(382,126,o),
(353,156,o),
(353,192,cs),
(353,574,l),
(481,574,l),
(481,700,l),
(15,700,l),
(15,574,l),
(210,574,l),
(210,209,ls),
(210,94,o),
(293,0,o),
(418,0,cs)
);
},
{
closed = 1;
nodes = (
(662,577,l),
(746,700,l),
(617,700,l),
(533,577,l)
);
},
{
closed = 1;
nodes = (
(669,0,l),
(669,510,l),
(531,510,l),
(531,0,l)
);
}
);
width = 742;
},
{
layerId = "32E5C913-0890-451E-8980-44FAA246AB8A";
shapes = (
{
closed = 1;
nodes = (
(537,0,l),
(537,169,l),
(450,169,ls),
(429,169,o),
(412,186,o),
(412,208,cs),
(412,531,l),
(543,531,l),
(543,700,l),
(15,700,l),
(15,531,l),
(196,531,l),
(196,219,ls),
(196,93,o),
(293,0,o),
(427,0,cs)
);
},
{
closed = 1;
nodes = (
(775,577,l),
(868,713,l),
(714,713,l),
(621,577,l)
);
},
{
closed = 1;
nodes = (
(798,0,l),
(798,518,l),
(606,518,l),
(606,0,l)
);
}
);
width = 849;
}
);
metricLeft = T;
metricRight = iacute;
},
{
glyphname = T.ss01_iacute;
kernLeft = T_2nd;
kernRight = h_1st;
layers = (
{
background = {
shapes = (
{
closed = 1;
nodes = (
(15,574,l),
(220,574,l),
(220,0,l),
(363,0,l),
(363,574,l),
(492,574,l),
(492,700,l),
(15,700,l)
);
},
{
closed = 1;
nodes = (
(680,0,l),
(680,510,l),
(542,510,l),
(542,0,l)
);
},
{
closed = 1;
nodes = (
(665,577,l),
(749,700,l),
(620,700,l),
(536,577,l)
);
}
);
};
layerId = "5dd0c03f-0ac1-43be-b978-266741ffc02a";
shapes = (
{
closed = 1;
nodes = (
(300,0,l),
(300,677,l),
(498,677,l),
(498,700,l),
(35,700,l),
(35,677,l),
(275,677,l),
(275,0,l)
);
},
{
alignment = -1;
pos = (515,0);
ref = iacute;
}
);
width = 710;
},
{
background = {
shapes = (
{
closed = 1;
nodes = (
(680,0,l),
(680,510,l),
(542,510,l),
(542,0,l)
);
},
{
closed = 1;
nodes = (
(665,577,l),
(749,700,l),
(620,700,l),
(536,577,l)
);
}
);
};
layerId = "41AFA816-2F69-4745-BF67-F6DEA15443A0";
shapes = (
{
closed = 1;
nodes = (
(363,0,l),
(363,574,l),
(492,574,l),
(492,700,l),
(15,700,l),
(15,574,l),
(220,574,l),
(220,0,l)
);
},
{
pos = (477,0);
ref = iacute;
}
);
width = 744;
},
{
layerId = "32E5C913-0890-451E-8980-44FAA246AB8A";
shapes = (
{
closed = 1;
nodes = (
(415,0,l),
(415,531,l),
(530,531,l),
(530,700,l),
(15,700,l),
(15,531,l),
(199,531,l),
(199,0,l)
);
},
{
alignment = -1;
pos = (551,0);
ref = iacute;
}
);
width = 828;
}
);
metricLeft = T;
metricRight = iacute;
},
{
glyphname = C_T.ss01;
kernLeft = O_2nd;
kernRight = T_1st;
layers = (
{
background = {
shapes = (
{
closed = 1;
nodes = (
(30,158,o),
(171,4,o),
(389,0,c),
(498,0,l),
(498,126,l),
(392,126,l),
(265,128,o),
(173,222,o),
(173,350,cs),
(173,477,o),
(265,572,o),
(392,574,c),
(669,574,l),
(669,0,l),
(812,0,l),
(812,574,l),
(1007,574,l),
(1007,700,l),
(389,700,l),
(171,696,o),
(30,542,o),
(30,350,cs)
);
}
);
};
layerId = "5dd0c03f-0ac1-43be-b978-266741ffc02a";
shapes = (
{
closed = 1;
nodes = (
(449,0,l),
(449,24,l),
(390,24,ls),
(203,24,o),
(58,165,o),
(58,351,cs),
(58,535,o),
(203,677,o),
(390,677,cs),
(654,677,l),
(654,0,l),
(679,0,l),
(679,677,l),
(918,677,l),
(918,700,l),
(387,700,ls),
(178,700,o),
(30,542,o),
(30,351,cs),
(30,159,o),
(178,0,o),
(387,0,cs)
);
}
);
width = 953;
},
{
layerId = "41AFA816-2F69-4745-BF67-F6DEA15443A0";
shapes = (
{
closed = 1;
nodes = (
(498,0,l),
(498,126,l),
(392,126,ls),
(265,126,o),
(173,222,o),
(173,350,cs),
(173,477,o),
(265,574,o),
(392,574,cs),
(669,574,l),
(669,0,l),
(812,0,l),
(812,574,l),
(1007,574,l),
(1007,700,l),
(389,700,ls),
(171,700,o),
(30,542,o),
(30,350,cs),
(30,158,o),
(171,0,o),
(389,0,cs)
);
}
);
width = 1022;
},
{
layerId = "32E5C913-0890-451E-8980-44FAA246AB8A";
shapes = (
{
closed = 1;
nodes = (
(530,0,l),
(530,169,l),
(409,169,ls),
(307,169,o),
(246,248,o),
(246,350,cs),
(246,452,o),
(307,531,o),
(409,531,cs),
(664,531,l),
(664,0,l),
(880,0,l),
(880,531,l),
(1057,531,l),
(1057,700,l),
(402,700,ls),
(174,700,o),
(26,558,o),
(26,350,cs),
(26,142,o),
(173,0,o),
(402,0,cs)
);
}
);
width = 1072;
}
);
metricLeft = C;
metricRight = T.ss01;
},
{
glyphname = F_T.ss01;
kernLeft = H_2nd;
kernRight = T_1st;
layers = (
{
background = {
shapes = (
{
closed = 1;
nodes = (
(712,0,l),
(712,677,l),
(951,677,l),
(951,700,l),
(447,700,l),
(447,677,l),
(687,677,l),
(687,0,l)
);
},
{
closed = 1;
nodes = (
(110,0,l),
(110,342,l),
(437,342,l),
(437,365,l),
(110,365,l),
(110,551,ls),
(110,626,o),
(156,677,o),
(237,677,cs),
(477,677,l),
(477,700,l),
(235,700,ls),
(141,700,o),
(87,643,o),
(85,551,cs),
(85,0,l)
);
}
);
};
layerId = "5dd0c03f-0ac1-43be-b978-266741ffc02a";
shapes = (
{
closed = 1;
nodes = (
(110,0,l),
(110,342,l),
(437,342,l),
(437,365,l),
(110,365,l),
(110,551,ls),
(110,626,o),
(156,677,o),
(237,677,cs),
(687,677,l),
(687,0,l),
(712,0,l),
(712,677,l),
(951,677,l),
(951,700,l),
(235,700,ls),
(141,700,o),
(85,643,o),
(85,551,cs),
(85,0,l)
);
}
);
width = 986;
},
{
layerId = "41AFA816-2F69-4745-BF67-F6DEA15443A0";
shapes = (
{
closed = 1;
nodes = (
(201,0,l),
(201,257,l),
(471,257,l),
(471,383,l),
(201,383,l),
(201,496,ls),
(201,539,o),
(235,574,o),
(278,574,cs),
(640,574,l),
(640,0,l),
(783,0,l),
(783,574,l),
(978,574,l),
(978,700,l),
(262,700,ls),
(149,700,o),
(58,609,o),
(58,496,cs),
(58,0,l)
);
}
);
width = 993;
},
{
layerId = "32E5C913-0890-451E-8980-44FAA246AB8A";
shapes = (
{
closed = 1;
nodes = (
(257,0,l),
(257,240,l),
(485,240,l),
(485,405,l),
(257,405,l),
(257,482,ls),
(257,510,o),
(278,531,o),
(306,531,cs),
(615,531,l),
(615,0,l),
(831,0,l),
(831,531,l),
(1008,531,l),
(1008,700,l),
(273,700,ls),
(139,700,o),
(41,608,o),
(41,486,cs),
(41,0,l)
);
}
);
width = 1023;
}
);
metricLeft = F;
metricRight = T.ss01;
},
{
glyphname = L_J.ss01;
kernLeft = H_2nd;
kernRight = H_1st;
layers = (
{
background = {
shapes = (
{
closed = 1;
nodes = (
(395,0,l),
(437,0,ls),
(533,0,o),
(587,59,o),
(587,154,cs),
(587,700,l),
(562,700,l),
(562,149,ls),
(562,74,o),
(516,23,o),
(435,23,cs),
(395,23,l)
);
},
{
closed = 1;
nodes = (
(395,677,l),
(580,677,l),
(580,700,l),
(395,700,l)
);
}
);
};
layerId = "5dd0c03f-0ac1-43be-b978-266741ffc02a";
shapes = (
{
closed = 1;
nodes = (
(438,0,ls),
(534,0,o),
(588,59,o),
(588,154,cs),
(588,700,l),
(396,700,l),
(396,677,l),
(563,677,l),
(563,149,ls),
(563,74,o),
(517,23,o),
(436,23,cs),
(396,23,l),
(396,0,l)
);
},
{
alignment = -1;
ref = L.ss01;
}
);
width = 673;
},
{
layerId = "41AFA816-2F69-4745-BF67-F6DEA15443A0";
shapes = (
{
closed = 1;
nodes = (
(478,0,ls),
(603,0,o),
(686,94,o),
(686,209,cs),
(686,700,l),
(395,700,l),
(395,573,l),
(543,573,l),
(543,192,ls),
(543,156,o),
(514,126,o),
(478,126,cs),
(406,126,l),
(406,0,l)
);
},
{
alignment = -1;
ref = L.ss01;
}
);
width = 744;
},
{
layerId = "32E5C913-0890-451E-8980-44FAA246AB8A";
shapes = (
{
closed = 1;
nodes = (
(568,0,ls),
(702,0,o),
(799,93,o),
(799,219,cs),
(799,700,l),
(451,700,l),
(451,531,l),
(591,531,l),
(591,211,ls),
(591,188,o),
(573,169,o),
(549,169,cs),
(453,169,l),
(453,0,l)
);
},
{
alignment = -1;
ref = L.ss01;
}
);
width = 839;
}
);
metricLeft = L;
metricRight = J.ss01;
},
{
glyphname = O_T.ss01;
kernLeft = O_2nd;
kernRight = T_1st;
layers = (
{
background = {
shapes = (
{
closed = 1;
nodes = (
(30,148,o),
(174,-12,o),
(397,-12,cs),
(620,-12,o),
(764,148,o),
(764,344,cs),
(764,432,o),
(731,512,o),
(674,574,c),
(964,574,l),
(964,0,l),
(1107,0,l),
(1107,574,l),
(1312,574,l),
(1312,700,l),
(397,700,ls),
(174,700,o),
(30,542,o),
(30,344,cs)
);
},
{
closed = 1;
nodes = (
(173,478,o),
(268,573,o),
(397,573,cs),
(526,573,o),
(621,478,o),
(621,344,cs),
(621,214,o),
(526,114,o),
(397,114,cs),
(268,114,o),
(173,214,o),
(173,344,cs)
);
}
);
};
layerId = "5dd0c03f-0ac1-43be-b978-266741ffc02a";
shapes = (
{
closed = 1;
nodes = (
(637,-13,o),
(778,146,o),
(778,344,cs),
(778,499,o),
(689,629,o),
(542,677,c),
(1083,677,l),
(1083,0,l),
(1108,0,l),
(1108,677,l),
(1348,677,l),
(1348,700,l),
(419,700,ls),
(202,700,o),
(60,541,o),
(60,344,cs),
(60,146,o),
(202,-13,o),
(419,-13,cs)
);
},
{
closed = 1;
nodes = (
(226,10,o),
(85,152,o),
(85,344,cs),
(85,533,o),
(226,677,o),
(419,677,cs),
(612,677,o),
(753,534,o),
(753,344,cs),
(753,152,o),
(612,10,o),
(419,10,cs)
);
}
);
width = 1383;
},
{
layerId = "41AFA816-2F69-4745-BF67-F6DEA15443A0";
shapes = (
{
closed = 1;
nodes = (
(620,-12,o),
(764,148,o),
(764,344,cs),
(764,432,o),
(731,512,o),
(674,574,c),
(934,574,l),
(934,0,l),
(1077,0,l),
(1077,574,l),
(1282,574,l),
(1282,700,l),
(397,700,ls),
(174,700,o),
(30,542,o),
(30,344,cs),
(30,148,o),
(174,-12,o),
(397,-12,cs)
);
},
{
closed = 1;
nodes = (
(268,114,o),
(173,214,o),
(173,344,cs),
(173,478,o),
(268,573,o),
(397,573,cs),
(526,573,o),
(621,478,o),
(621,344,cs),
(621,214,o),
(526,114,o),
(397,114,cs)
);
}
);
width = 1297;
},
{
layerId = "32E5C913-0890-451E-8980-44FAA246AB8A";
shapes = (
{
closed = 1;
nodes = (
(637,-13,o),
(784,144,o),
(784,337,cs),
(784,413,o),
(760,479,o),
(718,531,c),
(913,531,l),
(913,0,l),
(1129,0,l),
(1129,531,l),
(1308,531,l),
(1308,700,l),
(405,700,ls),
(175,700,o),
(26,556,o),
(26,349,cs),
(26,141,o),
(175,-13,o),
(405,-13,cs)
);
},
{
closed = 1;
nodes = (
(303,155,o),
(246,237,o),
(246,349,cs),
(246,461,o),
(303,542,o),
(405,542,cs),
(507,542,o),
(564,461,o),
(564,349,cs),
(564,237,o),
(507,155,o),
(405,155,cs)
);
}
);
width = 1323;
}
);
metricLeft = O;
metricRight = T.ss01;
},
{
glyphname = S_T.ss01;
kernLeft = S_2nd;
kernRight = T_1st;
layers = (
{
background = {
shapes = (
{
closed = 1;
nodes = (
(50,364,o),
(144,289,o),
(262,289,cs),
(379,289,ls),
(422,289,o),
(459,253,o),
(459,207,cs),
(459,163,o),
(422,126,o),
(379,126,cs),
(79,126,l),
(79,0,l),
(397,0,ls),
(509,0,o),
(601,81,o),
(601,223,cs),
(601,343,o),
(516,423,o),
(387,423,cs),
(266,423,ls),
(225,423,o),
(193,455,o),
(193,498,cs),
(193,539,o),
(225,574,o),
(266,574,cs),
(776,574,l),
(776,0,l),
(919,0,l),
(919,574,l),
(1114,574,l),
(1114,700,l),
(252,700,ls),
(140,700,o),
(50,617,o),
(50,492,cs)
);
}
);
};
layerId = "5dd0c03f-0ac1-43be-b978-266741ffc02a";
shapes = (
{
closed = 1;
nodes = (
(389,0,ls),
(513,0,o),
(574,93,o),
(574,187,cs),
(574,280,o),
(513,368,o),
(389,368,cs),
(233,368,ls),
(134,368,o),
(81,448,o),
(81,523,cs),
(81,598,o),
(136,677,o),
(235,677,cs),
(851,677,l),
(851,0,l),
(876,0,l),
(876,677,l),
(1115,677,l),
(1115,700,l),
(240,700,ls),
(117,700,o),
(55,611,o),
(55,522,cs),
(55,434,o),
(117,345,o),
(240,345,cs),
(396,345,ls),
(496,345,o),
(548,266,o),
(548,186,cs),
(548,107,o),
(496,23,o),
(396,23,cs),
(78,23,l),
(78,0,l)
);
}
);
width = 1150;
},
{
layerId = "41AFA816-2F69-4745-BF67-F6DEA15443A0";
shapes = (
{
closed = 1;
nodes = (
(387,0,ls),
(499,0,o),
(591,81,o),
(591,223,cs),
(591,343,o),
(506,423,o),
(377,423,cs),
(256,423,ls),
(215,423,o),
(183,455,o),
(183,498,cs),
(183,539,o),
(215,574,o),
(256,574,cs),
(766,574,l),
(766,0,l),
(909,0,l),
(909,574,l),
(1104,574,l),
(1104,700,l),
(242,700,ls),
(130,700,o),
(40,617,o),
(40,492,cs),
(40,364,o),
(134,289,o),
(252,289,cs),
(369,289,ls),
(412,289,o),
(449,253,o),
(449,207,cs),
(449,163,o),
(412,126,o),
(369,126,cs),
(69,126,l),
(69,0,l)
);
}
);
width = 1119;
},
{
layerId = "32E5C913-0890-451E-8980-44FAA246AB8A";
shapes = (
{
closed = 1;
nodes = (
(389,0,ls),
(513,0,o),
(614,84,o),
(614,231,cs),
(614,358,o),
(521,442,o),
(379,442,cs),
(282,442,ls),
(253,442,o),
(236,463,o),
(236,487,cs),
(236,510,o),
(253,531,o),
(282,531,cs),
(754,531,l),
(754,0,l),
(970,0,l),
(970,531,l),
(1147,531,l),
(1147,700,l),
(253,700,ls),
(129,700,o),
(29,613,o),
(29,482,cs),
(29,348,o),
(133,270,o),
(263,270,cs),
(353,270,ls),
(386,270,o),
(406,246,o),
(406,219,cs),
(406,193,o),
(386,169,o),
(353,169,cs),
(56,169,l),
(56,0,l)
);
}
);
width = 1162;
}
);
metricLeft = S;
metricRight = T.ss01;
},
{
glyphname = a;
kernLeft = o_2nd;
kernRight = a_1st;
layers = (
{
background = {
shapes = (
{
closed = 1;
nodes = (
(358,-12,o),
(419,31,o),
(450,85,c),
(450,0,l),
(587,0,l),
(587,254,l),
(587,402,o),
(497,522,o),
(321,522,c),
(145,522,o),
(49,404,o),
(49,254,c),
(49,108,o),
(134,-12,o),
(280,-12,c)
);
},
{
closed = 1;
nodes = (
(237,105,o),
(188,172,o),
(188,256,c),
(188,339,o),
(237,405,o),
(319,405,c),
(399,405,o),
(448,339,o),
(448,256,c),
(448,172,o),
(399,105,o),
(319,105,c)
);
}
);
};
layerId = "5dd0c03f-0ac1-43be-b978-266741ffc02a";
shapes = (
{
closed = 1;
nodes = (
(436,-13,o),
(515,69,o),
(544,133,c),
(547,133,l),
(547,0,l),
(572,0,l),
(572,264,ls),
(572,411,o),
(469,522,o),
(321,522,cs),
(158,522,o),
(60,408,o),
(60,256,cs),
(60,103,o),
(151,-13,o),
(314,-13,cs)
);
},
{
closed = 1;
nodes = (
(168,9,o),
(86,117,o),
(86,250,cs),
(86,393,o),
(173,500,o),
(319,500,cs),
(457,500,o),
(546,397,o),
(546,258,cs),
(546,113,o),
(446,9,o),
(314,9,cs)
);
}
);
width = 657;
},
{
layerId = "41AFA816-2F69-4745-BF67-F6DEA15443A0";
shapes = (
{
closed = 1;
nodes = (
(354,-12,o),
(403,32,o),
(434,85,c),
(436,85,l),
(436,0,l),
(573,0,l),
(573,254,ls),
(573,402,o),
(478,522,o),
(307,522,cs),
(136,522,o),
(35,404,o),
(35,254,cs),
(35,108,o),
(125,-12,o),
(266,-12,cs)
);
},
{
closed = 1;
nodes = (
(223,105,o),
(174,172,o),
(174,256,cs),
(174,339,o),
(223,405,o),
(305,405,cs),
(385,405,o),
(434,339,o),
(434,256,cs),
(434,172,o),
(385,105,o),
(305,105,cs)
);
}
);
width = 638;
},
{
layerId = "32E5C913-0890-451E-8980-44FAA246AB8A";
shapes = (
{
closed = 1;
nodes = (
(341,-13,o),
(390,22,o),
(417,77,c),
(423,77,l),
(423,0,l),
(605,0,l),
(605,257,ls),
(605,418,o),
(492,530,o),
(323,530,cs),
(150,530,o),
(31,414,o),
(31,248,cs),
(31,92,o),
(130,-13,o),
(260,-13,cs)
);
},
{
closed = 1;
nodes = (
(266,155,o),
(228,198,o),
(228,258,cs),
(228,315,o),
(266,357,o),
(319,357,cs),
(372,357,o),
(410,315,o),
(410,258,cs),
(410,197,o),
(372,155,o),
(319,155,cs)
);
}
);
width = 648;
}
);
unicode = 97;
},
{
glyphname = aogonek;
kernLeft = o_2nd;
layers = (
{
layerId = "5dd0c03f-0ac1-43be-b978-266741ffc02a";
shapes = (
{
closed = 1;
nodes = (
(550,-218,o),
(569,-212,o),
(575,-210,c),
(575,-185,l),
(554,-191,o),
(539,-194,o),
(527,-194,cs),
(485,-194,o),
(461,-171,o),
(461,-132,cs),
(461,-66,o),
(564,-5,o),
(572,0,c),
(552,16,l),
(545,12,o),
(436,-57,o),
(436,-134,cs),
(436,-187,o),
(472,-218,o),
(530,-218,cs)
);
},
{
alignment = -1;
ref = a;
}
);
width = 638;
},
{
layerId = "41AFA816-2F69-4745-BF67-F6DEA15443A0";
shapes = (
{
closed = 1;
nodes = (
(535,-218,o),
(559,-215,o),
(573,-211,c),
(573,-126,l),
(559,-131,o),
(545,-134,o),
(530,-134,cs),
(499,-134,o),
(475,-112,o),
(475,-80,cs),
(475,-29,o),
(534,57,o),
(540,66,c),
(505,86,l),
(498,78,o),
(390,-33,o),
(390,-104,cs),
(390,-181,o),
(449,-218,o),
(521,-218,cs)
);
},
{
alignment = -1;
ref = a;
}
);
width = 638;
},
{
layerId = "32E5C913-0890-451E-8980-44FAA246AB8A";
shapes = (
{
closed = 1;
nodes = (
(516,-219,o),
(548,-215,o),
(566,-210,c),
(566,-117,l),
(554,-121,o),
(538,-124,o),
(521,-124,cs),
(487,-124,o),
(469,-104,o),
(469,-77,cs),
(469,-29,o),
(534,62,o),
(539,69,c),
(482,95,l),
(475,87,o),
(359,-26,o),
(359,-106,cs),
(359,-186,o),
(417,-219,o),
(494,-219,cs)
);
},
{
alignment = -1;
ref = a;
}
);
width = 634;
}
);
unicode = 261;
},
{
glyphname = ae;
kernLeft = a__2nd;
kernRight = e_1st;
layers = (
{
background = {
shapes = (
{
alignment = -1;
ref = a.ss01;
},
{
pos = (402,0);
ref = e;
}
);
};
layerId = "5dd0c03f-0ac1-43be-b978-266741ffc02a";
shapes = (
{
closed = 1;
nodes = (
(348,0,ls),
(429,0,o),
(485,62,o),
(485,142,c),
(529,47,o),
(629,0,o),
(748,0,cs),
(860,0,l),
(860,23,l),
(740,23,ls),
(608,23,o),
(488,99,o),
(488,244,c),
(920,244,l),
(922,258,o),
(923,272,o),
(923,287,cs),
(923,420,o),
(833,522,o),
(697,522,cs),
(594,522,o),
(520,459,o),
(485,374,c),
(485,453,o),
(433,510,o),
(356,510,cs),
(97,510,l),
(97,488,l),
(353,488,ls),
(418,488,o),
(460,442,o),
(460,380,cs),
(460,282,l),
(179,282,ls),
(106,282,o),
(50,230,o),
(50,147,cs),
(50,61,o),
(105,0,o),
(178,0,cs)
);
},
{
closed = 1;
nodes = (
(116,22,o),
(75,87,o),
(75,146,cs),
(75,209,o),
(114,260,o),
(187,260,cs),
(461,260,l),
(461,140,ls),
(461,73,o),
(410,22,o),
(347,22,cs),
(182,22,ls)
);
},
{
closed = 1;
nodes = (
(488,376,o),
(566,499,o),
(694,499,cs),
(876,499,o),
(903,334,o),
(896,267,c),
(488,267,l)
);
}
);
width = 983;
},
{
layerId = "41AFA816-2F69-4745-BF67-F6DEA15443A0";
shapes = (
{
closed = 1;
nodes = (
(350,0,ls),
(399,0,o),
(442,23,o),
(472,61,c),
(520,22,o),
(582,0,o),
(656,0,cs),
(800,0,l),
(800,117,l),
(658,117,ls),
(584,117,o),
(530,149,o),
(515,211,c),
(860,211,l),
(862,220,o),
(864,241,o),
(864,255,cs),
(864,402,o),
(792,522,o),
(621,522,cs),
(560,522,o),
(505,499,o),
(462,460,c),
(434,491,o),
(396,510,o),
(354,510,cs),
(89,510,l),
(89,393,l),
(341,393,ls),
(361,393,o),
(379,378,o),
(379,357,cs),
(379,303,l),
(193,303,ls),
(109,303,o),
(40,250,o),
(40,153,cs),
(40,69,o),
(109,0,o),
(193,0,cs)
);
},
{
closed = 1;
nodes = (
(197,117,o),
(175,135,o),
(175,162,cs),
(175,189,o),
(197,211,o),
(224,211,cs),
(379,211,l),
(379,156,ls),
(379,133,o),
(361,117,o),
(337,117,cs),
(224,117,ls)
);
},
{
closed = 1;
nodes = (
(521,357,o),
(554,409,o),
(622,409,cs),
(686,409,o),
(721,368,o),
(727,303,c),
(514,303,l)
);
}
);
width = 896;
},
{
layerId = "32E5C913-0890-451E-8980-44FAA246AB8A";
shapes = (
{
closed = 1;
nodes = (
(349,0,ls),
(394,0,o),
(437,16,o),
(467,43,c),
(516,15,o),
(575,0,o),
(643,0,cs),
(811,0,l),
(811,149,l),
(621,149,ls),
(571,149,o),
(542,164,o),
(535,199,c),
(856,199,l),
(861,222,o),
(864,259,o),
(864,284,cs),
(864,438,o),
(754,530,o),
(613,530,cs),
(555,530,o),
(498,513,o),
(450,480,c),
(424,499,o),
(388,510,o),
(353,510,cs),
(86,510,l),
(86,367,l),
(315,367,ls),
(336,367,o),
(354,360,o),
(354,341,cs),
(354,318,l),
(185,318,ls),
(93,318,o),
(33,261,o),
(33,170,cs),
(33,77,o),
(99,0,o),
(192,0,cs)
);
},
{
closed = 1;
nodes = (
(226,134,o),
(213,152,o),
(213,173,cs),
(213,194,o),
(228,214,o),
(262,214,cs),
(354,214,l),
(354,168,ls),
(354,148,o),
(338,134,o),
(318,134,cs),
(259,134,ls)
);
},
{
closed = 1;
nodes = (
(535,348,o),
(559,381,o),
(608,381,cs),
(655,381,o),
(680,344,o),
(679,305,c),
(531,305,l)
);
}
);
width = 895;
}
);
unicode = 230;
},
{
glyphname = b;
kernLeft = h_2nd;
kernRight = o_1st;
layers = (
{
background = {
shapes = (
{
closed = 1;
nodes = (
(508,-12,o),
(605,105,o),
(605,255,cs),
(605,416,o),
(500,522,o),
(359,522,cs),
(295,522,o),
(235,493,o),
(204,447,c),
(204,730,l),
(67,730,l),
(67,265,ls),
(67,96,o),
(171,-12,o),
(336,-12,cs)
);
},
{
closed = 1;
nodes = (
(255,105,o),
(206,171,o),
(206,255,cs),
(206,339,o),
(255,405,o),
(336,405,cs),
(417,405,o),
(466,339,o),
(466,255,cs),
(466,171,o),
(417,105,o),
(336,105,cs)
);
}
);
};
layerId = "5dd0c03f-0ac1-43be-b978-266741ffc02a";
shapes = (
{
closed = 1;
nodes = (
(461,-13,o),
(588,76,o),
(588,255,cs),
(588,426,o),
(466,522,o),
(336,522,cs),
(238,522,o),
(149,460,o),
(113,377,c),
(110,377,l),
(110,730,l),
(85,730,l),
(85,247,ls),
(85,74,o),
(210,-13,o),
(335,-13,cs)
);
},
{
closed = 1;
nodes = (
(222,10,o),
(110,91,o),
(110,253,cs),
(110,416,o),
(222,499,o),
(337,499,cs),
(451,499,o),
(563,409,o),
(563,255,cs),
(563,93,o),
(448,10,o),
(334,10,cs)
);
}
);
width = 648;
},
{
layerId = "41AFA816-2F69-4745-BF67-F6DEA15443A0";
shapes = (
{
closed = 1;
nodes = (
(501,-12,o),
(598,105,o),
(598,265,cs),
(598,416,o),
(501,522,o),
(352,522,cs),
(288,522,o),
(229,493,o),
(198,447,c),
(197,447,l),
(197,730,l),
(60,730,l),
(60,265,ls),
(60,96,o),
(164,-12,o),
(329,-12,cs)
);
},
{
closed = 1;
nodes = (
(248,105,o),
(199,171,o),
(199,255,cs),
(199,339,o),
(248,405,o),
(329,405,cs),
(410,405,o),
(459,339,o),
(459,255,cs),
(459,171,o),
(410,105,o),
(329,105,cs)
);
}
);
width = 633;
},
{
layerId = "32E5C913-0890-451E-8980-44FAA246AB8A";
shapes = (
{
closed = 1;
nodes = (
(501,-13,o),
(615,101,o),
(615,266,cs),
(615,425,o),
(507,530,o),
(369,530,cs),
(314,530,o),
(269,513,o),
(239,477,c),
(233,477,l),
(233,730,l),
(41,730,l),
(41,268,ls),
(41,98,o),
(157,-13,o),
(328,-13,cs)
);
},
{
closed = 1;
nodes = (
(275,155,o),
(237,197,o),
(237,258,cs),
(237,315,o),
(275,357,o),
(328,357,cs),
(381,357,o),
(419,315,o),
(419,258,cs),
(419,197,o),
(381,155,o),
(328,155,cs)
);
}
);
width = 647;
}
);
unicode = 98;
},
{
glyphname = c;
kernLeft = o_2nd;
kernRight = c_1st;
layers = (
{
layerId = "5dd0c03f-0ac1-43be-b978-266741ffc02a";
shapes = (
{
closed = 1;
nodes = (
(389,0,l),
(389,23,l),
(327,23,ls),
(199,23,o),
(85,125,o),
(85,255,cs),
(85,385,o),
(199,487,o),
(327,487,cs),
(389,487,l),
(389,510,l),
(335,510,ls),
(177,510,o),
(60,398,o),
(60,255,cs),
(60,111,o),
(177,0,o),
(335,0,cs)
);
}
);
width = 424;
},
{
layerId = "41AFA816-2F69-4745-BF67-F6DEA15443A0";
shapes = (
{
closed = 1;
nodes = (
(374,0,l),
(374,117,l),
(310,117,ls),
(226,117,o),
(174,177,o),
(174,255,cs),
(174,333,o),
(226,393,o),
(310,393,cs),
(374,393,l),
(374,510,l),
(310,510,ls),
(152,510,o),
(35,398,o),
(35,255,cs),
(35,111,o),
(152,0,o),
(310,0,cs)
);
}
);
width = 404;
},
{
layerId = "32E5C913-0890-451E-8980-44FAA246AB8A";
shapes = (
{
closed = 1;
nodes = (
(412,0,l),
(412,155,l),
(327,155,ls),
(263,155,o),
(222,200,o),
(222,258,cs),
(222,316,o),
(263,360,o),
(327,360,cs),
(412,360,l),
(412,518,l),
(310,518,ls),
(148,518,o),
(31,412,o),
(31,258,cs),
(31,104,o),
(148,0,o),
(310,0,cs)
);
}
);
width = 438;
}
);
unicode = 99;
},
{
glyphname = d;
kernLeft = o_2nd;
kernRight = h_1st;
layers = (
{
background = {
shapes = (
{
closed = 1;
nodes = (
(469,-12,o),
(573,96,o),
(573,265,cs),
(573,730,l),
(436,730,l),
(436,447,l),
(405,493,o),
(345,522,o),
(281,522,cs),
(140,522,o),
(35,416,o),
(35,255,cs),
(35,105,o),
(132,-12,o),
(304,-12,cs)
);
},
{
closed = 1;
nodes = (
(223,105,o),
(174,171,o),
(174,255,cs),
(174,339,o),
(223,405,o),
(304,405,cs),
(385,405,o),
(434,339,o),
(434,255,cs),
(434,171,o),
(385,105,o),
(304,105,cs)
);
},
{
closed = 1;
nodes = (
(543,383,l),
(543,379,l),
(504,465,o),
(421,522,o),
(315,522,cs),
(157,522,o),
(60,408,o),
(60,256,cs),
(60,103,o),
(149,-13,o),
(307,-13,cs),
(429,-13,o),
(510,69,o),
(539,133,c),
(542,133,l),
(542,0,l),
(567,0,l),
(567,730,l),
(543,730,l)
);
},
{
closed = 1;
nodes = (
(166,9,o),
(86,117,o),
(86,250,cs),
(86,393,o),
(172,500,o),
(313,500,cs),
(451,500,o),
(542,397,o),
(542,258,cs),
(542,113,o),
(439,9,o),
(307,9,cs)
);
}
);
};
layerId = "5dd0c03f-0ac1-43be-b978-266741ffc02a";
shapes = (
{
pos = (648,0);
ref = b;
scale = (-1,1);
}
);
width = 648;
},
{
background = {
shapes = (
{
closed = 1;
nodes = (
(469,-12,o),
(573,96,o),
(573,265,cs),
(573,730,l),
(436,730,l),
(436,447,l),
(405,493,o),
(345,522,o),
(281,522,cs),
(140,522,o),
(35,416,o),
(35,255,cs),
(35,105,o),
(132,-12,o),
(304,-12,cs)
);
},
{
closed = 1;
nodes = (
(223,105,o),
(174,171,o),
(174,255,cs),
(174,339,o),
(223,405,o),
(304,405,cs),
(385,405,o),
(434,339,o),
(434,255,cs),
(434,171,o),
(385,105,o),
(304,105,cs)
);
}
);
};
layerId = "41AFA816-2F69-4745-BF67-F6DEA15443A0";
shapes = (
{
pos = (633,0);
ref = b;
scale = (-1,1);
}
);
width = 633;
},
{
layerId = "32E5C913-0890-451E-8980-44FAA246AB8A";
shapes = (
{
pos = (647,0);
ref = b;
scale = (-1,1);
}
);
width = 647;
}
);
unicode = 100;
},
{
glyphname = eth;
kernLeft = o_2nd;
kernRight = o_1st;
layers = (
{
background = {
shapes = (
{
closed = 1;
nodes = (
(438,-13,o),
(563,74,o),
(563,253,cs),
(563,296,o),
(558,347,o),
(519,416,c),
(381,629,l),
(466,642,l),
(466,664,l),
(368,648,l),
(314,732,l),
(287,730,l),
(342,644,l),
(178,618,l),
(178,597,l),
(355,625,l),
(447,482,l),
(446,481,l),
(408,507,o),
(362,522,o),
(312,522,cs),
(182,522,o),
(60,426,o),
(60,255,cs),
(60,76,o),
(187,-13,o),
(313,-13,cs)
);
},
{
closed = 1;
nodes = (
(200,10,o),
(85,93,o),
(85,255,cs),
(85,409,o),
(197,499,o),
(311,499,cs),
(426,499,o),
(538,416,o),
(538,253,cs),
(538,91,o),
(426,10,o),
(314,10,cs)
);
}
);
};
layerId = "5dd0c03f-0ac1-43be-b978-266741ffc02a";
shapes = (
{
closed = 1;
nodes = (
(438,-13,o),
(563,74,o),
(563,253,cs),
(563,296,o),
(558,347,o),
(519,416,c),
(381,629,l),
(466,642,l),
(466,664,l),
(368,648,l),
(314,732,l),
(286,732,l),
(342,644,l),
(178,618,l),
(178,597,l),
(355,625,l),
(447,482,l),
(446,481,l),
(408,507,o),
(362,522,o),
(312,522,cs),
(182,522,o),
(60,426,o),
(60,255,cs),
(60,76,o),
(187,-13,o),
(313,-13,cs)
);
},
{
closed = 1;
nodes = (
(200,10,o),
(85,93,o),
(85,255,cs),
(85,409,o),
(197,499,o),
(311,499,cs),
(426,499,o),
(538,416,o),
(538,253,cs),
(538,91,o),
(426,10,o),
(314,10,cs)
);
}
);
width = 648;
},
{
background = {
shapes = (
{
closed = 1;
nodes = (
(469,-12,o),
(573,96,o),
(573,265,cs),
(573,355,o),
(535,433,o),
(481,517,cs),
(345,730,l),
(182,730,l),
(347,488,l),
(345,487,l),
(322,501,o),
(288,511,o),
(258,511,cs),
(144,511,o),
(35,412,o),
(35,255,cs),
(35,105,o),
(132,-12,o),
(304,-12,cs)
);
},
{
closed = 1;
nodes = (
(223,105,o),
(174,171,o),
(174,255,cs),
(174,335,o),
(222,405,o),
(307,405,cs),
(381,405,o),
(434,347,o),
(434,255,cs),
(434,171,o),
(385,105,o),
(304,105,cs)
);
},
{
closed = 1;
nodes = (
(484,623,l),
(484,703,l),
(160,655,l),
(160,574,l)
);
}
);
};
layerId = "41AFA816-2F69-4745-BF67-F6DEA15443A0";
shapes = (
{
closed = 1;
nodes = (
(469,-12,o),
(573,96,o),
(573,265,cs),
(573,355,o),
(535,433,o),
(481,517,cs),
(420,613,l),
(484,623,l),
(484,703,l),
(373,687,l),
(345,730,l),
(182,730,l),
(226,665,l),
(160,655,l),
(160,574,l),
(276,592,l),
(347,488,l),
(345,487,l),
(322,501,o),
(288,511,o),
(258,511,cs),
(144,511,o),
(35,412,o),
(35,255,cs),
(35,105,o),
(132,-12,o),
(304,-12,cs)
);
},
{
closed = 1;
nodes = (
(223,105,o),
(174,171,o),
(174,255,cs),
(174,335,o),
(222,405,o),
(307,405,cs),
(381,405,o),
(434,347,o),
(434,255,cs),
(434,171,o),
(385,105,o),
(304,105,cs)
);
}
);
width = 608;
},
{
layerId = "32E5C913-0890-451E-8980-44FAA246AB8A";
shapes = (
{
closed = 1;
nodes = (
(492,-12,o),
(605,99,o),
(605,270,cs),
(605,372,o),
(564,443,o),
(496,541,cs),
(457,599,l),
(521,608,l),
(521,710,l),
(396,693,l),
(371,730,l),
(143,730,l),
(192,665,l),
(120,655,l),
(120,550,l),
(264,571,l),
(312,511,l),
(310,509,l),
(294,515,o),
(275,518,o),
(257,518,cs),
(135,518,o),
(31,408,o),
(31,260,cs),
(31,94,o),
(145,-12,o),
(321,-12,cs)
);
},
{
closed = 1;
nodes = (
(266,160,o),
(228,202,o),
(228,263,cs),
(228,319,o),
(266,362,o),
(321,362,cs),
(371,362,o),
(410,322,o),
(410,263,cs),
(410,203,o),
(372,160,o),
(320,160,cs)
);
}
);
width = 637;
}
);
unicode = 240;
},
{
glyphname = dcroat;
kernLeft = o_2nd;
kernRight = h_1st;
layers = (
{
layerId = "5dd0c03f-0ac1-43be-b978-266741ffc02a";
shapes = (
{
closed = 1;
nodes = (
(642,616,l),
(642,637,l),
(250,637,l),
(250,616,l)
);
},
{
ref = d;
}
);
width = 648;
},
{
layerId = "41AFA816-2F69-4745-BF67-F6DEA15443A0";
shapes = (
{
closed = 1;
nodes = (
(633,577,l),
(633,656,l),
(241,656,l),
(241,577,l)
);
},
{
alignment = -1;
ref = d;
}
);
width = 633;
},
{
layerId = "32E5C913-0890-451E-8980-44FAA246AB8A";
shapes = (
{
closed = 1;
nodes = (
(653,567,l),
(653,658,l),
(241,658,l),
(241,567,l)
);
},
{
alignment = -1;
ref = d;
}
);
width = 641;
}
);
unicode = 273;
},
{
glyphname = e;
kernLeft = o_2nd;
kernRight = e_1st;
layers = (
{
background = {
shapes = (
{
closed = 1;
nodes = (
(474,0,l),
(474,117,l),
(332,117,ls),
(258,117,o),
(204,149,o),
(189,211,c),
(534,211,l),
(536,220,o),
(538,241,o),
(538,255,cs),
(538,402,o),
(466,522,o),
(295,522,cs),
(151,522,o),
(43,417,o),
(43,255,cs),
(43,110,o),
(155,0,o),
(330,0,cs)
);
},
{
closed = 1;
nodes = (
(195,357,o),
(228,409,o),
(296,409,cs),
(360,409,o),
(395,368,o),
(401,303,c),
(188,303,l)
);
}
);
};
layerId = "5dd0c03f-0ac1-43be-b978-266741ffc02a";
shapes = (
{
closed = 1;
nodes = (
(458,0,l),
(458,23,l),
(338,23,ls),
(206,23,o),
(86,99,o),
(86,244,c),
(518,244,l),
(520,258,o),
(521,272,o),
(521,287,cs),
(521,420,o),
(431,522,o),
(295,522,cs),
(147,522,o),
(60,393,o),
(60,255,cs),
(60,85,o),
(187,0,o),
(346,0,cs)
);
},
{
closed = 1;
nodes = (
(86,376,o),
(164,499,o),
(292,499,cs),
(474,499,o),
(501,334,o),
(494,267,c),
(86,267,l)
);
}
);
width = 581;
},
{
layerId = "41AFA816-2F69-4745-BF67-F6DEA15443A0";
shapes = (
{
closed = 1;
nodes = (
(466,0,l),
(466,117,l),
(324,117,ls),
(250,117,o),
(196,149,o),
(181,211,c),
(526,211,l),
(528,220,o),
(530,241,o),
(530,255,cs),
(530,402,o),
(458,522,o),
(287,522,cs),
(143,522,o),
(35,417,o),
(35,255,cs),
(35,110,o),
(147,0,o),
(322,0,cs)
);
},
{
closed = 1;
nodes = (
(187,357,o),
(220,409,o),
(288,409,cs),
(352,409,o),
(387,368,o),
(393,303,c),
(180,303,l)
);
}
);
width = 562;
},
{
layerId = "32E5C913-0890-451E-8980-44FAA246AB8A";
shapes = (
{
closed = 1;
nodes = (
(501,0,l),
(501,149,l),
(316,149,ls),
(267,149,o),
(235,164,o),
(228,199,c),
(546,199,l),
(551,222,o),
(554,259,o),
(554,284,cs),
(554,438,o),
(444,530,o),
(303,530,cs),
(164,530,o),
(31,439,o),
(31,258,cs),
(31,92,o),
(160,0,o),
(333,0,cs)
);
},
{
closed = 1;
nodes = (
(223,348,o),
(249,381,o),
(300,381,cs),
(351,381,o),
(377,344,o),
(377,305,c),
(219,305,l)
);
}
);
width = 585;
}
);
unicode = 101;
},
{
glyphname = eogonek;
kernLeft = o_2nd;
kernRight = e_1st;
layers = (
{
background = {
shapes = (
{
closed = 1;
nodes = (
(489,-218,o),
(513,-215,o),
(527,-211,c),
(527,-126,l),
(513,-131,o),
(499,-134,o),
(484,-134,cs),
(453,-134,o),
(429,-112,o),
(429,-80,cs),
(429,-57,o),
(447,-27,o),
(466,0,c),
(466,0,o),
(466,77,o),
(466,77,c),
(435,47,o),
(344,-42,o),
(344,-103,cs),
(344,-181,o),
(403,-218,o),
(475,-218,cs)
);
}
);
};
layerId = "5dd0c03f-0ac1-43be-b978-266741ffc02a";
shapes = (
{
closed = 1;
nodes = (
(495,-218,o),
(517,-215,o),
(528,-210,c),
(528,-189,l),
(507,-195,o),
(491,-197,o),
(476,-197,cs),
(420,-197,o),
(386,-172,o),
(386,-129,cs),
(386,-84,o),
(429,-32,o),
(458,0,c),
(454,11,l),
(449,23,l),
(420,-6,o),
(361,-72,o),
(361,-128,cs),
(361,-187,o),
(408,-218,o),
(475,-218,cs)
);
},
{
ref = e;
}
);
width = 581;
},
{
layerId = "41AFA816-2F69-4745-BF67-F6DEA15443A0";
shapes = (
{
closed = 1;
nodes = (
(489,-218,o),
(513,-215,o),
(527,-211,c),
(527,-126,l),
(513,-131,o),
(499,-134,o),
(484,-134,cs),
(453,-134,o),
(429,-112,o),
(429,-80,cs),
(429,-57,o),
(447,-27,o),
(466,0,c),
(466,38,l),
(466,77,l),
(435,47,o),
(344,-42,o),
(344,-103,cs),
(344,-181,o),
(403,-218,o),
(475,-218,cs)
);
},
{
alignment = -1;
ref = e;
}
);
width = 562;
},
{
layerId = "32E5C913-0890-451E-8980-44FAA246AB8A";
shapes = (
{
closed = 1;
nodes = (
(491,-219,o),
(520,-215,o),
(536,-210,c),
(536,-117,l),
(525,-121,o),
(511,-124,o),
(497,-124,cs),
(463,-124,o),
(445,-104,o),
(445,-77,cs),
(445,-50,o),
(466,-21,o),
(485,0,c),
(485,43,l),
(454,87,l),
(443,76,o),
(334,-31,o),
(334,-108,cs),
(334,-186,o),
(393,-219,o),
(470,-219,cs)
);
},
{
alignment = -1;
ref = e;
}
);
width = 565;
}
);
unicode = 281;
},
{
glyphname = f;
kernLeft = f_2nd;
kernRight = f_1st;
layers = (
{
background = {
shapes = (
{
closed = 1;
nodes = (
(135,0,l),
(135,575,ls),
(135,660,o),
(176,707,o),
(262,707,cs),
(352,707,l),
(352,730,l),
(255,730,ls),
(164,730,o),
(110,675,o),
(110,585,cs),
(110,0,l)
);
},
{
closed = 1;
nodes = (
(335,487,l),
(335,510,l),
(20,510,l),
(20,487,l)
);
}
);
};
layerId = "5dd0c03f-0ac1-43be-b978-266741ffc02a";
shapes = (
{
closed = 1;
nodes = (
(135,0,l),
(135,487,l),
(335,487,l),
(335,510,l),
(135,510,l),
(135,575,ls),
(135,660,o),
(176,707,o),
(262,707,cs),
(352,707,l),
(352,730,l),
(255,730,ls),
(164,730,o),
(110,675,o),
(110,585,cs),
(110,510,l),
(20,510,l),
(20,487,l),
(110,487,l),
(110,0,l)
);
}
);
width = 372;
},
{
layerId = "41AFA816-2F69-4745-BF67-F6DEA15443A0";
shapes = (
{
closed = 1;
nodes = (
(236,0,l),
(236,393,l),
(367,393,l),
(367,510,l),
(236,510,l),
(236,581,ls),
(236,599,o),
(250,613,o),
(268,613,cs),
(389,613,l),
(389,730,l),
(244,730,ls),
(153,730,o),
(99,675,o),
(99,585,cs),
(99,510,l),
(10,510,l),
(10,393,l),
(99,393,l),
(99,0,l)
);
}
);
width = 409;
},
{
layerId = "32E5C913-0890-451E-8980-44FAA246AB8A";
shapes = (
{
closed = 1;
nodes = (
(283,0,l),
(283,372,l),
(408,372,l),
(408,518,l),
(283,518,l),
(283,559,ls),
(283,572,o),
(293,582,o),
(307,582,cs),
(431,582,l),
(431,730,l),
(254,730,ls),
(152,730,o),
(92,669,o),
(92,570,cs),
(92,518,l),
(14,518,l),
(14,372,l),
(92,372,l),
(92,0,l)
);
}
);
width = 444;
}
);
unicode = 102;
},
{
glyphname = g;
kernLeft = o_2nd;
kernRight = n_1st;
layers = (
{
background = {
shapes = (
{
closed = 1;
nodes = (
(437,-203,ls),
(528,-203,o),
(582,-148,o),
(582,-58,cs),
(582,245,ls),
(582,414,o),
(478,522,o),
(313,522,cs),
(141,522,o),
(44,407,o),
(44,259,cs),
(44,102,o),
(149,-2,o),
(285,-2,cs),
(351,-2,o),
(399,19,o),
(445,71,c),
(445,-54,ls),
(445,-72,o),
(431,-86,o),
(413,-86,cs),
(151,-86,l),
(151,-203,l)
);
},
{
closed = 1;
nodes = (
(232,115,o),
(183,179,o),
(183,259,cs),
(183,341,o),
(232,405,o),
(313,405,cs),
(394,405,o),
(443,339,o),
(443,255,cs),
(443,177,o),
(394,115,o),
(313,115,cs)
);
}
);
};
layerId = "5dd0c03f-0ac1-43be-b978-266741ffc02a";
shapes = (
{
closed = 1;
nodes = (
(401,-203,ls),
(502,-203,o),
(566,-138,o),
(566,-38,cs),
(566,263,ls),
(566,410,o),
(460,521,o),
(312,521,cs),
(155,521,o),
(60,407,o),
(60,255,cs),
(60,103,o),
(152,-13,o),
(309,-13,cs),
(431,-13,o),
(509,69,o),
(538,133,c),
(541,133,l),
(541,-28,ls),
(541,-123,o),
(490,-180,o),
(394,-180,cs),
(163,-180,l),
(163,-203,l)
);
},
{
closed = 1;
nodes = (
(169,10,o),
(85,117,o),
(85,249,cs),
(85,392,o),
(170,498,o),
(310,498,cs),
(448,498,o),
(541,396,o),
(541,257,cs),
(541,113,o),
(441,10,o),
(309,10,cs)
);
}
);
width = 651;
},
{
layerId = "41AFA816-2F69-4745-BF67-F6DEA15443A0";
shapes = (
{
closed = 1;
nodes = (
(428,-203,ls),
(519,-203,o),
(573,-148,o),
(573,-58,cs),
(573,245,ls),
(573,414,o),
(469,522,o),
(304,522,cs),
(132,522,o),
(35,407,o),
(35,259,cs),
(35,102,o),
(140,-2,o),
(276,-2,cs),
(342,-2,o),
(389,19,o),
(435,71,c),
(436,71,l),
(436,-54,ls),
(436,-72,o),
(422,-86,o),
(404,-86,cs),
(142,-86,l),
(142,-203,l)
);
},
{
closed = 1;
nodes = (
(223,115,o),
(174,179,o),
(174,259,cs),
(174,341,o),
(223,405,o),
(304,405,cs),
(385,405,o),
(434,339,o),
(434,255,cs),
(434,177,o),
(385,115,o),
(304,115,cs)
);
}
);
width = 633;
},
{
layerId = "32E5C913-0890-451E-8980-44FAA246AB8A";
shapes = (
{
closed = 1;
nodes = (
(433,-203,ls),
(538,-203,o),
(600,-142,o),
(600,-43,cs),
(600,250,ls),
(600,416,o),
(483,530,o),
(312,530,cs),
(129,530,o),
(31,403,o),
(31,261,cs),
(31,128,o),
(121,20,o),
(257,20,cs),
(332,20,o),
(376,51,o),
(402,86,c),
(408,86,l),
(408,-4,ls),
(408,-26,o),
(392,-39,o),
(368,-39,cs),
(123,-39,l),
(123,-203,l)
);
},
{
closed = 1;
nodes = (
(265,174,o),
(227,214,o),
(227,264,cs),
(227,316,o),
(265,356,o),
(316,356,cs),
(366,356,o),
(404,315,o),
(404,263,cs),
(404,214,o),
(366,174,o),
(316,174,cs)
);
}
);
width = 641;
}
);
unicode = 103;
},
{
glyphname = h;
kernLeft = h_2nd;
kernRight = n_1st;
layers = (
{
background = {
shapes = (
{
closed = 1;
nodes = (
(202,0,l),
(202,297,ls),
(202,357,o),
(253,405,o),
(314,405,cs),
(376,405,o),
(426,355,o),
(426,293,cs),
(426,0,l),
(563,0,l),
(563,293,ls),
(563,419,o),
(491,522,o),
(344,522,cs),
(296,522,o),
(244,508,o),
(202,474,c),
(202,730,l),
(65,730,l),
(65,0,l)
);
}
);
};
layerId = "5dd0c03f-0ac1-43be-b978-266741ffc02a";
shapes = (
{
closed = 1;
nodes = (
(110,0,l),
(110,295,ls),
(110,432,o),
(213,500,o),
(316,500,cs),
(420,500,o),
(524,431,o),
(524,295,cs),
(524,0,l),
(549,0,l),
(549,299,ls),
(549,448,o),
(433,523,o),
(317,523,cs),
(229,523,o),
(149,480,o),
(110,399,c),
(110,730,l),
(85,730,l),
(85,0,l)
);
}
);
width = 634;
},
{
layerId = "41AFA816-2F69-4745-BF67-F6DEA15443A0";
shapes = (
{
closed = 1;
nodes = (
(202,0,l),
(202,297,ls),
(202,357,o),
(253,405,o),
(314,405,cs),
(376,405,o),
(426,355,o),
(426,293,cs),
(426,0,l),
(563,0,l),
(563,293,ls),
(563,419,o),
(491,522,o),
(344,522,cs),
(296,522,o),
(244,508,o),
(202,474,c),
(202,730,l),
(65,730,l),
(65,0,l)
);
}
);
width = 628;
},
{
layerId = "32E5C913-0890-451E-8980-44FAA246AB8A";
shapes = (
{
closed = 1;
nodes = (
(234,0,l),
(234,282,ls),
(234,330,o),
(270,359,o),
(310,359,cs),
(348,359,o),
(384,330,o),
(384,281,cs),
(384,0,l),
(576,0,l),
(576,298,ls),
(576,442,o),
(492,530,o),
(364,530,cs),
(318,530,o),
(271,515,o),
(234,489,c),
(234,730,l),
(43,730,l),
(43,0,l)
);
}
);
width = 618;
}
);
unicode = 104;
},
{
glyphname = hbar;
kernLeft = h_2nd;
kernRight = n_1st;
layers = (
{
layerId = "5dd0c03f-0ac1-43be-b978-266741ffc02a";
shapes = (
{
closed = 1;
nodes = (
(397,616,l),
(397,637,l),
(5,637,l),
(5,616,l)
);
},
{
alignment = -1;
ref = h;
}
);
width = 634;
},
{
layerId = "41AFA816-2F69-4745-BF67-F6DEA15443A0";
shapes = (
{
closed = 1;
nodes = (
(397,577,l),
(397,656,l),
(5,656,l),
(5,577,l)
);
},
{
alignment = -1;
ref = h;
}
);
width = 628;
},
{
layerId = "32E5C913-0890-451E-8980-44FAA246AB8A";
shapes = (
{
closed = 1;
nodes = (
(402,572,l),
(402,663,l),
(-10,663,l),
(-10,572,l)
);
},
{
alignment = -1;
ref = h;
}
);
width = 607;
}
);
unicode = 295;
},
{
glyphname = i;
kernLeft = h_2nd;
kernRight = h_1st;
layers = (
{
layerId = "5dd0c03f-0ac1-43be-b978-266741ffc02a";
shapes = (
{
alignment = -1;
ref = idotless;
},
{
alignment = -1;
pos = (25,-56);
ref = dotaccent;
}
);
width = 195;
},
{
background = {
shapes = (
{
closed = 1;
nodes = (
(181,571,o),
(220,610,o),
(220,657,cs),
(220,704,o),
(181,743,o),
(134,743,cs),
(87,743,o),
(48,704,o),
(48,657,cs),
(48,610,o),
(87,571,o),
(134,571,cs)
);
}
);
};
layerId = "41AFA816-2F69-4745-BF67-F6DEA15443A0";
shapes = (
{
alignment = -1;
ref = idotless;
},
{
alignment = -1;
pos = (48,-147);
ref = dotaccent;
}
);
width = 267;
},
{
layerId = "32E5C913-0890-451E-8980-44FAA246AB8A";
shapes = (
{
alignment = -1;
ref = idotless;
},
{
alignment = -1;
pos = (35,-143);
ref = dotaccent;
}
);
width = 277;
}
);
unicode = 105;
},
{
glyphname = idotless;
kernLeft = h_2nd;
kernRight = h_1st;
layers = (
{
background = {
shapes = (
{
closed = 1;
nodes = (
(167,0,l),
(167,510,l),
(29,510,l),
(29,0,l)
);
}
);
};
layerId = "5dd0c03f-0ac1-43be-b978-266741ffc02a";
shapes = (
{
closed = 1;
nodes = (
(110,0,l),
(110,510,l),
(85,510,l),
(85,0,l)
);
}
);
width = 195;
},
{
layerId = "41AFA816-2F69-4745-BF67-F6DEA15443A0";
shapes = (
{
closed = 1;
nodes = (
(203,0,l),
(203,510,l),
(65,510,l),
(65,0,l)
);
}
);
width = 267;
},
{
layerId = "32E5C913-0890-451E-8980-44FAA246AB8A";
shapes = (
{
closed = 1;
nodes = (
(235,0,l),
(235,518,l),
(43,518,l),
(43,0,l)
);
}
);
width = 277;
}
);
unicode = 305;
},
{
glyphname = idotaccent;
kernLeft = h_2nd;
kernRight = h_1st;
layers = (
{
background = {
shapes = (
{
closed = 1;
nodes = (
(145,574,o),
(184,613,o),
(184,660,cs),
(184,707,o),
(145,746,o),
(98,746,cs),
(51,746,o),
(12,707,o),
(12,660,cs),
(12,613,o),
(51,574,o),
(98,574,cs)
);
}
);
};
layerId = "5dd0c03f-0ac1-43be-b978-266741ffc02a";
shapes = (
{
alignment = -1;
ref = idotless;
},
{
alignment = -1;
pos = (25,-56);
ref = dotaccent;
}
);
width = 195;
},
{
layerId = "41AFA816-2F69-4745-BF67-F6DEA15443A0";
shapes = (
{
alignment = -1;
ref = idotless;
},
{
alignment = -1;
pos = (47,-147);
ref = dotaccent;
}
);
width = 267;
},
{
layerId = "32E5C913-0890-451E-8980-44FAA246AB8A";
shapes = (
{
alignment = -1;
ref = idotless;
},
{
alignment = -1;
pos = (34,-143);
ref = dotaccent;
}
);
width = 277;
}
);
},
